<?xml version="1.0" encoding="utf-8"?>
<!-- Generator: Adobe Illustrator 24.0.2, SVG Export Plug-In . SVG Version: 6.00 Build 0)  -->
<svg version="1.1" id="Capa_1" xmlns="http://www.w3.org/2000/svg" xmlns:xlink="http://www.w3.org/1999/xlink" x="0px" y="0px"
	 viewBox="0 0 902 330.86" style="enable-background:new 0 0 902 330.86;" xml:space="preserve">
<style type="text/css">
	.st0{fill:#5646B7;}
	.st1{fill:#0D131A;}
	.st2{fill:#C7A008;}
	.st3{fill:#7D7F68;}
	.st4{fill:#FFCB05;}
	.st5{fill:#333333;}
	.st6{fill:#ED8599;}
	.st7{clip-path:url(#SVGID_2_);}
	.st8{fill:#A586BC;}
	.st9{fill:#8F75A3;}
	.st10{fill:#DBDCDC;}
	.st11{fill:#B4B4B5;}
	.st12{fill:#00ACA8;}
	.st13{fill:#009693;}
	.st14{fill:#008086;}
	.st15{fill:#00666C;}
	.st16{fill:#CCCCCC;}
	.st17{fill:#999999;}
	.st18{fill:#CE7486;}
	.st19{fill:#FFFFFF;}
	.st20{clip-path:url(#SVGID_4_);}
</style>
<g>
	<path id="polygon16" class="st1" d="M0,122.57l40.19,67.98l16.07-15.4l-43.87-65.3L0,122.57z"/>
	<path id="polygon18" class="st1" d="M598.1,68.99l-1.67,9.04l19.09-6.36l-2.34-11.05L598.1,68.99z"/>
	<path id="polygon25" class="st1" d="M485.58,7.7L423.63,78.7l18.08-5.02L500.65,0L485.58,7.7z"/>
	<path id="polygon27" class="st1" d="M817.45,104.82l15.07-8.04l-4.35,38.18L817.45,104.82z"/>
	<path id="polygon58" class="st1" d="M434.68,91.76l-12.06,6.36l1,4.02l28.46-18.08l-12.39-13.4l-16.07,8.04L434.68,91.76z"/>
	<path id="polygon62" class="st1" d="M356.98,61.28l-18.42,34.83l19.42-5.69l14.07-37.51L356.98,61.28z"/>
	<path id="polygon104" class="st2" d="M507.01,51.57l10.72-4.69l-19.76-25.45l-6.36,9.38L507.01,51.57z"/>
	<path id="polygon120" class="st2" d="M416.26,111.52l-39.85-36.84l-5.02,10.72l35.5,33.15L416.26,111.52z"/>
	<path id="path126" class="st2" d="M464.82,93.43c-21.43,2.68-32.48,20.76-34.16,22.77c8.04-6.7,17.75-11.72,28.8-14.07
		c26.46-6.36,49.56,1.67,63.96,19.42l9.04-7.37C518.06,96.78,491.27,87.07,464.82,93.43"/>
	<path id="polygon29" class="st1" d="M722.67,129.26l13.73,3.01l17.08-8.37l-15.07-5.69L722.67,129.26z"/>
	<path id="polygon36" class="st1" d="M256.52,89.08l2.01,43.87l19.09-7.37l-5.69-44.87L256.52,89.08z"/>
	<path id="polygon43" class="st1" d="M737.41,75.68l-15.07,8.37l0.33,45.21l15.4-7.7l4.69-22.1L737.41,75.68z"/>
	<path id="polygon45" class="st1" d="M735.4,132.28l-16.74,148.69l26.79-5.36l5.02-151.37L735.4,132.28z"/>
	<path id="polygon47" class="st1" d="M767.88,288l0.67,20.09l51.24,16.41l15.4-8.04l-50.57-39.18l-50.9-4.35l-15.07,8.04L767.88,288
		z"/>
	<path id="polygon49" class="st1" d="M577.67,252.5l12.39-6.7l8.37,14.73l11.72-6.36l2.34,19.42l74.68,13.4l14.73-8.37L599.1,216
		l-73,12.39l-14.07,13.73L577.67,252.5z"/>
	<path id="polygon56" class="st1" d="M553.89,69.66l-15.07,8.37l-26.79,164.09l15.07-8.04l25.79-92.09L553.89,69.66z"/>
	<path id="polygon60" class="st1" d="M467.16,285.65L345.6,225.38l15.07-11.72l121.56,63.63L467.16,285.65z"/>
	<path id="path69" class="st1" d="M189.54,205.62l-15.4,10.72c0,0,3.35,17.41,7.7,29.47c4.35,12.06,14.4,21.77,14.4,21.77
		c6.7,6.36,14.4,11.05,23.44,13.73c17.08,5.02,36.5,1.67,53.25-9.04c4.35-2.68,10.38-7.03,14.07-10.72
		C270.58,271.59,189.54,205.62,189.54,205.62L189.54,205.62z"/>
	<path id="polygon71" class="st1" d="M272.93,129.6l14.07,156.39l58.27-8.37l15.4-8.04l-72-149.36l-14.73,5.02l-15.4,7.7
		L272.93,129.6z"/>
	<path id="polygon78" class="st1" d="M55.26,183.85l64.97,147.01l61.62-19.76l15.07-10.05L68.99,167.11l-16.07,9.71l-12.73,13.73
		L55.26,183.85z"/>
	<path id="path80" class="st1" d="M697.89,253.17l1,7.37c5.36-0.67,10.72-1.34,15.74-3.01c5.69-2.01,17.75-7.37,22.1-11.39
		C734.73,246.81,706.6,254.18,697.89,253.17"/>
	<path id="path82" class="st1" d="M479.89,215.66l2.34,11.72c12.39-2.01,23.11-6.36,33.82-12.73c6.7-4.02,13.73-9.71,16.07-11.39
		C530.45,204.28,479.89,215.66,479.89,215.66L479.89,215.66z"/>
	<path id="path88" class="st3" d="M510.36,157.39l-0.67,0.67C510.02,158.06,510.36,157.73,510.36,157.39z"/>
	<path id="polygon90" class="st3" d="M530.45,139.31l11.39-12.39l-4.02,4.02v-0.33l-3.35,3.68l-11.39,12.06l10.72,9.71l2.01-12.06
		l5.36,4.69L530.45,139.31z"/>
	<path id="polygon92" class="st3" d="M530.45,139.31l10.72,9.38l4.02-25.45l-3.35,3.68L530.45,139.31z"/>
	<g id="g84" transform="translate(-5.451 -1.686)">
		<path id="path86" class="st4" d="M142.58,318.53l-4.69-10.72l-61.62-137.3l-1.34-2.68l-2.68,1.34l-2.01,1l-11.05,5.36
			c-1.67-2.68-4.35-7.37-6.03-10.38l-24.78-41.86l-6.36-11.05l10.72-6.7C42.79,99.18,54.17,93.16,66.9,87.8
			c24.78-10.38,49.9-16.07,73-16.07c7.7,0,15.07,0.67,21.77,1.67c11.39,1.34,22.1,5.02,30.81,11.05
			c13.06,7.37,23.44,18.75,29.13,32.15c4.69,11.05,5.69,24.11,2.68,37.51l-1.67,8.04l6.7-4.69c4.35-3.35,9.04-6.03,14.07-8.04
			c8.71-3.68,17.75-5.69,26.79-5.69c8.71,0,16.74,1.67,24.11,5.02l4.69,2.01l-0.33-5.36l-2.01-22.44l-0.33-3.68l-3.35,1l-10.38,2.68
			l-1.67-38.18l76.35-24.45l-0.67,29.8l5.69,1.34l16.74-31.81l49.9,44.2l2.01,2.01l2.01-2.01c6.7-6.36,15.07-11.72,24.11-15.4
			l3.68-1.67l-2.68-3.35L449,72.39l57.26-65.97L536.4,51.3l-45.88,24.78l-10.05,5.36l11.72,0.33c21.77,0.33,41.19,9.71,54.25,25.79
			l4.69,6.03l3.01,3.68l-5.02,5.36l-3.35,3.68l-11.39,12.39l-2.01,2.34l2.34,2.01l10.72,9.71l4.02,3.68l1-5.36l4.02-25.45l1-6.7
			l1-6.7l6.03-37.84h56.93l0.33-2.68l1-6.36h49.56l12.06,75.68l0.67,5.02l4.02-3.01c5.02-3.68,10.38-6.36,16.07-8.71
			c7.7-3.01,15.4-4.35,23.44-4.35c9.38,0,18.42,2.01,26.12,6.36c0.33,0,0.33,0.33,1,0.67l3.68,1.34l0.33-4.02l1-8.37l0.33-2.68
			l-2.68-0.67l-10.05-2.34l-0.33-39.52l76.69,16.74l5.69,28.46h6.03l6.03-24.45l63.96,15.4L838.8,314.18l-46.55-14.73l-0.33-18.08
			v-2.68l-2.68-0.33l-46.55-6.7l2.68-23.78l0.67-5.69l-5.02,2.68c-2.34,1.34-4.69,2.34-7.03,3.01c-7.7,3.01-15.4,4.35-23.11,4.35
			c-2.34,0-4.35,0-6.7-0.33l-4.02-0.33l0.67,4.02l3.35,20.76l-67.98-12.06l-3.68-30.81l-1-10.05l-4.69,8.71l-7.7,15.07l-14.4-26.46
			l-4.35-8.04l-1.34,9.04l-3.01,20.43l-59.61-9.38l4.69-28.13l1-6.36l-5.69,3.35c-9.71,5.69-21.1,10.38-34.16,13.4
			c-4.69,1-9.38,2.01-14.4,2.34l-2.68,0.33v56.26l-117.21-57.93l-4.35-2.01v54.59l-52.58,7.7l-2.34-23.78l-0.67-6.36l-4.69,4.35
			c-7.03,6.7-14.73,12.06-23.11,15.74c-8.71,3.68-17.75,5.69-26.46,5.69c-9.04,0-17.41-2.01-25.12-5.36
			c-14.07-6.7-24.45-19.09-28.8-34.83c-2.01-7.37-2.68-15.07-1.67-23.11l1-8.37l-6.03,6.03c-4.35,4.02-9.04,8.04-14.07,11.72
			l-1.67,1.34l0.67,2.01l17.75,67.65l3.01,12.06l-11.72,3.68l-33.15,10.72L142.58,318.53L142.58,318.53z M157.32,136.69
			c-1.67,0-3.35,0-5.36,0.33l-2.34,0.33l-3.35,0.67l1,3.35l0.67,2.01l9.38,31.14l1,3.01l1.34,4.35l3.35-3.01l2.34-2.01
			c9.38-8.37,12.39-16.74,10.38-27.46c-1.34-6.36-6.03-9.38-9.04-10.72C164.68,137.36,161,136.69,157.32,136.69L157.32,136.69z
			 M412.5,137.69l-6.03,5.69l-15.74,15.07l-3.35,3.35l4.35,1.67l16.74,6.36l5.02,2.01l-1-5.36c-1.34-7.03-1.67-14.07-1-20.76
			L412.5,137.69z M480.81,120.28c-6.36,0-12.73,2.68-17.08,7.7c-6.7,7.37-8.04,18.42-3.35,27.13l1.34,2.34l2.01,3.68l3.01-3.35
			l2.01-2.01l23.11-26.12l1.67-2.01l3.01-3.35l-4.02-1.67l-2.68-1C486.5,120.95,483.83,120.28,480.81,120.28L480.81,120.28z"/>
	</g>
	<path id="path98" class="st2" d="M535.81,181.51c-11.72,9.71-24.78,15.74-42.2,20.09c-3.68,1-7.7,1.67-11.05,1.67
		c-27.8,2.68-50.9-10.05-59.61-30.47c-1-2.34-2.01-5.02-2.68-7.7c-4.02-17.41-0.67-32.82,8.04-45.21c1-1.34,1.67-2.34,2.68-3.35
		c-0.33,0.33-1,0.67-1.34,1c-3.35,3.01-6.36,6.03-8.71,9.71c-8.71,12.06-12.06,27.8-8.04,45.21c0.67,2.68,1.34,5.36,2.68,7.7
		c8.71,20.76,32.15,33.49,59.61,30.81c3.68-0.33,7.37-1,11.39-2.01c17.41-4.35,30.81-10.38,42.2-20.09c2.68-2.34,5.69-5.02,8.37-7.7
		l-0.33-0.33C536.15,181.17,535.81,181.17,535.81,181.51"/>
	<path id="polygon100" class="st2" d="M340.57,128.93l30.81-43.53l-1.34-1l-29.8,41.86L340.57,128.93z"/>
	<path id="path96" class="st2" d="M454.01,171.43l5.3-4.08l0.64-1.92c-1-0.67-0.91-0.7-1.92-1.37c-0.46-0.43-0.89-0.88-1.29-1.35
		c-8.5-9.9-5.78-29.31,0.29-40.18c-1.42,1.03-12.53,9.38-13.17,24.3C442.7,163.52,453.51,171.1,454.01,171.43z"/>
	<path id="polygon102" class="st2" d="M545.19,123.24l-4.02,25.45l-5.36-4.69l-2.01,12.06l-10.72-9.71l11.39-12.06l3.35-3.68v0.33
		l4.02-4.02L545.19,123.24z"/>
	<path id="path106" class="st2" d="M206.96,114.53C156.72,53.58,66.64,86.4,34.49,114.86l1.34,2.34c7.37-4.35,15.4-8.04,23.44-11.72
		c32.15-13.73,62.96-17.75,87.4-13.4c8.71,1,17.75,3.68,25.79,9.04c11.05,6.36,19.42,15.07,24.45,26.46
		c8.71,20.09,1,46.88-19.42,68.99C203.27,172.8,221.02,150.03,206.96,114.53L206.96,114.53z"/>
	<path id="path108" class="st2" d="M309.1,185.52c-0.33-1-0.33-2.34-0.67-3.35c-2.68-10.05-8.71-18.08-16.74-23.44
		c-12.73-8.71-30.81-10.38-48.56-3.01c-9.38,4.02-17.41,10.38-24.11,17.75c5.02-4.35,10.72-7.7,16.74-10.38
		c17.75-7.7,35.83-5.69,48.56,3.01c8.04,5.36,14.07,13.4,16.74,23.44c0.33,1,0.67,2.34,0.67,3.35c0.67,4.02,1,7.7,1,11.72
		c-0.33,11.72-4.69,23.44-11.72,33.49c-1,1.67-2.34,3.01-3.68,4.69c4.02-3.68,7.7-7.37,10.72-11.72
		c7.37-10.05,11.39-21.77,12.06-33.49C310.1,193.56,309.77,189.54,309.1,185.52"/>
	<path id="path110" class="st2" d="M259.87,170.79c0,0,7.37-7.37,7.03-7.37c-9.04-0.33-13.06,8.37-13.4,9.04
		C255.51,171.46,257.52,171.12,259.87,170.79"/>
	<path id="path112" class="st2" d="M276.95,181.17c0.33,1.34,0.67,2.34,0.67,3.68c0,2.01-0.33,3.68-1.34,5.36
		c1.34-0.67,12.06-6.03,8.04-16.74C284.65,174.14,276.61,181.17,276.95,181.17"/>
	<path id="path114" class="st2" d="M235.42,187.53c0-4.35,7.7-15.4,10.05-19.09c-12.06,7.7-17.41,18.08-17.41,26.12
		c0,14.07,12.39,25.45,27.13,25.45c7.03,0,19.76-3.68,28.13-17.08c-4.35,3.01-15.4,9.71-21.43,9.71
		C247.14,212.65,235.42,201.6,235.42,187.53"/>
	<path id="polygon116" class="st2" d="M338.9,200.26l0.33,56.59l9.04,0.67l-2.01-64.63L338.9,200.26z"/>
	<path id="polygon118" class="st2" d="M287.33,92.09v5.02l42.86-12.73l3.01,54.59l7.37-10.05l-1.67-54.59L287.33,92.09z"/>
	<path id="path122" class="st2" d="M410.23,180.17l-47.22-15.74l-6.7,7.37l46.88,18.75c5.36,10.05,13.4,18.75,23.44,24.78
		c9.71,6.03,21.1,9.71,32.82,10.72v23.11l7.37,3.68l2.34-34.83L410.23,180.17L410.23,180.17z"/>
	<path id="path124" class="st2" d="M485.91,173.8c11.72-2.68,18.08-8.71,24.11-15.4c-4.35,3.68-25.79,8.37-29.47,9.38l-7.03,7.7
		C476.54,175.48,481.89,174.81,485.91,173.8"/>
	<path id="path128" class="st2" d="M536.48,180.84c2.68-2.01,7.03-4.35,9.71-7.03l-28.46-25.45c-2.34,2.68-4.02,7.03-6.7,9.04
		L536.48,180.84L536.48,180.84z"/>
	<path id="path130" class="st2" d="M682.82,249.15c-29.8-24.78-28.13-77.36-13.4-94.1l-13.06-82.72l-28.8,3.68l-1.34,7.37H648
		l11.72,75.01c-14.73,16.74-21.77,39.18-17.08,59.94c3.68,16.07,13.73,28.8,27.8,36.17c1.34,0.67,3.01,1.34,4.35,2.01l0.33,1
		l8.71,1.34C683.49,259.2,684.5,249.82,682.82,249.15L682.82,249.15z"/>
	<path id="polygon132" class="st2" d="M567.96,84.39l-1.34,7.37h32.82l9.71,53.25l7.37-7.37l-7.7-56.26L567.96,84.39z"/>
	<path id="polygon134" class="st2" d="M624.22,187.53l-10.72,27.46l2.68,7.37l15.07-41.86L624.22,187.53z"/>
	<path id="polygon136" class="st2" d="M592.74,170.45l-7.37,7.37l-8.04,49.56l7.7,2.68L592.74,170.45z"/>
	<path id="path138" class="st2" d="M740.42,154.38c4.35,3.01,8.04,7.03,10.72,11.72c2.34,3.68,3.68,7.37,5.02,12.06
		c3.68,15.07-0.67,31.14-10.05,43.87c-1,1.34-2.01,2.68-3.01,3.68c3.68-3.35,50.57-37.84,5.02-83.05
		c-50.23-16.41-69.32,16.07-70.99,18.42c5.36-4.35,11.39-8.37,18.08-10.72C711.96,143.66,728.7,146.01,740.42,154.38"/>
	<path id="path140" class="st2" d="M715.31,157.73c0,0.33,7.37-7.37,7.37-7.37c-9.04,0.33-13.4,4.69-12.73,6.7
		c-0.67,0.67-1,1.67-1.34,2.34C710.28,158.4,713.97,157.73,715.31,157.73"/>
	<path id="path142" class="st2" d="M732.05,169.12c0.33,1.34,0.33,2.34,0.33,3.68c0,1.67-0.67,3.35-1.34,4.69
		c1.34-0.67,12.06-4.02,8.04-16.07C739.42,162.08,731.72,169.12,732.05,169.12"/>
	<path id="path144" class="st2" d="M708.27,206.96c10.05,0.33,21.43-5.69,29.47-16.74c-20.43,4.35-42.2-30.14-40.19-33.49
		c-7.7,5.69-14.73,16.41-15.07,24.11C681.82,194.9,693.54,206.29,708.27,206.96"/>
	<path id="polygon146" class="st2" d="M821.13,296.37l4.69,3.01l58.94-176.82l-44.2-10.05l-0.33,10.38l35.5,7.7L821.13,296.37z"/>
	<path id="polygon148" class="st2" d="M751.14,93.43l0.33,10.05l46.88,9.38l18.08,85.73l7.37-7.37l-17.41-86.73L751.14,93.43z"/>
	<path id="polygon150" class="st2" d="M787.31,191.22l-13.06,73l7.37,2.34l13.06-82.72L787.31,191.22z"/>
	<path id="polygon152" class="st2" d="M178.83,291.01l-21.77-79.7l-8.04,5.69l20.43,76.02L178.83,291.01z"/>
	<path id="path154" class="st2" d="M173.13,171.46c-5.02,5.36-16.41,15.74-22.77,19.76l-4.02-12.39l-8.37-27.46l-5.36-18.42
		l-5.36,6.7l5.36,18.42l8.37,27.13l4.02,12.39C154.05,192.56,166.77,181.84,173.13,171.46"/>
	<path id="path156" class="st1" d="M483.26,124.31c-6.32-2.41-15.05-1.81-19.87,3.61c-1.2,1.2-3.37,5.49-3.97,7
		c4.52-3.61,16.65-7.47,20.41-3.11l5.72-6.92L483.26,124.31z"/>
	<path id="path158" class="st1" d="M167.11,149.02c-0.67-4.02-4.69-7.37-6.7-8.37c-3.35-1.67-9.71-2.01-14.07-1
		c0.67,2.68,1.67,6.03,2.01,7.37c1.67,0.33,4.69,0.67,6.36,1.34c2.01,1,5.36,3.01,6.03,7.37c1,5.36,0.67,10.72-1.67,14.73
		C165.43,164.43,168.45,157.73,167.11,149.02"/>
	<g id="g160" transform="translate(-5.451 -1.686)">
		<g id="g162">
			<path id="path164" class="st5" d="M183.44,150.42c-3.01-16.07-24.11-25.12-45.21-13.73l5.36,18.42l8.37,27.46l4.02,12.39
				C171.72,185.25,187.46,172.86,183.44,150.42L183.44,150.42z M162.67,175.54c-2.34-7.37-7.37-23.44-7.37-23.44s-1-3.35-2.34-7.37
				c4.35-0.67,8.71-0.33,12.06,1.34c2.01,1,5.36,3.01,6.03,7.37C173.06,162.14,170.04,168.84,162.67,175.54L162.67,175.54z"/>
		</g>
	</g>
	<g id="g166" transform="translate(-5.451 -1.686)">
		<g id="g168">
			<path id="path170" class="st5" d="M500.23,124.97c-11.72-10.72-29.8-10.05-40.52,1.67c-10.72,11.72-10.05,29.8,1.67,40.52
				c1,1,2.01,1.67,3.01,2.34l37.84-42.86C501.57,126.31,500.9,125.64,500.23,124.97z M464.74,155.11c-3.68-6.7-3.01-15.4,2.68-21.43
				c5.36-5.69,13.4-7.37,20.43-4.69L464.74,155.11L464.74,155.11z"/>
		</g>
	</g>
	<path id="polygon172" class="st1" d="M545.35,119.19l-18.66,18.06l17.76,15.95L545.35,119.19z"/>
	<path id="path174" class="st5" d="M739.08,161.75c0.33,1.34,0.33,2.68,0.33,4.02c-0.33,8.04-7.7,14.07-16.74,13.73
		c-9.04-0.33-16.07-7.03-15.74-15.07c0.33-7.37,7.03-13.4,15.07-13.73c-1.67-0.33-3.35-0.67-5.02-0.67
		c-15.07-0.67-27.13,10.05-27.8,23.11c-0.67,14.07,10.72,25.79,25.45,26.12c15.07,0.67,27.13-10.05,27.8-24.11
		C743.44,170.45,741.76,165.77,739.08,161.75"/>
	<path id="path183" class="st5" d="M284.98,177.82c0,8.04-7.37,14.4-16.07,14.4c-9.04,0-16.07-6.36-16.07-14.4
		c0-7.37,6.36-13.73,14.73-14.4c-1.67-0.33-3.35-0.33-5.02-0.33c-15.07,0-26.79,11.05-26.79,24.45c0,14.07,11.72,25.12,26.46,25.12
		c15.07,0,26.79-11.05,26.79-25.12c0-5.02-1.67-9.38-4.35-13.4C284.65,175.14,284.98,176.48,284.98,177.82"/>
	<g id="g185" transform="translate(-5.451 -1.686)">
		<g id="g187">
			<path id="path196" class="st5" d="M837.8,98.51l-6.7,27.46l-6.03-30.47l-82.38-18.08l0.67,45.88l12.39,2.68l-1,8.37
				c0,0-0.33,0-0.33-0.33c-15.4-8.04-34.49-9.04-52.24-2.01c-6.03,2.34-11.72,5.36-16.74,9.04l-12.39-78.36h-54.59l-1.34,9.04h-57.6
				l-6.7,40.19l-4.69-6.03c-14.07-17.08-34.16-26.46-56.59-27.13l48.89-26.12l-34.16-50.9l-61.62,70.99l10.72,13.06
				c-9.71,4.02-18.08,9.38-25.12,16.07l-52.91-46.88l-18.42,35.16l0.67-34.16l-82.72,26.46l2.34,44.2l14.07-3.68l2.01,22.44
				c-16.07-7.37-35.5-7.03-53.25,0.67c-5.36,2.34-10.38,5.02-14.73,8.37c3.01-13.73,2.34-27.13-3.01-39.18
				c-6.03-14.07-17.08-26.12-30.14-33.49c-9.38-6.36-20.43-10.05-32.15-11.39c-28.46-5.02-62.96,0-96.78,14.4
				c-12.39,5.36-24.11,11.39-34.49,18.08l-13.06,8.37l8.04,13.4l24.78,42.2l7.7,12.73l13.4-6.7l2.01-1l61.62,137.3l6.03,13.06
				l13.73-4.35l33.15-10.72l14.73-4.69l-3.68-14.73l-17.75-67.65c5.02-3.68,9.71-7.7,14.07-12.06c-1,8.04-0.33,16.41,1.67,24.11
				c4.69,16.41,15.4,29.47,30.47,36.5c16.07,7.7,35.83,7.7,53.92,0c9.04-4.02,17.41-9.38,24.11-16.41l2.34,27.13l58.27-8.71V218.4
				l121.56,60.28v-57.93c5.02-0.33,9.71-1.34,14.73-2.34c13.4-3.35,24.78-7.7,35.16-13.73l-5.02,31.14l65.64,10.38l3.68-23.78
				l17.08,31.81l10.38-20.09l3.68,33.15l74.34,13.06l-4.02-25.12c10.05,1,20.76-0.33,31.14-4.02c2.34-1,5.02-2.01,7.03-3.35
				l-3.01,26.79l49.56,7.03l0.33,20.43l51.57,16.07l67.31-202.6L837.8,98.51L837.8,98.51z M547.12,128.65l3.35-3.68l-4.02,25.45
				l-10.72-9.71L547.12,128.65z M503.58,24.17l18.08,24.45L470.1,74.07l-3.68-5.36C466.41,69.04,503.58,24.17,503.58,24.17z
				 M162.34,213.04l20.43,79.03l-33.15,10.72L81.3,150.09c-3.68,2.01-10.72,5.36-16.74,8.37L39.77,116.6
				c9.71-6.36,20.76-11.72,32.15-16.74c32.15-13.73,62.96-17.75,87.4-13.4c8.71,1,17.75,3.68,25.79,9.04
				c11.05,6.36,19.42,15.07,24.45,26.46C221.61,149.42,201.86,188.93,162.34,213.04L162.34,213.04z M315.38,198.98
				c-0.33,11.72-4.69,23.44-12.06,33.49c-7.03,9.71-16.41,17.41-27.8,22.44c-28.8,12.39-57.6,0-65.3-27.46
				c-7.37-26.46,10.05-57.93,37.84-69.99c17.75-7.7,35.83-5.69,48.56,3.01c8.04,5.36,14.07,13.4,16.74,23.44
				c0.33,1,0.67,2.34,0.67,3.35C315.38,191.28,315.38,195.29,315.38,198.98z M472.44,254.9l-120.89-60.28l0.33,63.29l-31.14,4.35
				l-2.34-26.12c9.71-16.41,13.06-36.17,8.04-53.92c-2.68-9.71-7.7-18.42-14.73-25.12l-4.35-53.25l-14.07,3.68l-0.67-13.4
				l50.23-15.07l3.01,51.57l36.84-51.91l36.5,34.49l-50.57,53.25l47.55,18.75c5.36,10.05,13.4,18.42,23.44,24.78
				c9.71,6.03,21.1,9.71,32.82,10.72L472.44,254.9L472.44,254.9z M409.82,167.16l-16.74-6.36l15.74-15.07
				C407.81,152.76,408.14,159.8,409.82,167.16z M541.09,183.24c-11.72,9.71-24.78,15.74-42.2,20.09c-3.68,1-7.7,1.67-11.05,1.67
				c-27.8,2.68-50.9-10.05-59.61-30.47c-1-2.34-2.01-5.02-2.68-7.7c-4.02-17.41-0.67-32.82,8.04-45.21c2.34-3.68,5.36-6.7,8.71-9.71
				c8.04-7.37,18.42-12.39,30.14-15.4c26.46-6.36,49.56,1.67,63.96,19.09l-50.23,53.58c3.35,0.67,8.71-0.33,12.73-1.34
				c12.06-3.01,18.75-9.38,24.45-16.07l20.09,18.08l6.03,5.36C546.78,178.22,544.1,180.89,541.09,183.24z M647.92,254.57
				l-11.05-72.33l-15.4,39.85l-23.11-49.9h-0.33l-9.04,57.93l-38.51-6.7l5.36-32.15c1.34-1.34,3.01-2.68,4.35-4.35l12.39-12.73
				l-12.06-11.05l13.06-77.02h38.85l9.71,53.25l11.05-61.62h27.8l11.72,75.01c-14.73,16.74-21.77,39.18-17.08,59.94
				c3.68,16.07,13.73,28.8,27.8,36.5c1.34,0.67,3.01,1.34,4.35,2.01l1.34,9.71L647.92,254.57z M744.03,230.79
				c-4.35,3.01-9.04,5.69-14.07,7.37c-10.05,3.68-19.76,4.69-28.8,2.68c-6.03-1.34-11.72-3.68-16.74-7.03
				c-7.7-5.69-13.4-13.73-16.07-24.11c-3.01-12.39-0.33-25.79,6.36-37.51c3.35-5.69,7.7-11.05,12.73-15.74
				c5.69-5.02,12.39-9.38,19.42-12.06c17.08-6.36,33.82-4.02,45.54,4.35c4.35,3.01,8.04,7.03,10.72,11.72
				c2.01,3.68,3.68,7.7,4.69,12.06c3.68,15.07-0.67,31.14-10.05,43.87C754.74,222.08,749.72,226.77,744.03,230.79L744.03,230.79z
				 M831.1,299.11l-28.46-8.37l-2.34-105.15l-14.4,81.04l-31.14-5.02l2.34-23.44c20.43-17.08,31.14-44.2,25.12-68.99
				c-2.68-10.72-8.04-20.43-16.07-27.46l2.68-27.46l-11.72-3.01l0.33-14.73L811,107.22l18.08,85.39l18.42-76.69l40.86,9.04
				L831.1,299.11L831.1,299.11z"/>
		</g>
	</g>
</g>
</svg>
