<?xml version="1.0" encoding="utf-8"?>
<!-- Generator: Adobe Illustrator 24.0.2, SVG Export Plug-In . SVG Version: 6.00 Build 0)  -->
<svg version="1.1" id="Capa_1" xmlns="http://www.w3.org/2000/svg" xmlns:xlink="http://www.w3.org/1999/xlink" x="0px" y="0px"
	 viewBox="0 0 690.6 913.7" style="enable-background:new 0 0 690.6 913.7;" xml:space="preserve">
<style type="text/css">
	.st0{fill-rule:evenodd;clip-rule:evenodd;fill:#E3B996;}
	.st1{fill-rule:evenodd;clip-rule:evenodd;fill:#305D55;}
	.st2{fill-rule:evenodd;clip-rule:evenodd;fill:#EEF2E9;}
	.st3{fill-rule:evenodd;clip-rule:evenodd;fill:#3476B9;}
	.st4{fill-rule:evenodd;clip-rule:evenodd;fill:#B75E4A;}
	.st5{fill-rule:evenodd;clip-rule:evenodd;fill:#5B8D4D;}
	.st6{fill-rule:evenodd;clip-rule:evenodd;fill:#3E474E;}
	.st7{fill-rule:evenodd;clip-rule:evenodd;fill:#7AB37D;}
	.st8{fill-rule:evenodd;clip-rule:evenodd;fill:#BDD89C;}
	.st9{fill-rule:evenodd;clip-rule:evenodd;fill:#F3D95A;}
	.st10{fill-rule:evenodd;clip-rule:evenodd;fill:#854D2D;}
	.st11{fill-rule:evenodd;clip-rule:evenodd;fill:#A2ADC4;}
	.st12{fill-rule:evenodd;clip-rule:evenodd;fill:#93B7DD;}
	.st13{fill-rule:evenodd;clip-rule:evenodd;fill:#D26D59;}
	.st14{fill-rule:evenodd;clip-rule:evenodd;fill:#F0D82E;}
	.st15{fill-rule:evenodd;clip-rule:evenodd;}
	.st16{fill-rule:evenodd;clip-rule:evenodd;fill:#FFFFFF;}
	.st17{fill-rule:evenodd;clip-rule:evenodd;fill:#D97C7F;}
	.st18{fill-rule:evenodd;clip-rule:evenodd;fill:#773535;}
	.st19{fill-rule:evenodd;clip-rule:evenodd;fill:#D08E88;}
	.st20{fill-rule:evenodd;clip-rule:evenodd;fill:#B46866;}
	.st21{fill-rule:evenodd;clip-rule:evenodd;fill:#532724;}
	.st22{fill-rule:evenodd;clip-rule:evenodd;fill:#B48D6F;}
	.st23{fill-rule:evenodd;clip-rule:evenodd;fill:#CDCBE4;}
	.st24{fill-rule:evenodd;clip-rule:evenodd;fill:#343D8D;}
	.st25{fill-rule:evenodd;clip-rule:evenodd;fill:#2E5D5C;}
	.st26{fill-rule:evenodd;clip-rule:evenodd;fill:#89A24B;}
	.st27{fill-rule:evenodd;clip-rule:evenodd;fill:#444145;}
	.st28{fill-rule:evenodd;clip-rule:evenodd;fill:#472523;}
	.st29{fill-rule:evenodd;clip-rule:evenodd;fill:#83817F;}
	.st30{fill-rule:evenodd;clip-rule:evenodd;fill:#6A718A;}
	.st31{fill-rule:evenodd;clip-rule:evenodd;fill:#B04D3A;}
	.st32{fill-rule:evenodd;clip-rule:evenodd;fill:#1F1F1F;}
	.st33{fill:none;stroke:#FFFFFF;stroke-width:1.6308;stroke-miterlimit:4.2614;}
	.st34{fill-rule:evenodd;clip-rule:evenodd;fill:#923546;}
	.st35{fill-rule:evenodd;clip-rule:evenodd;fill:#BFA869;}
	.st36{fill-rule:evenodd;clip-rule:evenodd;fill:#E6B335;}
	.st37{fill:none;stroke:#000000;stroke-width:1.6308;stroke-linecap:round;stroke-linejoin:round;stroke-miterlimit:4.2614;}
	.st38{fill-rule:evenodd;clip-rule:evenodd;fill:#E5BA97;}
	.st39{fill-rule:evenodd;clip-rule:evenodd;fill:#B77636;}
	.st40{fill-rule:evenodd;clip-rule:evenodd;fill:#D48D96;}
	.st41{fill:none;stroke:#000000;stroke-width:2.9339;stroke-linecap:round;stroke-linejoin:round;stroke-miterlimit:4.2614;}
	.st42{fill-rule:evenodd;clip-rule:evenodd;fill:#FDE62F;}
	.st43{fill-rule:evenodd;clip-rule:evenodd;fill:#CF4256;}
	.st44{fill-rule:evenodd;clip-rule:evenodd;fill:#925252;}
	.st45{fill:none;stroke:#000000;stroke-width:1.0666;stroke-linecap:round;stroke-linejoin:round;stroke-miterlimit:4.2614;}
	.st46{fill-rule:evenodd;clip-rule:evenodd;fill:#EDD1A2;}
	.st47{fill-rule:evenodd;clip-rule:evenodd;fill:#3D4F9E;}
	.st48{fill-rule:evenodd;clip-rule:evenodd;fill:#ACCCEC;}
	.st49{fill-rule:evenodd;clip-rule:evenodd;fill:#3C393F;}
	.st50{fill-rule:evenodd;clip-rule:evenodd;fill:#CA2E31;}
	.st51{fill-rule:evenodd;clip-rule:evenodd;fill:#EEC657;}
	.st52{fill-rule:evenodd;clip-rule:evenodd;fill:#F4F1A3;}
	.st53{fill-rule:evenodd;clip-rule:evenodd;fill:#3A938D;}
	.st54{fill:none;stroke:#FFFFFF;stroke-width:1.8428;stroke-miterlimit:4.2614;}
	.st55{fill-rule:evenodd;clip-rule:evenodd;fill:#252425;}
	.st56{fill-rule:evenodd;clip-rule:evenodd;fill:#3B4E9D;}
	.st57{fill-rule:evenodd;clip-rule:evenodd;fill:#A8484C;}
	.st58{fill-rule:evenodd;clip-rule:evenodd;fill:#D4707E;}
	.st59{fill-rule:evenodd;clip-rule:evenodd;fill:#EFF7FA;}
	.st60{fill-rule:evenodd;clip-rule:evenodd;fill:#394B5E;}
	.st61{fill-rule:evenodd;clip-rule:evenodd;fill:#9097CA;}
	.st62{fill-rule:evenodd;clip-rule:evenodd;fill:#E8D8E8;}
	.st63{fill-rule:evenodd;clip-rule:evenodd;fill:#89332C;}
	.st64{fill-rule:evenodd;clip-rule:evenodd;fill:#DDD3E7;}
	.st65{fill-rule:evenodd;clip-rule:evenodd;fill:#DD947F;}
	.st66{fill-rule:evenodd;clip-rule:evenodd;fill:#36407D;}
	.st67{fill-rule:evenodd;clip-rule:evenodd;fill:#BF9444;}
	.st68{fill-rule:evenodd;clip-rule:evenodd;fill:#6E7EBB;}
	.st69{fill-rule:evenodd;clip-rule:evenodd;fill:#486292;}
	.st70{fill-rule:evenodd;clip-rule:evenodd;fill:#A4CFEE;}
	.st71{fill-rule:evenodd;clip-rule:evenodd;fill:#3A383B;}
	.st72{fill-rule:evenodd;clip-rule:evenodd;fill:#E4DAE8;}
	.st73{fill-rule:evenodd;clip-rule:evenodd;fill:#71A14F;}
	.st74{fill-rule:evenodd;clip-rule:evenodd;fill:#2F5372;}
	.st75{fill-rule:evenodd;clip-rule:evenodd;fill:#846034;}
	.st76{fill:none;stroke:#000000;stroke-width:1.8428;stroke-linecap:round;stroke-linejoin:round;stroke-miterlimit:4.2614;}
	.st77{fill-rule:evenodd;clip-rule:evenodd;fill:#AFDAED;}
	.st78{fill:none;stroke:#000000;stroke-width:1.4107;stroke-linecap:round;stroke-linejoin:round;stroke-miterlimit:4.2614;}
</style>
<g>
	<g transform="matrix(1 0 0 1 45.9715 53.6299)">
		<g>
			<path class="st38" d="M245,536.1c0,0-8.9,15.9-7.9,16.6c1,0.7,13.9-14.8,10.9-9c-3,5.8-5.6,11.5-7.1,15c-1.6,3.4-4.4,10.9-4,12.3
				c0.4,1.3,3.4,13.8,3.4,13.8s-6.9-11.7-10.8-11.2c-4,0.5-5.7,6.1-7.5,11.9c-1.8,5.8-2.6,21.2-1.3,27.3c1.2,6.1,6,20.6,9.4,25.3
				c3.4,4.7,9.5,10.7,12.6,11.7c3.1,1.1,9.6,1.5,9.2-1.2l2.4,9.7c0,0,5,3.3,9.5,6.6c4.5,3.3,26.9,17.5,30.8,20
				c3.9,2.5,10.5,5.4,10.5,5.4s3.9-3.9,6.5-3.9s3.3-0.1,6.1,1.7c2.8,1.8,12.7,7.1,17.5,8.4c4.9,1.3,11.5,2.6,15.6,3.5
				c4.1,0.9,8.6,2.8,9.7,6c1.1,3.2,1.1,3.4,1.1,3.4l-0.4,5.7l5-1.1c0,0,2.4-17.8,9.2-16.4c6.8,1.4,12.3,3.1,18.2,0.8
				c5.8-2.3,21.3-11.3,21.3-11.3s6.7-3.6,8.5-3.2c1.8,0.4,3.4,1.1,3.4,1.1s12.6-5.6,17.1-8.9c4.5-3.4,14.5-13.2,16.6-19.7
				c2-6.4,4-13.7,4-13.7s4.1,1.9,7.1-0.1c3.1-1.9,11.6-8.8,17.5-21c5.9-12.2,11.1-25,11.4-34.8c0.3-9.9-5.6-16-6.3-16.7
				c-0.7-0.7-3.6-4.1-5.4-3.1c-1.8,1-8.3,5.8-9.4,7.8c-1.1,1.9-4.2,9.1-3.7,6.3c0.5-2.7,1.9-8.7,1.9-13c0-4.2-1.3-11.6-0.7-10.8
				c0.8,1,1.5,2.1,2.3,3.1l-1.4-8.3l-30-1.9c0,0-27.7-3.4-32.1-4.6s-12.8-3.6-14-3.5c-1.2,0.1-17.8,3.2-23,3.6
				c-5.2,0.4-17.2,2.1-24.8,2.1c-7.6,0-27.8-0.5-34.5-0.6c-6.7-0.1-28.2-2.7-34.2-3.6c-6-0.9-20.6-3.3-27-4.7
				C251.7,538,245,536.1,245,536.1L245,536.1z M188.9,643.3c0,0,3.7,0.9,5.8,1c2.1,0.1,14.5,0,18,0.8c3.5,0.8,9.6,2.8,9.6,2.8
				s3.6,5.1,3,9.2c-0.6,4.1-4.3,9.7-4.3,9.7l-4.9,0.5c0,0,6.6,3.8,7.7,7.6c1.1,3.8,1.7,8.9,1.3,12.3c-0.2,2.1-0.4,4.3-0.6,6.4
				l3.3,0.3c0,0,9.4,1.9,12,7.5c2.6,5.6,2.2,13.1,2.2,13.1l2.9-0.6c0,0,7.4,1.8,9.3,7.6s2,12.3,2,12.3l-10.8,2.9l-15.5,9.7
				c0,0-13.9,17.1-17.7,17.7c-3.8,0.6-11,1.7-13.6-2c-2.6-3.7,0.9-8.3,1.2-8.9c0.4-0.6,3.2-6.2,3.2-6.2s-7.2,6.8-11.4,7.7
				s-10.8,0.3-10.5-4.8c0.4-5,2.5-12.3,3.7-14.7c1.2-2.5,3.3-8.2,3.7-8.7c0.4-0.5,6.2-6.1,8.6-8.9c2.5-2.8,14.4-16.1,16-17
				c1.7-0.9,13.2-6.3,13.2-6.3s1.9-0.8-3.1-0.9c-5-0.1-7.1,0.1-12.3,2.5c-5.1,2.4-22.3,11.6-22.3,11.6s-0.9-0.7-2.7,1.4
				c-1.9,2.1-9.7,10.4-11.5,11c-1.8,0.6-10.1,4.1-13,3.4c-3-0.6-6.7-2.4-6.9-6.9c-0.2-4.5,1.7-6.7,3-8.2c1.3-1.5,9.7-11.3,11-13.4
				c1.3-2.1,7.6-10.7,9-11.5c1.4-0.8,16.6-9.1,16.6-9.1s12.2-5.9,10.3-6.1c-1.9-0.2-12.8-1.5-14-0.8c-1.2,0.7-15.2,7.2-19.5,8.1
				c-4.3,0.9-11.1,0.6-13.1-1.2c-2-1.9-6.1-5-2.5-8.9c3.6-3.9,2.9-3.9,4.9-5.1c2-1.2,18.8-11,18.8-11S187.7,643.2,188.9,643.3
				L188.9,643.3z"/>
			<path class="st6" d="M477.5,552.5l1.1,7.3l-1.9-2.1c0,0,0.5,7.1,0.4,11c-0.1,3.9-1.2,12.4-0.9,12.3c0.4-0.1,2.1-4.6,3.9-6.7
				c1.8-2.1,7.4-7.3,9.4-6.9c2,0.4,8.3,4.9,9.7,11.6c1.4,6.7,0.8,9.3,0.3,13.1c-0.5,3.9-1.6,10-2.9,13.3c-1.3,3.4-6.6,15-8.2,17.7
				c-1.6,2.7-4.8,7.8-4.8,7.8l12.3-4.2c0,0,8.6-2.4,13.9-3.8c5.3-1.4,10.6-2.4,9.6-2.8c-1-0.4-10.2-1.9-10.2-1.9s-13,0-11.5-1
				c1.6-1,15.5-5.6,17.8-6.3c2.3-0.6,13.8-3.9,17.4-4.6c3.5-0.7,14.3-2.6,13-3c-1.2-0.4-8.8-1.9-12.3-2.5c-3.4-0.5-13.9-1.3-12.3-2
				c1.6-0.7,12.1-5.2,18-7c5.9-1.8,24.8-8.3,29.7-9.7c4.9-1.4,23.1-6.3,25-6.3s3,0.2,2.6-0.4c-0.4-0.6-7.8-6.3-11.6-8.4
				c-3.9-2-11.7-6-15.3-7.7c-3.6-1.7-13.5-6.1-12.7-6.1s4.8-0.2,8.4,0.4s15.8,3.1,14.7,2.4c-1.1-0.7-13.5-8.4-16-8.4
				c-2.5,0-18.5,2.1-22.7,2.3c-4.1,0.2-19,0.9-24.7,1.2c-5.7,0.4-19.6,1.1-24.9,0.9C486.7,552.2,477.5,552.5,477.5,552.5
				L477.5,552.5z M445,550.4c3,1.1,14.2,5.6,17.4,7.6c3.2,1.9,6,4.2,5.9,5.1c-0.1,0.9-1.4,8.1-2,7.6c-0.6-0.5-7.5-5.9-13.6-8.4
				c-6.1-2.5-15.4-6.2-21.2-7.1c-5.7-1-13-2.4-19.5-2c-6.4,0.4-13.5,1.9-13.5,1.9s-13.3,13.8-16.6,17.2
				c-3.3,3.3-31.7,35.6-31.7,35.6s-0.6-13.9,0.9-24.8c1.5-10.8,5.4-35,5.4-35s17.7-1.3,23.5-2.2c5.8-0.9,22.7-3.3,22.7-3.3
				s2.4,1.1,7.6,2.3c5.2,1.1,14.7,3.2,20.8,3.9C437.2,549.5,445,550.4,445,550.4L445,550.4z M336.5,548.3l20-0.2l-0.9,5.4
				c0,0-9.8,11.6-14.4,17.5c-4.6,5.9-15.3,22-15,20.2s2.6-15.4,4.1-21.9C332,562.9,336.5,548.3,336.5,548.3L336.5,548.3z
				 M318.8,547.7c3.1,0,15.4,8.1,12.3,7.3c-3.1-0.8-15.4-4.9-21-5.6c-5.6-0.7-16.9-1.9-23.3-0.8c-6.3,1.1-17.5,3.4-24.2,7.1
				c-6.7,3.7-15.3,10.9-15.2,10.1c0.2-0.8,1.6-8.9,2.6-9.8c1-0.9,10.2-6.5,15.6-8.1c5.4-1.6,12.7-4.4,15.5-4.1
				c2.8,0.3,10,1.4,18.7,2.3C308.7,546.9,316.6,547.7,318.8,547.7L318.8,547.7z M245,536.1c0,0-3.3,5.6-4.9,8.5
				c-1.5,2.9-4,9.2-2.9,7.8c1.1-1.3,12.2-11.3,11-9.2c-1.1,2.1-6.8,14.7-8.5,18.3c-1.7,3.5-2.7,8.6-2.7,8.6s4.4,16.8,2.8,14.4
				c-1.6-2.4-6.4-11.5-10.3-10.5c-3.9,1-7.9,6.8-9.5,22.1c-1.6,15.3,1.7,23.6,3.3,28.7c1.6,5.1,6.7,14.3,6.7,14.3s-5.7-2.2-9.1-2.6
				c-3.3-0.4-19-3-18.5-3.4s10.9-6.8,10.5-7c-0.4-0.2-7.1-0.4-12,0.4c-4.9,0.8-28.8,5.5-29.1,5.6c-0.3,0.1,2.7-4.8,4.8-6.3
				c2-1.5,15.1-12.1,14.2-12.1c-0.9,0-7.7,0.4-12.9,1.6c-5.2,1.2-20.9,5.3-20.6,4.7c0.3-0.6,5.1-16,6.3-18.7
				c1.2-2.7,8.7-21,14.9-28.5c6.2-7.5,11.4-11.6,10.5-11.5c-0.9,0.2-9.3,1.9-15.5,5.1c-6.3,3.2-21.2,12-20.5,10.6
				c0.7-1.4,4.9-8.5,8.8-12.1c3.9-3.6,21.4-19.7,26.1-23.5c4.7-3.8,23.8-19,25.5-17.9c1.7,1.1,8.6,5.2,14,7.1
				C232.9,532.7,245,536.1,245,536.1L245,536.1z"/>
			<path class="st2" d="M190,539.2c0,0-19,8.8-19,9.5c0,0.7,0.2,3,0.2,3s-18.6,15.1-24.6,20.5c-6,5.5-14.4,13.8-17.8,18.3
				c-3.4,4.4-6.3,8.3-5.7,11.5c0.6,3.3,2.3,8.6,3.8,10.9c1.5,2.4,6.8,10.2,6.8,10.2s-8.6,7.8-10.2,11c-1.7,3.3-2.5,4.1-1.3,6.2
				c1.1,2,6.1,10.1,6.1,10.1s-9.2,13.1-12.8,18.5c-3.6,5.4-10.6,16-12.4,19.5c-1.9,3.4-10.6,22.7-7.6,18.1c3-4.6,8.2-12.6,13.6-14.2
				c5.4-1.6,9.9-3.4,14.7-2.6c4.9,0.9,13,1.9,19.5,1.9c6.4,0,16.7-1.2,20.9-2.2s10.6-3.1,10.6-3.1s0.9-1.9,3.4-3.5
				c2.5-1.6,10.8-6.7,14.4-8.3c3.5-1.6,13.9-6.3,12.5-6.4c-1.4-0.2-11.2-1.6-14.2-0.6s-14.4,6.3-16.8,7.1
				c-2.4,0.7-10.3,2.1-13.8,0.4c-3.5-1.8-6.3-2.7-6.1-7c0.2-4.2,5.4-7.1,7.9-8.5c2.6-1.4,25.6-16.3,26.5-16.4
				c0.9-0.1,10.1,1.5,12.5,1.3c2.5-0.2,13.5,0.4,16.5,1.4c3,1,28,9,28,9l8.8,3.4l-2.4-9.7c0,0-3.7,5.6-11.4,0.1
				c-7.7-5.6-10.4-9.6-10.4-9.6s-7.8-2.8-14.2-3.4c-6.3-0.6-14.5-1.7-12.9-2.8c1.7-1.1,11.6-6.8,9.7-7.1c-1.9-0.3-17.9,1.4-21.5,2.3
				c-3.6,0.9-19.2,4.4-19.3,4.1c-0.1-0.4,3.3-4.6,3.3-4.6s16.3-13.7,15.7-13.8c-0.6-0.1-7.3,0.4-14.1,1.9c-6.8,1.5-19,4.3-19,4.3
				s4.2-16.9,7.5-23.8c3.3-6.9,12.2-22.3,14.5-25c2.4-2.7,10.3-9.9,9.3-9.7c-1.1,0.2-13.6,3.4-20.1,7.1c-6.5,3.6-16.6,10.6-15.9,9.3
				c0.7-1.2,3.4-7.7,12.7-16.3S190,539.2,190,539.2L190,539.2z M440.6,678.4c0,0,6.7-1.5,13.1-4.8c6.4-3.3,24.7-13.8,30.8-17.3
				c6.1-3.4,7.3-3.9,7.3-3.9s-2.4,4-3.5,6.6c-1.1,2.6-5.6,12.9-6.3,16.7c-0.7,3.8-3,11.2-2.3,12.3c0.7,1.1,9.7,8.7,10.8,9.5
				c1.1,0.8,8.1,3.8,11.9,7.1c3.8,3.3,8.7,9.5,11,14.7c2.3,5.2,3.8,12,4.1,15.3c0,0,7.2-5.6,11.5-8.7c4.3-3.1,18.9-13.2,23.5-15.6
				c4.6-2.4,15.3-7.6,19.2-7.1c4,0.4,15.4,2.8,21.8,5.4c6.3,2.6,16.8,6.9,21.8,10.3c5,3.4,19.2,15,19.2,15l-7.2-22.7l-13-32.7
				l-14.6-36.4c0,0-4.9-8-6.3-9.3s-2.6-5.4-2.6-7.4c0-2,1.5-6.7-0.9-8.3c-2.4-1.6-7.2-3.1-7.2-3.1s1.9-5.3,2.2-8.9
				c0.4-3.6,1.5-17.4,1.5-17.4l-11.5-6.9l-22.1,6.9l-31.1,11.3c0,0,9.3,1.5,12.3,2c3,0.5,13.2,2.1,11.9,2.7
				c-1.3,0.6-17.7,4.4-17.7,4.4l-19.2,5.1c0,0-12.6,4.1-10.4,4.1c2.2-0.1,9.3,0.6,12.2,1c2.9,0.4,11,1.8,8.6,2.3
				c-2.4,0.5-11.2,2.7-14.3,3.6c-3.1,0.9-21.5,7.3-21.5,7.3s-4.2,4.9-4.9,5.6s-6.1,5.7-8.2,6.1c-2.1,0.4-6-0.4-6-0.4
				s-1.5,8.1-3.7,12.9c-2.2,4.8-6.1,10.8-9.4,13.8C447.8,672.8,440.6,678.4,440.6,678.4L440.6,678.4z"/>
			<path class="st2" d="M606.8,714.6c0,0,9.7,4.3,13.4,7.3c3.7,3,14.1,11.7,14.1,11.7s1.1,4.6,0.9,4.8c-0.3,0.2-6.9,6.3-10.4,8.5
				c-3.5,2.1-10.7,5-10.7,5l-3.6-20.4L606.8,714.6L606.8,714.6z"/>
			<path class="st7" d="M222.6,647.8c0,0,30.4,9.1,32.6,10.6c2.1,1.5,32.3,22,32.3,22s17.8,10.2,19.9,10.9c2.1,0.7,3.4,0.9,3.4,0.9
				s7.5,8.3,8.7,14.5c1.2,6.1,0.4,16.3,0.4,16.3l-33.5,5.2l-30.2,5.6c0,0-0.1-8.4-2-12.3c-1.9-3.9-3-6.1-9.9-7.8
				c-0.5-0.1-2.2,0.8-2.2,0.8s0.6-9.3-1.5-12c-2.1-2.7-5.5-7.3-11.9-8.3c-2.4-0.4-4.3-0.9-4.3-0.9s2.1-8.8,1.1-13
				c-1.1-4.2-3.2-10.2-8.9-12.5c0.5-0.8,5.1-0.9,5.1-0.9s3.1-2.9,4-8C226.2,653.7,222.6,647.8,222.6,647.8L222.6,647.8z
				 M429.7,686.4c0,0,11.2-4.4,20.9-5.5c9.7-1.1,18.3-1.6,21.2,0.3c2.8,1.9,9,7.8,11.6,10.1c2.6,2.3,6.2,5.2,8.6,6.6
				s9.1,5.4,12.4,8.6c3.4,3.3,9.3,10.8,11.2,19.7c1.9,8.9,1.6,24.3,1.6,24.3s-14.6-2.6-16.4-3.2c-1.9-0.5-6.3-1.9-6.3-1.9l-9.3,5.6
				c0,0-7.4,4.7-8.9,4.7c-1.5,0-8.4-3-8.4-3s-3.4,3.5-4.2,3.4c-0.9-0.2-1.9-1.3-1.9-1.3s1.1-12.2,0.2-19.1c-0.9-7-3.5-20.7-7-26.4
				c-3.4-5.7-9.6-13.6-14.8-16.8C435,689.2,429.7,686.4,429.7,686.4z"/>
			<path class="st8" d="M305,690c0,0,4-3.6,6.8-3.6c2.8,0,6.8,2.7,9.2,3.9s11.5,5.3,16.5,6.7c4.9,1.4,11.4,2.7,13.9,3.1
				c2.5,0.4,7.3,2.5,8.5,4.7c1.2,2.2,2,10.5,2,10.5s-12.8,2.7-16.2,3.3c-3.4,0.6-16,3.1-16,3.1l-9.6,1.2c0,0,1.9-5.5-0.2-13.9
				c-2.1-8.3-7.2-16.5-8.9-16.6C309,692.1,305,690,305,690L305,690z M366.4,713.8c0,0,1.4-8,3.1-11.1c1.6-3.1,4.1-5.4,5.5-5.4
				s8,2.5,11.8,2.3c3.8-0.1,12.7-3.3,16.8-6c4.1-2.7,17.5-10.5,20.2-9.8c2.7,0.7,14.2,5.8,20.2,11.3c6,5.5,13.4,15.4,15.5,26.2
				c2.1,10.8,3.6,22.5,2.9,28.3c-0.7,5.9-2.5,12.2-4.5,13.2c-2,0.9-11.9,2.3-14.2,3.4c-2.4,1.1-34.1,20.9-34.1,20.9l-8.9-3.5
				l4.2-2.4c0,0-5.5-29-9.3-38.7s-10.1-22.1-11.8-24s-6.8-7.5-6.8-7.5L366.4,713.8L366.4,713.8z"/>
			<path class="st38" d="M130,690.9c0,0-2.9,18.6-3.3,24.5c-0.4,5.9-2.8,28.3-3.1,36.1c-0.3,7.8-1.1,26.4-0.4,34.7
				c0.7,8.3,1.8,12.8,2.6,14.9c0.8,2.1,3.6,15.1,4,15.8s5,8.3,12.3,9.9c7.2,1.6,35.9,3.7,44.1,4c8.2,0.3,32.6-0.4,40.4-1
				c7.8-0.6,30.5-3,36.6-4.2c6.1-1.2,30.2-5.7,54.4-12.7c24.2-7,40.2-12.8,40.2-12.8l21.2-7.8l26.4-10.8c0,0-5.2-24.9-7.5-31.6
				c-2.3-6.7-7.6-21.2-11.3-26.9c-3.7-5.6-9.6-11.8-9.6-11.8s-18.3,5.1-24.2,6.1c-6,1-20.9,4.1-26.6,4.9c-5.7,0.8-26.3,3.5-35.7,5.1
				c-9.4,1.6-34.3,6.3-34.3,6.3s-8.7,2.2-11,3.3c-2.3,1.1-13.1,8-14.8,9.6c-1.7,1.6-7.8,9.3-10.8,11.5c-2.9,2.2-6,6.5-8.6,6.6
				c-2.6,0.1-10.8,1.7-12.3-2.1c-1.5-3.8,0.5-8.2,1.4-9.9c0.9-1.7,2.8-5.4,2.8-5.4s-5.4,4.7-7.1,5.6c-1.7,0.9-6.3,3.3-8.3,2.7
				s-5.9-3.3-6.1-4.4s0-6.2,0.7-8.7c0.7-2.6,5.6-13,5.6-13l0.9-2.8c0,0,7.4-6.8,10.6-11.1c3.2-4.3,11.8-13,14.9-15.2
				s14.1-6.9,14.1-6.9l-11.9,0.2l-17.3,8.4l-11.4,5.6c0,0-7.3,7.9-10.1,10c-2.7,2-10.2,5.6-13,5.7c-2.7,0.1-7.3-0.2-8.9-3.6
				c-1.6-3.4-0.4-8.8,1.5-10.9c1.9-2.1,17.2-21.7,17.2-21.7s-12.1,3.4-17.4,3.7c-5.3,0.3-8.8,0.8-14.9,0.8
				C135.9,691.5,130,690.9,130,690.9L130,690.9z"/>
			<path class="st38" d="M363.4,798.1c0,0,27.2,10.1,31.7,11.6c4.4,1.5,29.3,10,37.2,12.5s43.2,12.8,52.6,15.3
				c9.4,2.5,41.8,9.5,47.3,10.3c5.5,0.8,25.2,3.6,34.9,3.3s25-3.5,30.9-5.7c5.8-2.2,14-6.9,15.3-9c1.2-2.1,3.3-10.2,3.8-15.3
				c0.5-5.1,1.3-22.5,1.1-28.7c-0.3-6.2-1.2-21.4-2.2-28.3c-1-6.9-3.1-22-4.4-28.5c-1.3-6.5-4.6-21-4.6-21s-24.3-12.2-33.5-11.1
				c-9.2,1.1-12.5,1.9-24.7,9.6s-31.1,21.7-31.1,21.7l-0.2,8.1l-0.4,7.3c0,0-11.3-1.5-14.8-2.4c-3.5-0.9-7.7-2-7.7-2l-16.2,9.4
				c0,0-3.6,1-5.2,0.2c-1.6-0.8-4.6-3.4-5.5-2.6c-0.9,0.8-3.5,4.1-4.3,3.7c-0.8-0.4-1.4-1.2-1.4-1.2s-0.9,6.7-4.1,7.8
				s-12.3,2.4-15.2,3.9c-2.9,1.5-32.9,20.2-32.9,20.2l-8.7-3.9L363.4,798.1L363.4,798.1z"/>
			<path class="st2" d="M393.7,483.4l4.1,59.9c0,0,27.6-6,32.7-7.5c5.1-1.5,29.3-9.3,34.9-11.9c5.6-2.6,28.9-13.6,30-19.1
				c1.1-5.6,1.9-13.5,1.8-17.5c-0.1-4-0.4-24.4-1.7-23.1c-1.3,1.3-14,14.9-22.6,21.3c-8.6,6.4-24.7,18.3-30.6,20.6
				c-5.9,2.3-11.6,2.7-13.1-0.6c-1.5-3.4-3-9.3-3-9.3s-10.7-6.3-16.6-8.3C403.7,485.9,393.7,483.4,393.7,483.4L393.7,483.4z"/>
			<path class="st4" d="M402.7,542.6c0,0,18.5,5.6,32.4,6.8c13.8,1.2,30.9,2.9,42.9,3c12,0.1,38.8-0.4,48.1-1.1
				c9.3-0.7,29.8-2.4,36.6-3.3c6.8-0.9,30-3.8,36.2-5.2c6.3-1.4,10.3-2.3,10.8-2.9c0.4-0.6,2.4-3.8,2.5-6c0.1-2.2-0.8-5.4-2.3-6.3
				c-1.5-0.9-25.7-7.8-25.7-7.8l-40.5-11.4l-16.9-4c0,0-16.8-3.9-20.1-4.6c-3.4-0.7-9.7-1.4-9.7-1.4s-0.7,5.6-1.8,6.8
				c-1.1,1.1-10.3,9.7-19.6,14c-9.3,4.3-19.4,8.6-24.6,10.2c-5.2,1.7-19.9,6.3-26.4,7.8C418.2,538.8,402.7,542.6,402.7,542.6
				L402.7,542.6z M397.8,543.3l-4.1-59.9c0,0-17.1-3.2-25.8-2.9c-8.7,0.3-18.9-0.3-29.6,1.8c-10.8,2-19,3.4-24.6,5.1
				c-5.6,1.7-15.9,5.6-15.9,5.6s0.4,5.5-0.6,7.1c-1,1.7-2,8.8-7.5,8.6c-5.5-0.2-14.7-4.3-19.7-8c-5-3.7-23.4-18.4-23.4-18.4
				L216,453.1c0,0-2.6,4.3-3.3,8.8c-0.8,4.5-2.2,31.7-2.2,31.7l23.2,12.3l-0.1,13.5v13.2l22.1,6.3c0,0,30.6,5.8,38.1,6.6
				c7.5,0.8,36.8,2.8,44.3,2.8c7.5,0,33-0.9,35.6-1.3C376.3,546.6,397.8,543.3,397.8,543.3L397.8,543.3z"/>
			<path class="st14" d="M173.4,185.8c0,0,29.8,1.9,35.3,1.9c5.5,0.1,37.6-1.1,42.2-1.9c4.7-0.8,7.7-0.9,7.7-0.9s-2.6,11.1-2.8,14.3
				s-1.1,9.5-1.6,11c-0.5,1.5-4.7,14-5.9,17.7c-1.2,3.7-4.1,12.3-4.4,14.2c-0.3,1.9-0.7,5.9-0.7,5.9s-2.6-2.5-3.5-3.9
				c-1-1.4-5.5-9.4-6.4-9.2s-3.6,6.5-3.6,6.5s-8.6-8.5-9.8-7.9c-1.1,0.5-1.7,6.5-1.7,6.5s-5.9-3.7-7.7-1.9c-1.8,1.9-1.1,7.1-1.1,7.1
				s-6.3-2.1-7.6-0.4c-1.2,1.7,1,8.6,1,8.6s-6.6,0.6-6.9,2.4c-0.3,1.8,2.6,3.4,3.1,4c0.4,0.6,0.9,3.2,0.7,4.6
				c-0.2,1.4,1.4,12.2,4.5,20.1c3.1,7.9,9.1,22.7,12.2,28.7c3.1,5.9,11.6,21.2,16.3,28.7c4.8,7.4,8.6,13,8.6,13s-2.6,9.7-4.2,15.4
				c-1.6,5.7-4.1,16.2-5.3,22c-1.2,5.7-3.7,19.6-4.1,24.3c-0.4,4.8-0.5,8.6-0.5,8.6s-6.8-3.3-7.8-1.7c-1,1.6,3.5,9.6,3.5,9.6
				s-8.2-7.3-11.3-3.7c-3.1,3.6,4.1,12.3,4.1,12.3s-5.2-3.9-6.3-1.9c-1.1,2,3.5,8.6,3.5,8.6s15.4,16.4,18.9,19.8
				c3.4,3.4,24.2,21.6,30.2,26s15.1,11.2,19.6,12.7c4.5,1.5,11.4,2.2,13.7-1.6c2.3-3.8,3.3-12.9,3.3-12.9s7.7-3.5,14.2-5.2
				c6.5-1.7,25.4-5.6,32.7-6.3c7.3-0.6,26.7-1.7,34.6-0.4c7.8,1.3,18.8,3.1,26.8,6.2c8,3.1,14.9,5.8,16.9,7.3c2,1.5,3.1,2.4,3.1,2.4
				s0.5,5.6,1.8,7.2c1.2,1.6,3.6,6.1,10.8,3.4c7.2-2.7,22.6-13.8,28.1-17.6c5.6-3.8,15.3-12.5,18-15c2.7-2.5,11.1-12.9,14.5-16.3
				c3.4-3.4,11.7-16,12.8-18c1.1-2,2.6-4.4,1.9-5.6c-0.7-1.1-11.3,3.6-11.3,3.6s5.4-9.9,4.1-11.5c-1.3-1.7-10.1,2.2-10.1,2.2
				s3.9-6.5,2.6-8.7s-6.1,2.4-6.1,2.4s-0.7-8.6-1.9-11.2c-1.1-2.6-5.7-15.6-8.2-21.6c-2.5-6-7.8-20.8-9.2-26.3
				c-1.3-5.5-7.6-36.1-8.4-41.3c-0.8-5.2-6.3-31.7-6.3-31.7s5.8-7.5,8.3-12.4c2.5-4.9,5.7-13.7,5.9-21.3s-1.4-21.9-3-26.3
				c-1.6-4.4-2.6-8.5-3.2-11c-0.6-2.6-2.4-16.8-3.3-21.5c-0.9-4.8-2.1-13-3.2-15.7c-1.1-2.7-2.2-7.1-2.2-7.1s15.5-8.9,21.2-12.5
				c5.7-3.6,33.7-23.2,37.7-26.4c4.1-3.2,4.9-3.3,6.9-5.7s8-13,10.9-20.3c2.9-7.3,5.6-16.4,6.6-21.7c1-5.3,0.9-13,0.5-14.3
				c-0.4-1.2-0.6-1.9-0.6-1.9s-19.2,5.4-25.4,7.8c-6.2,2.5-28,10.7-38.5,16c-10.5,5.3-28,14.6-34.7,19.7c-6.7,5-19.2,15.1-19.2,15.1
				s-12.5-5.2-20.3-6.8c-7.8-1.6-18.7-3.8-29.7-4.4c-11-0.6-28.4-1.1-42.1,1.1c-13.7,2.2-27.5,6.9-33.8,9.4c-6.3,2.6-9,4.2-9,4.2
				s-21.2-1.9-30.6-2.2c-9.3-0.3-34.8,0.3-46.2,1.6c-11.4,1.3-29.4,3.9-35.9,5c-6.4,1.1-46.4,10.8-46.3,11.6
				c0.1,0.9,8.5,11.2,18.7,19S173.4,185.8,173.4,185.8L173.4,185.8z"/>
			<path class="st14" d="M229.2,403.9l-1.6,11.2l-37.7-17.9l31.8-46.3l-58-12.5l27.2-49.8l-44.8-7.8l21-55.8c0,0-5.6-2.8-13.6-4.5
				c-8-1.7-45.8-8.7-45.8-8.7s-13-2.7-19.7-3.8c-6.8-1.1-17.7-2.4-18.2-3.1c-0.4-0.7-2.6-9.4-3.1-14.2c-0.5-4.8-2.7-21.3-3.3-27.2
				c-0.5-5.8-3.5-38.1-3.5-38.1l-4-48.5c0,0-0.7-11-0.1-11.1s5.5,0.9,9.3,2.5s30.2,13.5,30.2,13.5l38.9,20l37.2,20l25.2,14.6
				c0,0-31.3,4.9-36.9,6.3c-5.6,1.4-24.7,6.4-33.2,9.6s-26.1,10.7-29.5,13c-3.4,2.4-3.8,3-1.4,3.8c2.4,0.8,28.3,8.1,28.3,8.1
				s18.2,3.9,25,5.1c6.8,1.2,21.8,3.5,25.7,3.6c3.9,0.1,22,1.3,30.4,1.5c8.4,0.2,23,0.2,23,0.2s-7,11.6-10.3,18
				c-3.3,6.3-26.8,56.1-26.8,56.1l8.6,1.8c0,0,0.2,10,2.1,15c1.9,5,6.1,16.8,8.2,21.3c2.1,4.6,5.4,11.7,5.4,11.7l-8.6,15.3l18.7,3.4
				c0,0,5.7,9.6,8.1,13.4c2.4,3.8,7.6,10.8,7.6,10.8l-2.8,9.5c0,0-1.9,2-4.7,6.1c-2.8,4.1-14.9,23.4-14.9,23.4L229.2,403.9
				L229.2,403.9z"/>
			<path class="st15" d="M425.2,193.3c6.9-0.7,17.6,6.2,17.9,18.5c0.3,12.3-6.5,18.8-18.3,18.9c-11.7,0.1-16.6-10.8-16.7-18
				C408.1,205.5,413.7,194.6,425.2,193.3L425.2,193.3z M299,191.6c9.3-0.4,17,9.7,17.6,17.3c0.6,7.6-2.7,19.2-17.1,20.4
				c-14.4,1.1-19.1-8.7-19.2-16.8C280.2,204.4,284.4,192.3,299,191.6z"/>
			<path class="st16" d="M298.1,193.3c6.3,0.2,7.8,4.6,7.9,7.9c0.1,3.4-2.8,7.4-8,7.1c-5.2-0.3-7.7-4.3-7.7-7.5
				C290.4,197.7,292.9,193.1,298.1,193.3L298.1,193.3z M421,195.3c4.9-0.4,9.1,2.7,8.9,8.1c-0.2,5.4-3.5,6.6-7.2,6.7
				c-3.7,0.1-7.3-3-7.4-6.8C415.2,199.5,417.1,195.6,421,195.3z"/>
			<path class="st17" d="M245.3,250.5c0,0-0.6-8.3,0.9-10.3c1.5-2,7.1-6.6,14.7-5.5c7.6,1.1,18.6,5.6,21.6,16.8
				c3.1,11.2,1.2,17.4-2.4,21.4c-3.5,4-10,10.2-10,10.2s-5.8-8.6-9.9-13.8c-4.1-5.2-11.1-14.2-11.1-14.2L245.3,250.5L245.3,250.5z
				 M472.7,239.5c0,0-4.2-5.3-11.8-5.2c-7.6,0.1-17.1,2.1-22.3,11.7c-5.2,9.6-3.1,23,2.6,28.6c5.6,5.6,13.8,8.8,20.7,7.2
				c7-1.6,5.5-1.9,5.5-1.9s4.8-10.2,5.7-16.1C474,257.9,473.9,244.1,472.7,239.5L472.7,239.5z"/>
			<path class="st19" d="M341.5,274c0,0,6.6-6.7,19-6.8c12.4-0.1,19.1,7.2,19.1,7.2s-6.2,16.9-9.2,21.4c-3,4.5-4.5,7.8-7.2,7.4
				c-2.7-0.4-10.3-3.3-15.3-13.3C343.1,279.9,341.5,274,341.5,274z"/>
			<path class="st18" d="M338,262.7c0,0,5.7,0.4,9.2-0.8c3.4-1.2,8.2-3.6,9.5-4.5c1.3-0.9,4.2-3.4,4.2-3.4s3,2.9,5.1,4.2
				c2.1,1.3,7.8,3.7,10.8,3.8c3,0.1,7.1-1.2,7.1-1.2l-4.1,12.9c0,0-9.7-6.9-19-6.8c-11.5,0.1-19.5,7.1-19.5,7.1L338,262.7L338,262.7
				z"/>
			<path class="st15" d="M130.4,151.3c0,0-14.4,4.4-19.5,7c-5.1,2.6-18.2,9.5-16.7,10c1.5,0.4,21,6.7,27.1,8.2
				c6.1,1.5,21.8,4.9,26.9,5.8c5.1,0.9,26.6,4.2,24.6,3.2c-2-1.1-18-10.4-24.5-15.9C141.8,164,130.5,152.7,130.4,151.3L130.4,151.3z
				 M542.2,73c0,0,21.2-5.9,28.1-7c6.9-1.1,23.1-4.6,22.2-3c-0.9,1.6-14.1,19.4-19.7,24.6c-5.6,5.2-20.1,19.9-26.1,25
				c-6,5-22.5,19.1-21.4,17.6c1.1-1.5,10.3-15.3,13.1-26.1c2.8-10.8,5.4-22.8,4.8-26C542.8,74.9,542.2,73,542.2,73z M353.7,232
				c0,0,19-1.2,16.8,0.9c-2.2,2.1-7.8,5.6-7.8,5.6L353.7,232z"/>
			<path class="st5" d="M487.5,473.2l-9.5,8.3l-6,4.9c0,0-7.8,9.4-5.4,8.6c2.4-0.8,30.4-10.8,30.4-10.8l0.3-5.4
				c0,0-16.5,5.6-16.1,4.7C481.5,482.7,487.5,473.2,487.5,473.2L487.5,473.2z"/>
			<path class="st23" d="M195.6,627.4c0,0-1.2,7.8,0,9.8c1.2,2,5.3,7.4,5.3,7.4s8.5-0.5,11.4,0.2s20,5.3,24.6,7.2
				c4.6,1.9,17.4,6.3,17.4,6.3l-2.4-10c0,0-1.8,4.6-6.7,2.4c-4.9-2.2-9.8-5.6-12.1-8.5c-2.4-2.8-2.5-3.1-2.5-3.1s-5.4-1.8-8.9-2.5
				c-3.5-0.7-19.5-2.9-19-3.3c0.5-0.4,11.8-7.5,10.7-7.5c-1.1,0-6.2-0.2-8.8,0.1C201.9,626.3,195.6,627.4,195.6,627.4L195.6,627.4z
				 M491.4,652.6c0,0,7.6-4.8,12.3-6.3c4.7-1.5,24.7-6.1,24.7-6.1s-22.9,4.4-34.8,21.7c-5.3,7.8-2.5,12.6,3.6,19.1
				c20.7,22.2,21.8,37.1,21.8,37.1L523,705l-5.9,28.8c0,0-1.6-14.1-6.8-20.4c-5.2-6.3-9-10.4-12.5-12.3c-3.5-1.9-6.8-3-8.8-5
				c-2-2-10-8.8-10-8.8s1.4-10,4.1-15.7C485.7,665.9,491.4,652.6,491.4,652.6L491.4,652.6z"/>
			<path class="st23" d="M505.1,624.1c-12.9,8.3-4.9,20.5-12.6,27.7c-2.1,1.9-10.7,6.5-12.4,7.3c-1.8,0.8-17.8,10.1-22.8,12.6
				c-5,2.6-14.5,6.5-14.5,6.5l-1.3-0.7c0,0,7.9-4.8,13.1-12.2s8.2-14.5,8.6-16.7c0.4-2.2,1.2-5.7,1.2-5.7s1.5,1.5,4.9,0.3
				c3.4-1.2,7.5-3.9,9.5-6.3c2-2.4,4.3-5.6,4.3-5.6L505.1,624.1L505.1,624.1z M606.7,714.6c0,0,9.5,4.8,15,8.8c5.5,4,11.3,9.1,12,10
				c0.7,0.9,1.6,5.3,1.6,5.3l-9.4,7.4c0,0-10.3-8.9-14.5-9.2C609.9,730.6,606.7,714.6,606.7,714.6L606.7,714.6z M129.7,691
				l-5.9,51.5c0,0-5.3-6.1-8.9-9.4c-3.6-3.3-12.6-11.9-15.4-14.3c-2.8-2.5-6.2-6.6-6-7.8s4.7-9.1,7.3-12.1c2.6-3.1,8.3-7.6,13.6-8.6
				C119.7,689.3,129.7,691,129.7,691z M430.7,506.9c-0.6,9.8,17.8,1.4,19.5,0.7c1.8-0.7,7.2,15.6,9.9,18.7c1.9-0.9,16.5-7.5,21-10.2
				c4.6-2.7,14.2-9.5,14.7-11.6c0.5-2.1,0.9-5.4,1.3-10.1c0.4-4.7-0.1-14.3-0.4-19.2c-0.2-4.8-0.2-12.1-1.3-10.8
				c-1.1,1.3-11.1,11.8-16.2,15.9c-5.2,4.1-13.4,11.3-20.5,16c-7.1,4.7-15.9,10.3-18.7,10.9C437.3,507.7,433.4,509.2,430.7,506.9
				L430.7,506.9z M412.2,489.1c0,0,13.4,6.7,13.9,7.2c0.5,0.5,2.4,7.8,2.4,7.8S419.4,492.2,412.2,489.1z"/>
			<path class="st23" d="M393.8,483.4v3.3c0,0,11.9,0.2,17.5,2.5C416.9,491.4,399.9,483.5,393.8,483.4L393.8,483.4z"/>
			<path class="st34" d="M461.6,525.6l88.3-15c0,0-19-4.8-24.7-6.3c0,0-10.4-2.7-15.7-3.9c-5.3-1.2-12.8-2.1-12.8-2.1
				s0.2,4.9-1.6,6.8c-1.9,1.9-6.5,6.7-15.4,11.8C470.8,521.9,461.6,525.6,461.6,525.6z M297.7,492.9c0,0,17.4-6.2,24.1-7.5
				c6.7-1.3,24.7-5.2,33.5-5c8.8,0.2,20.3,0,26.2,0.9c5.9,0.9,12.3,2.3,12.3,2.3l0.3,3.2c0,0-53.9-10.8-97,13.7
				C297.8,495.8,297.7,492.9,297.7,492.9L297.7,492.9z"/>
			<path class="st5" d="M486.2,474.2c0,0-6.2,5.6-8.9,7.5c-2.7,1.9-6.3,4.8-7.1,6.3c-0.9,1.5-5.9,8-3.6,7.1
				c2.3-0.9,11.9-4.3,17.4-6.3c5.5-1.9,13.1-4.4,13.1-4.4l-0.2-5.6c0,0-15.8,5.6-15.6,4.8C481.4,482.8,486.2,475.3,486.2,474.2
				L486.2,474.2z"/>
			<path class="st22" d="M308.6,549.1c0,0,9.1,13,12.2,13.4c3.2,0.4,12.7-5.6,12.7-5.6s-7.6-3.8-11.6-4.6
				C317.9,551.4,308.6,549.1,308.6,549.1z M321.2,548l15.4,0.4l-3.2,8.1c0,0-3.3-3.3-6.5-4.9C323.8,549.9,321.2,548,321.2,548z
				 M355.4,553.9c0,0-6.3,6.8-10,11.4c-3.6,4.6-13.2,18.3-13.2,18.3l21.6-19L355.4,553.9L355.4,553.9z M402.6,554.4
				c0,0,9.1,0.4,7.3,2.1c-1.8,1.7-13.8,14.1-15.2,13.6s-7.5-2.6-6.5-3.9c1-1.2,9.3-10.7,10.7-11.2
				C400.3,554.5,402.6,554.4,402.6,554.4L402.6,554.4z M448.2,550.8c0,0,12.7,1.2,16.6,1.1c3.9-0.1,12.9,0.4,12.9,0.4l1.4,8.4
				l-2.6-3.8l0.8,7.6l-9.2,0.4c0,0,1.1-1.7-0.4-3.2c-1.5-1.5-6.1-4.7-9.3-6C455.2,554.4,448.2,550.8,448.2,550.8L448.2,550.8z
				 M355.2,636c0,0,10,9.2,9,10.6c-1.1,1.4-9,9.6-9,8.5V636z M241.5,590.5c0,0-6.5-10.2-10.9-9.3S220,590,219.8,597
				s0.4,15.9,1.8,20.8c1.4,4.9,3.2,12.2,6.9,17.6c3.7,5.5,9,12,13.2,13.9c4.2,1.9,10.1,2.3,9.9-0.7c-0.2-3-1.8-12.2-2.8-17.1
				c-1.1-4.9-4.4-24-5.1-28.7C242.9,598.1,241.5,590.5,241.5,590.5L241.5,590.5z"/>
			<path class="st22" d="M250,639.2c8.9,18.8,22.3,27.6,31.4,37.7c-6.1-4.1-16.1-11.4-16.1-11.4l-8.1-5.6l-2.9-1.6
				C254.2,658.3,249.1,637.4,250,639.2z M473.2,592c0,0,18.2-18,20.3-14.8c2.1,3.2,7.1,10,6.6,13c-0.5,3.1-3.2,16.3-6.9,23.5
				c-3.8,7.2-10.6,21-16,24.9c-5.4,3.9-7.4,5.6-10.1,4.9c-2.7-0.6-3.1-0.6-3.1-0.6s-0.8,10.8-6.5,18.2c-5.6,7.4-9.4,12.7-15.4,16.1
				c-6,3.4-15.6,7.8-15.6,7.8s-2.2-2.2-5.9-0.7c-3.6,1.5-8.8,4.7-12.6,6.7c-3.8,2-11.9,6.3-13.9,7.1c-2,0.7-4.2,1.4-6.7,1.3
				c-2.5-0.1-6.2,0-5.2-0.5c25.3-8.5,53.5-25.1,66.5-38.9C461.9,646.2,462.1,599.2,473.2,592z M360.4,706.5l8.4-1.9l-2.3,6.4v3.1
				l-5.1,1.3l0.4-6.1L360.4,706.5z M154.3,670.6c0,0,11.8,3.4,20.2-1.8c14.2-8.7,17.2-6.9,32.4-5.4c6.3,0.6,16.3,0,16.3,0l-2,3.4
				l-16.7,1.4l-13.6-1.2l-9.9,4.9l-11.4,4.1l-8.2-0.2C161.5,675.9,154.9,673.1,154.3,670.6L154.3,670.6z M155.1,718.4
				c0,0,8.1,4.4,17.2-3.3c9.5-8.1,11.4-13.8,14.9-15.4c8.8-4,28.3-12.7,31.5-12.9c3.3-0.2,6.5-0.2,6.5-0.2l-0.8,6.5
				c0,0-5.8-0.4-8.6,0.7c-2.8,1.1-9.1,4.1-12.6,6.1c-3.5,2-14.8,6.6-16.5,8.1c-1.6,1.5-10.7,11.9-13.8,12.8
				c-3.1,0.9-9.3,3.8-12.6,2.6C157.1,722.1,155.1,718.4,155.1,718.4L155.1,718.4z M186.7,755.5c0,0,9.6-2.9,12.8-11.8
				c3.2-8.8,4.1-11.2,6.8-13.9c2.7-2.7,7.4-3.4,11-6.9c3.6-3.5,2.8-10.2,8.9-11.5c6.9-1.5,15.5-3.6,15.5-3.6l0.2,6.5
				c0,0-12,3.6-13.8,4.9c-1.8,1.3-18.7,17-19.7,18.6c-1.1,1.5-4.9,8.8-4.9,8.8s-6.6,5.8-9.5,7.1
				C191.2,754.9,186.7,755.5,186.7,755.5L186.7,755.5z M198.6,762.1c0,0,6.2,2.9,14.3-4.3c8.1-7.3,10.2-17.9,15.8-21.2
				c6.3-3.8,19.9-4.1,26.8-8.6c0.1,2.8,0.2,6.1,0.2,6.1s-7.5,0.9-9.8,2.1c-2.2,1.2-13.5,7.9-15.5,9.9c-2,2-10.5,12.9-13.8,15
				c-3.3,2.1-8.9,4.7-11.5,4.2C202.6,764.9,198.6,762.1,198.6,762.1L198.6,762.1z"/>
			<path class="st22" d="M195.8,703.9l16.3-2.2c0,0,1.7-1.9,3.5-2.7c1.9-0.9,12.5-5.7,12.5-5.7s-8.6-0.9-11.3,0
				C214.1,694.1,195.8,703.9,195.8,703.9L195.8,703.9z M129.7,691c0,0-3.1,21.2-2.6,20.5c0.5-0.7,12.6-13.5,15.9-14
				c3.3-0.5,24.1-0.9,24.1-0.9l7.1-9.5c0,0-8.3,2.6-14.6,3.3c-6.2,0.7-12.6,1.3-17.8,1.2C136.7,691.3,129.7,691,129.7,691L129.7,691
				z M133.6,821.3c0,0,21.2-33.9,47.5-36.7c26.3-2.8,143.4-11.8,165.5-18.3c22.1-6.6,49.8-19.3,49.8-19.3s3.9,10.9,4.6,14.5
				c0.7,3.6,4.2,20,4.2,20L376,793.4l-45,15.3L285.4,821c0,0-39.6,7.3-46.9,7.8c-7.3,0.5-38.3,1.9-47,1.8c-8.7-0.2-33.4-1.6-38.2-2
				c-4.8-0.4-12.7-2.4-14.8-3.4C136.4,824.1,133.6,821.3,133.6,821.3L133.6,821.3z"/>
			<path class="st22" d="M489.1,748.7c0,0,0.7,5.6,6.7,5.6c10.2,0,24.7,5.5,34.6,9.5c49.7,20.5,60.7,7.4,71.2,20.1
				c6.3,7.6,17.3,38.4,14.5,44.1c0,0-0.6,9.5-8,12.6c-7.4,3.1-14.6,5.9-20.4,7.5c-5.8,1.6-14.6,3.3-21.4,3.2
				c-6.8-0.1-27.2-1.9-33.7-3.3c-6.4-1.3-34.9-7-42.8-9.1c-7.8-2.1-29-8.4-36.9-10.6c-7.9-2.2-31.7-9.5-41-12.7
				c-9.3-3.2-26.3-9.1-34-11.9c-7.8-2.8-14.4-5.7-14.4-5.7l21.2-7.9l16.4-6.7l8.6,3.9c0,0,31.2-19.9,33.1-20.5
				c1.8-0.5,13.6-3.2,13.6-3.2s3.5-1.8,4.1-3.4c0.5-1.6,1.5-5.4,1.5-5.4s1.4,1.2,2.1,1.2s3.4-3.5,4.1-3.4c0.8,0.1,4.8,2.8,7.3,2.7
				C478,755.4,489.1,748.7,489.1,748.7L489.1,748.7z M538.5,752.9c0,0-10.8-8.1-9.3-10.9c1.4-2.8,30-20.8,38.3-18.9
				c8.3,1.9,43.7,14.3,43.7,14.3l-4.5-22.8c0,0-28-13.5-35.8-11.2c-7.8,2.3-16.5,5.4-29.1,13.8c-12.6,8.5-24.7,17.6-24.7,17.6
				s0.4,4.8,0.3,7c-0.1,2.1-0.4,8.6-0.4,8.6L538.5,752.9L538.5,752.9z"/>
			<path class="st23" d="M154,669.3c0,0-9.4,4.2-11.8,4.1c-2.4-0.2,6.4,2.7,9.3,3.2c2.9,0.4,13.5,0.7,13.5,0.7s-7.4-2.7-8.7-4.2
				C154.9,671.5,154,669.3,154,669.3L154,669.3z M175.2,674.4l17.9,0.2c0,0,13.1-6.1,11.5-6.3c-1.6-0.3-12.7-1.6-14.4-0.9
				C188.5,668.1,178.1,673.2,175.2,674.4z"/>
			<path class="st32" d="M221.6,586.5c0,0-16.4,5.4-29.1,15.7c2.7-4.1,7.8-10.6,13.9-16.6c-10.5,4.9-34.6,21.7-47.8,34.2
				c0,0,21.1-5.1,24.2-5.5c3.1-0.4,9.4-1.2,7.9-0.3s-15.6,13.4-16.8,15.2c-1.2,1.8-2.5,3.5-1.3,3.1c1.1-0.4,13.9-3.4,18.4-4.1
				c4.6-0.8,24.6-3.6,22.6-2.3c-2,1.3-12.4,7.2-11,7.5c1.4,0.3,11.1,1.6,14.7,2.3s13.7,3.8,13.3,3.2c-0.4-0.6-6.1-9-7.8-16.8
				c-1.8-7.8-3.6-18.5-2.9-25C220.5,590.5,221.6,586.5,221.6,586.5L221.6,586.5z M477.3,564.4c9.6-2.6,48.7-5.4,60.7-5.3
				c-13.5-1.7-13.2-1.8-18.7-2.8c13.5-1.6,37.9-3,37.9-3s7.4,0.7,11.7,1.2c4.3,0.5,13.4,3.1,11.5,1.9c-1.9-1.2-13-8.5-16.8-8.3
				c-3.9,0.2-24.1,2.4-30.1,2.7c-6,0.4-27.2,1.4-34.3,1.3c-7.1-0.1-22,0.2-22,0.2l1.2,6.3l-2.1-0.9
				C476.3,557.8,477.2,561.6,477.3,564.4L477.3,564.4z M499.1,579.1c0,0,14-6.1,48.8-7.8c-5.2,2.2-15.6,6.5-22,9.3
				c12.3-0.9,42-2.7,52-0.6c-7.2,2.2-21.7,6.7-28.8,9.1c-7.1,2.4-30.4,10.1-27.7,10.4c2.7,0.3,27.5,3.9,24.3,4.6
				c-3.2,0.7-18.3,3.5-25.6,5.7c-7.3,2.2-25.4,7.7-21.5,7.8c3.9,0.2,25.1,2.2,21.3,3.2c-3.8,1-14.3,3-20.1,4.8
				c-5.8,1.9-17.2,6.3-16.5,5.3c0.7-1,7.2-11.9,10.1-18.4c2.9-6.5,6-15.7,6.3-21.6C500.2,585,499.1,579.1,499.1,579.1L499.1,579.1z"
				/>
			<path class="st25" d="M222.9,663.7c0,0,10.1-1.1,10.1,2.7c-3.7,0.1-11,0.4-11,0.4L222.9,663.7L222.9,663.7z M225.1,686.8
				c0,0,21.5-0.4,22.7-1.1c1.2-0.7-8.6,3.9-11.3,4.8c-2.7,0.9-8.6,3.3-8.6,3.3l-4-0.5L225.1,686.8z M241.9,707.8
				c0,0,16.4-6.1,17.5-5.5s3.9,2,3.3,2.7c-0.6,0.7-7,4.4-9.6,5.3c-2.6,0.9-11.1,4.1-11.1,4.1L241.9,707.8L241.9,707.8z M255.5,728.3
				c0,0,1.9-2.7,4.1-2.6c2.1,0.1,34.8,1.3,29.7,2c-5.1,0.7-14.7,2.5-22,3.8c-7.2,1.3-11.6,2.6-11.6,2.6L255.5,728.3z M459.8,724.2
				c0,0,7.6,11.8,14.6,10.3c6.9-1.4,33.3-10.1,35.4-8.2c2.1,1.9,7.6,9.1,7.6,9.1v8.9l-0.5,6l-22.7-4.6l-14.5,8.2c0,0-5.6,3.2-9.3,0
				c-3.6-3.2-3.8,0-4.7,1.1c-0.9,1.1-4.7,2.7-4.1-1.9c0.6-4.6,0.9-11.9,0.2-17.2C461.2,730.7,459.8,724.2,459.8,724.2L459.8,724.2z"
				/>
			<path class="st26" d="M369.7,713.3c0,0,1.6-8.9,7.5-6.2c5.9,2.7,16,15.2,20.8,24.1c4.8,8.9,7.5,18.2,8,17
				c0.5-1.2,1.5-12,12.9-11.8c11.4,0.2,36,5.5,41.1-11.6c0.9,3.3,1.8,9.4,2,14.1c0.2,4.7,0.8,12.2-0.5,16.8
				c-1.2,4.6-1.3,7.2-6.5,8.3c-5.2,1.2-8.3,1.1-13,3.3s-11.8,7.2-16.9,10.2c-5.2,3.1-15.5,9.7-15.5,9.7l-9-3.8l4.6-1.9
				c0,0-2.9-14.5-4.3-19.5c-1.4-4.9-5.9-22.2-9.3-28.8c-3.4-6.6-5.8-12.1-9.2-16.2c-3.4-4.1-5.9-5.8-5.9-5.8L369.7,713.3
				L369.7,713.3z M311.8,693.2c0,0,5.8,2,9.6,9.1s6.9,13.5,11.5,13.9c4.6,0.4,18.1,1.6,14,2.2c-4.1,0.6-26.9,4.5-26.9,4.5
				s1.1-9.2-0.5-15.2C317.3,699.1,311.8,693.2,311.8,693.2L311.8,693.2z"/>
			<path class="st16" d="M296.3,557.5c8.8,0.3,17.9,11.9,18,19.2c0.1,7.3,0.9,58.8-2.1,58.7c-3.1-0.1-20.1-2.2-26.3-3.2
				c-6.2-0.9-14.9-1.9-15.4-3.8c-0.5-1.9-3.3-26.9-1.2-38.1C271.4,579.2,278.1,557,296.3,557.5L296.3,557.5z M422.9,558.6
				c11.8-0.1,18.1,8.6,20.5,16.2c2.4,7.6,4.2,19.9,3.5,33.7c-0.7,13.9-1.6,23-2.5,23.4c-0.8,0.4-13.5,2.6-18.6,3.1
				c-5.1,0.5-19.9,0.9-19.8,0.6c0.1-0.4-3.4-59.5-2.4-62.1S411.6,558.7,422.9,558.6L422.9,558.6z"/>
			<path class="st15" d="M409.3,588c0,0,1.6,3.8,3.9-0.8c2.2-4.6,4.7-16.5,4.8-14.6s1.2,17.9,0.6,21.7c-0.6,3.9-0.9,24.3-5.1,24
				C409.4,618,408.9,591.4,409.3,588L409.3,588z M296.3,588.7c0,0,0.8,1.8,2.8,1.8c2,0,5.5-4.6,6.2-9.9c0.7-5.3,1.5-7.9,1.8-4.5
				c0.2,3.4,1.1,16.8,0.4,22.6c-0.7,5.8-1.9,27.6-6.7,27C296,625.1,294.9,601.4,296.3,588.7L296.3,588.7z"/>
			<path class="st24" d="M426.6,685.1l2.7,1.4c0,0,10.8-4.1,19.6-5.3s18.2-2,20.2-1.1c2,0.9,10.8,8,10.8,8s-0.4-6,1.2-10.7
				c1.5-4.7,10.3-25.4,10.3-25.4s-11.3,7.5-16.5,10.1c-5.2,2.6-16,9.4-22.5,12.1s-10.1,4-12.2,4.6
				C438.2,679.4,426.6,685.1,426.6,685.1L426.6,685.1z"/>
			<path class="st20" d="M182.3,304.1l-2,13.8l5.3-14.5l-2.9,18.5l3.8-9.2l-1.5,10.9l17.4-20.9l-4.5,19.6l7.6-12.9l-2.7,10.8
				l8.2-9.3l-0.8,5.1l3.9-2.7l-7.4,13.5l18.2,3.1c0,0,4.6,7.2,7.9,12.2c3.3,5.1,8,12.7,8,12.7l-2.4,9.2c0,0-5.6,6.6-9.8,13.3
				c-3.3,5.4-6.6,10.9-9.9,16.3l10.5,10.3l-1.4,11.3l-37.9-18.1l32.1-46.3l-58.1-12.3L182.3,304.1L182.3,304.1z"/>
			<path class="st15" d="M354.7,637.2l0.4,17.8l-5.3-8.2C349.9,646.9,354.7,640.4,354.7,637.2z"/>
			<path class="st77" d="M462.6,577.2c0,0,5.9,40.4-1.8,40.1C453.1,617.1,462.6,577.2,462.6,577.2z"/>
			<path class="st16" d="M459.4,606.2c0.5,0.1,0.7,8.1,0.1,8C458.9,614.1,458.7,606.1,459.4,606.2z"/>
			<path class="st35" d="M326.2,255.5c0,0,7.3,7.4,13.8,7.3c6.5-0.1,10.7-2.2,12.2-3.1c1.5-0.8,8.2-5.3,8.2-5.3s-11.5,4.7-18.7,4.8
				C334.5,259.4,326.2,255.5,326.2,255.5L326.2,255.5z M363.4,256.4c0,0,9.6,2.5,14.1,2.4c4.5-0.1,11.5-1.1,11.5-1.1
				s-6.6,4.6-11.9,4.5S364.6,257.7,363.4,256.4z M339.1,324.3c0,0,14.3,2,20.5,1.6c6.1-0.4,17.5-2.1,17.8-1.2
				c0.2,0.9-14.9,13.4-18.9,12.6C354.4,336.5,339,327.7,339.1,324.3z M454.2,162.6c15.9-2.6,46.7-18.7,71.8-32.4
				c-5.8,5.1-27,20.8-34.9,26.1c-7.9,5.3-31.7,19.2-31.7,19.2S456.1,166.6,454.2,162.6L454.2,162.6z M258.7,184.6
				c0,0-15.2,2.5-23.3,2.7c-8.1,0.2-39.9,1.2-35.5,0.4c21.4-2.5,49.1-12.3,63.8-17.3C261.9,174.3,258.7,184.6,258.7,184.6
				L258.7,184.6z M461.2,363.3c0,0,2.3-1.2,2.4,0.7c0.1,1.9-0.8,22.6-6.1,24.4c-5.3,1.9-31.7,8.4-29.1,6.4c2.6-1.9,11.8-9,15.7-12.8
				C448,378.3,461.2,363.3,461.2,363.3L461.2,363.3z M214.8,310.7c17,20.3,40,31.4,41,32.8c1.1,1.4-11.3,28.6-13.8,24
				c-2.5-4.6-3.1-6.7-3.1-6.7l1.4-6.3c0,0-4.6-7.3-7.8-12c-3.2-4.7-8.7-14.6-11.2-18.9C219.1,319.1,216.1,313.5,214.8,310.7z"/>
			<path class="st35" d="M80.2,206.5c8.5-3.8,50.6-6.6,75.5-2.1c24.9,4.5,48.7,10.8,45.1,19.7c-3.5,8.9-17.9,42.1-22.1,52.4
				c5.9,1.2,23.7,3.3,25.4,8c0,0,3.8,11.4,5.5,14.7c1.7,3.3,5.7,12.9,5.7,12.9l-1.7,2l-3.5,1.8l0.6-4.9l-8,9.2l2.5-10.4l-7.4,12.5
				l4.5-19.6l-17.5,21.2l1.5-10.9l-3.6,8.9l2.7-18.1l-5.3,14.4l1.7-12.4l8.9-16.8l-44.3-8.2l20.8-55.5c0,0-2.4-1.9-5.9-2.7
				c-3.5-0.8-44.7-9.3-44.7-9.3L80.2,206.5L80.2,206.5z M220.2,457.5c0,0-6.2-10.4,0.9-13.7c7.1-3.3,29.6,6.1,40.4,16.9
				c10.8,10.8,27.7,23,27.7,23s39.5-23.5,75.7-23c36.2,0.5,69.1,23.5,69.1,23.5s56.2-58.1,69.1-45.6c7.3,7.1-1.9,18.8-1.9,18.8
				s-13.5,15.4-16.8,18.3c-3.3,2.9-22.9,18.8-29.4,23c-6.4,4.2-15.9,8.9-18.2,9.3c-2.3,0.4-6.4,0.3-8.6-4.1
				c-2.1-4.4-2.2-7.2-2.2-7.2s-8.3-5.4-14-7.5c-5.7-2.1-16-5.6-22.7-6.6c-6.7-1.1-20.4-2.2-27.1-2c-6.7,0.2-25.4,1.4-34.9,3.8
				c-9.5,2.4-19.7,4.8-23.5,6.3c-3.7,1.5-6.3,2.4-6.3,2.4s0.8,7-1.3,9.9c-2.1,2.9-5.4,7.9-11.3,5.8c-5.9-2.1-17.1-9-23.1-13.7
				c-6-4.7-21.8-18.2-27.3-23.4C229.1,466.4,220.2,457.5,220.2,457.5L220.2,457.5z"/>
			<path class="st4" d="M209.9,509.1c0,0,8.6,4.5,11.7,5.8c3.2,1.3,12.3,4.1,12.3,5.1c0,1.1,0.8,13-1.1,12.5
				c-1.9-0.4-13-5.4-15.3-6.7c-2.4-1.3-7.5-4-7.5-4L209.9,509.1L209.9,509.1z"/>
			<path class="st6" d="M211.1,494.2c0,0,9.8,5,12.5,6.4c2.7,1.4,10.7,5.4,10.6,5.9c-0.1,0.5-0.6,13-0.6,13s-10.8-3.7-13.4-5.1
				c-2.6-1.4-8.7-5-8.7-5L211.1,494.2z"/>
			<path class="st78" d="M402.2,577.3c0,0,6.7-20.1,23.1-18.9c16.4,1.2,27.3,23.8,19.4,73.4c-8.5,2.8-35.3,4.8-38.8,3.7
				 M414.7,561.9c6-0.1,4.4,56.1-1.1,56.3C408.2,618.4,407.1,562.1,414.7,561.9 M409.4,586.5c0.7,6.7,6,0.8,8.3-16.5 M314.3,576.4
				c0,0-5.5-19.2-18.7-18.9c-13.2,0.4-33.3,13.9-25.2,71.2c6.3,3.2,35.3,6.2,38.8,6.2 M303.4,562.8c6.5,0.1,5.5,63.8-2.8,62.6
				S295.7,562.7,303.4,562.8 M296.4,587.3c1.2,5.5,8.5,5.5,10.2-15.5 M354.8,635.5l0.3,20.5 M355.1,656c0,0-2.1-6.5-5.2-9.4
				c3.5-1.5,4.9-11.1,4.9-11.1 M322.6,679.8c1.9-3.2,30.8-11,70.8-10.3 M266.7,650.9c3.2-3.2,31.9-10.9,31.9-10.9 M298.5,639.9
				l-17.2,16.1 M281.4,656.1c0,0,26.6-11.1,39.1-11.5 M401.6,647.1c5.2-2.3,26.1-8.2,26.1-8.2 M427.7,638.9l-9.9,11.1 M417.9,649.9
				c0,0,21.5-8.7,31-9.8 M299.4,191.5c19.9,0.5,27.7,39.7-4.8,37.6C273.1,227.6,277,190.9,299.4,191.5 M298.1,193.2
				c11.1,0.2,10.1,15.5-0.2,15S288.4,193.1,298.1,193.2 M426.3,193.6c20.8,0.6,23.6,37.2,0.2,37
				C400.6,230.4,403.7,192.9,426.3,193.6 M422.8,195.3c10.4,1.7,8.8,16-1.4,14.5C411.2,208.2,415.4,194.1,422.8,195.3 M352.6,232
				c0,0,22.2-1.8,17.5,1.4c-4.8,3.2-7.4,5.1-7.4,5.1 M362.7,238.5l-10-6.5 M324.8,253.4c0,0,5.8,9.3,15.7,9.3
				c9.9,0,20.3-8.6,20.3-8.6s7.4,7.4,16,7.9c8.6,0.5,17.6-9,17.6-9 M338,262.5c2.5,11.6,11.8,40.3,25.2,40.6
				c8.5,0.2,18.5-33.7,20.5-42.1 M341.2,274c5.5-5.1,21.3-12.7,38.4,0 M421.9,317.2c-13.6,10.8-35.3,42.1-37.7,67.4
				c-1.8,1.9-6.5,4.1-6.2,5.8c0.4,1.8,6.2,3.2,6.2,3.2s-0.4,5.6,1.4,6.3c1.8,0.7,5.8-2.5,5.8-2.5s0.9,5.8,2.6,6.5
				c1.8,0.7,4.8-3,4.8-3s2.1,4.6,4.4,4.9c2.3,0.4,3.2-3,3.2-3s3.7,4.6,5.5,4.6c1.8,0,1.4-4.4,1.4-4.4s27-11.3,48.3-40.2
				 M245.5,360.5c-15.5-17.9-48.4-78.3-45.8-98c0-3.3-4.9-4.2-4.2-6.6c0.7-2.3,7.3-2.1,7.3-2.1s-2.8-6.6-1.2-8.7
				c1.6-2.1,8,0.7,8,0.7s-1.6-5.6,0.9-7.5c2.6-1.9,7.8,2.1,7.8,2.1s0.2-5.9,1.6-6.8c1.4-0.9,9.9,8.2,9.9,8.2s2.1-6.8,3.8-6.8
				c1.6,0,4.5,8.7,7.5,11c3.1,2.4,40.9,48,44.9,67.7 M269,160.2c-9.6,14.1-12.9,35.5-14.1,45.1c-1.2,9.6-12.1,33.8-11.6,43
				 M258.1,184.8c-52.5,8.1-120.6-0.7-164.3-16.6c24.7-20.1,125.2-45.1,202.4-32.1 M130.6,151.1c2.6,5.6,24.3,26.3,43.5,34.6
				 M289,135c9.9-5.2,33.6-15.8,71.2-15.5c37.6,0.2,62.8,9.9,68.4,14.1 M424.7,131C465.8,91.8,557,64.7,593,62.6
				c-8,15-66.5,76.9-133.1,112.1 M542.2,72.9c4.7,10.5-6.5,47.1-19.3,59.8 M449.8,153.1c16,31.3,15,53.6,17.9,66.5
				c2.8,12.9,19.3,49.1-16.9,79.7 M472.3,239.2c-11.9-11.8-33.9-2.6-36.4,14.7c-2.5,16.9,9.8,33.7,31.2,26.3 M245.4,250.3
				c0.4-1.9-4.4-15.2,13.3-15.8c21.4-0.7,38.6,28.8,11.4,48.4 M459.9,290.9c3.5,12.9,7.1,45.8,14.6,73.1c7.5,27.3,18.6,44,18.6,58.5
				 M465.8,446.8c-4.2,5.9,30.3-29.9,33.9-26.6c3.5,3.3-11.3,19.5-11.3,19.5 M496.4,429.6c0,0,9.6-5.4,11-2.3
				c1.4,3.1-10.1,20.7-10.1,20.7 M503,438.8c0,0,11.5-6.1,11.8-3.5c0.2,2.6-16.5,29.6-36,45.4c-19.5,15.8-42.8,33.9-49.1,25.2
				c-6.3-8.7-1.2-20-1.2-20 M298.7,492.4c20.9-8.2,81.6-24.5,127.2,3.8 M297.5,488.2c0.2,3.3,2.8,28.2-17.9,18.3
				c-20.7-9.9-76.2-62.3-70.8-66.3c3.3-2.6,7.3,2.3,7.3,2.3 M223.9,451.5c0,0-16-18.6-12.7-22c3.3-3.4,12.3,4.5,12.3,4.5
				 M231.8,443.6c0,0-15.5-18-12.5-20.2s35.9,15.6,62.5,50.5 M240.6,354.5c-1.4,7.8-13.7,49.1-13.3,70.6 M197.1,135.9
				c0,0-141.5-79.6-141.5-69.3c0,10.3,9.9,137.3,14.6,138.2c4.7,0.9,97.8,16,96.9,20.2c-0.9,4.2-20.7,55.5-20.7,55.5 M146.3,280.6
				l44.7,8l-27.3,49.8l58.1,12.3L190,397.2l37.6,17.9 M238.2,363.6c-4.2,4.8-19.6,29.8-19.6,29.8s7.9,7.1,10.4,10.4 M214.9,311.7
				l-8.3,15l18.2,3.4 M199.2,263.2l-8.3-1.4 M190.9,261.8c0,0,29.4-65.4,37-74.1 M402.7,542.7c62.8,19.7,190.4,3.9,206.7-2.8
				c3.9-3.5,3.5-10.6,0.7-12.3c-2.8-1.8-91-26.8-113.2-29.3 M430.7,536.1c39.1,4.2,143.7,9.9,170.5-11.3 M489.8,470.7
				c-3.4,4.5-10.6,13.9-8.3,13.1c2.3-0.8,11.3-3.9,15.2-4.7 M472.6,485.7c-2.7,3.4-8.2,10.4-5.6,9.3s22.9-8.2,29.7-10.4
				 M211.2,494.1l0.1,15.5 M211.3,509.6c0,0,15.4,8.9,22.2,9.8c0.4-4.5,0.5-13.5,0.5-13.5s-17.9-8.3-22.8-11.8 M209.9,509.3
				l0.1,12.3 M210,521.7c0,0,17,9.8,23.5,10.9c0.4-4.6,0.4-13,0.4-13 M210.6,493.5c0-5.4,0.2-31.7,4.9-40.2 M233.5,532.6
				c21.4,7.3,76.8,19.3,133.5,14.7c56.8-4.6,118.5-27.2,128.4-42.7c3.9-11.6,0.4-40.9,0.4-40.9 M419.5,547
				c-5.1,0.5-20.7,1.2-37.1,15.8c28.9-21.7,74.9-0.9,84.1,8.1c1.1-3.8,1.4-5.3,1.8-8.1c-1.1-3.9-18.2-10.5-23.6-12.3 M281.5,543.7
				c-6.6-0.2-30.3,9.4-31.6,12.9c-1.3,3.5-2,9.6-2,9.6s30.3-33.4,85.3-9.9c-4.8-4.8-11.3-7.4-14.6-8.7 M336.5,548.5
				c-2.7,6-9.8,33.4-10,43.3c13.9-21.2,28.9-38.3,28.9-38.3 M356.6,548.4c-0.8,4.1-8.5,47.8-6.2,60.1c21-26.2,54.5-60,58.4-63.7
				 M244.9,536.4c-3.2,4.2-7.5,13.9-8.8,18.2c4-5.2,8-9.2,12.9-12.5c-6.3,9.8-12.3,26.5-12.9,31.9 M237.1,569.7
				c3.3,10.9,14.1,80.9,17.1,88.3 M239.9,584.7c-0.9-1.8-9.2-18-14.6-7.6c-5.5,10.4-9.2,32.3,0.9,54c10.1,21.7,25,21.9,25.5,17.3
				 M227.1,604.3c0,0,4.8-17.5,7.4-13.2c2.6,4.2,7.7,10.2,10.3,19.4 M241.9,604.3c0,0-9.2,11.6-3.4,16.8c5.8,5.1,6.6,3.6,9.6,8.9
				 M477.5,552.3l1.6,9.2 M479,561.4c0,0-1.4-3-3.4-6.2c3,10.4,1.4,20.1-1.9,33.9c1.9-6.5,7.1-20.1,13.2-24 M479.6,574.8
				c0,0,7.8-8.8,10.4-7.4c2.6,1.4,19.8,11.1,2.5,47.6c-17.3,36.5-28.2,27.7-28.2,27.7 M488.2,591.2c0,0,1.2-11.6-5.8-4.2
				c-7.1,7.4-9.3,13.8-7.9,15.3c1.4,1.6,6.5,4.4,2.1,11.6c-4.4,7.2-9.5,17.1-9.5,17.1c1.8,2.1,10.9-1.8,18.3-10.4 M473.8,589.1
				c-1.6,7.4-7.6,42-9.2,51.3c-1.6,9.3-4.2,31.7-38,44.6 M483.5,631.4c6.8-3.1,25.6-8.9,37.6-10.8c-7.5-1.9-16.9-3.1-24.2-2.8
				c9.2-4.7,39.5-12.2,50.3-13.9c-7.8-1.6-19.5-4-26.8-4.5c14.8-6.1,64-22.8,76.6-23.7c-10.1-8.7-27.7-16-40.4-22.1
				c6.3-0.2,16.9,1.9,24.7,3.3c-7.1-4.5-12.5-6.8-16.9-8.9 M535.2,606.4c5.4,7.5,19.8,31.7,19.8,31.7s-37.6-1.2-62.1,13.4
				c-24.5,14.6-47.3,27.3-52.7,27 M574.9,581.1c3.5,1.2,11.5,6.8,11.5,6.8S585,610,582.7,614 M565.7,604.1c2.4,4.5,8.5,8,14.6,9.6
				c6.1,1.6,11.3,2.4,10.8,7.1c-0.5,4.7-0.7,8.5,1.6,11.8c0,0,4.9,4.2,8.2,14.3c3.3,10.1,30.8,69.4,34.1,91.2 M517.8,734.6
				c8.2-7.1,41.4-31,53.6-31.3c12.2-0.2,44.7,11.8,62.5,30.3 M614.4,751.8c8.5-2.3,16.9-10.1,20.6-13.4 M479.8,687.4
				c-0.9-7.8,8.1-28.3,12.1-35.1 M476.9,684.5c0.5,5.2-0.9-11.8-0.5-14.1 M517.7,734.1l5.5-31 M429.1,686.1
				c8.2-3.1,35.5-9.2,42.3-4.9c6.8,4.2,14.3,13.6,21.2,17.2c6.8,3.5,28.3,13.9,24.3,51.5 M375.3,709.2c7.1,6.6,19.8,19.2,29.9,72.1
				 M366.4,713.4c0.2-5.6,4.7-17.2,9.4-16c4.7,1.2,11.5,4,20.7-0.2c9.2-4.2,23.7-14.8,28.2-12.9c4.5,1.9,25.9,9.9,32.9,31.3
				c7.1,21.4,5.6,44.7,0.5,47.3c-5.2,2.6-12,2.1-16.7,4.7c-4.7,2.6-31.7,19.7-31.7,19.7 M409.6,787.2l-8.9-3.8 M461.9,754.9
				c0,0,0.8,1.8,2.2,1.4c1.4-0.5,2.9-4.5,4.6-3.4c1.6,1.1,5.6,4.5,10.5,1.5c4.8-2.9,16.5-10.2,18-10c1.5,0.2,5.3-0.5,7.8-3.6
				 M494.7,745.6c26.6,8.9,77.8,5.9,96.6,21.2 M212.8,523.7c-9.2,2.6-58.5,44.9-59.7,54.3c14.1-9.2,26.1-15,37.1-16.9
				c-13.9,10.1-26.3,34.1-32.7,59c9.6-2.1,25.2-6.8,33.9-6.6c-5.4,4.7-16.2,12.9-19.7,18.8c11.5-3.3,36.2-7.8,42.1-6.6
				c-3.1,2.1-9.2,5.4-11.8,7.5c8.7,1.9,21.2,2.6,28,5.6 M245.6,736.5c25-8.3,91.2-13.8,130.8-25.2 M305,690c2.6-2.5,6.5-6,13.8-1.1
				c7.2,4.9,21.2,9.3,27.5,10.2c6.3,0.9,16.6,1.4,15.3,15.7 M246.3,662.5c7.6-2.1,12.7,8.1,19.4,10.2 M245.6,736.5
				c-4.1,1.9-14.6,8.5-16.2,10.4c-1.6,1.9-12.7,16.6-19,17.6c-6.3,1.1-16.9,0.5-10.6-11.3c6.3-11.8,7.6-14.1,9.3-16
				c1.8-1.9,16.2-16.6,20.3-18.3c4.1-1.8,32.4-10.8,31.9-12.5 M204,745.5c-4.6,4.6-15.5,15.9-22.6,6.2c-1.6-9.3,5.1-19,7.1-25.2
				c5.3-4.4,17.5-19.9,24.5-25.6c7.1-5.6,31.9-12.5,36.5-16.2 M243.1,664.6c-5.8,1.8-36,2.6-38.3,3.9c-2.3,1.2-24.9,12.3-27.5,15
				c-2.6,2.6-15.7,21-19.7,24.9c-4.1,3.9-6.7,21.4,14.8,12.3c7.6-3.2,13-12.7,15.9-13.4c2.8-0.7,25.6-13.9,28.9-13.9
				c3.3,0,9.7-0.2,12.3-0.2 M206.5,668.1c-6.5-0.4-14.9-1.2-16.1-0.7c-1.2,0.5-18.9,10.6-28,8.5c-9.2-2.1-12.9-9.3,1.8-17.8
				c14.6-8.5,23.6-15.3,25-14.8c2.3,1.4,19.6,0.9,24,1.8c4.4,0.9,38.1,10.9,43.9,14.8c0,0,40.2,29.6,53.4,32.4 M310.9,692.5
				c2.8,2.6,11.7,11.9,9.1,30.1 M221.9,647.6c3.4,4.1,6.2,10.1-0.7,19.2 M216.2,667.4c6,4.1,11,7.2,8,25.7 M228.3,693.8
				c7.4,1.8,14.9,7.4,13.7,20.3 M244.2,713.9c8.3,1.6,11.3,6.2,11.6,19.6 M174.9,676.7c-9.7,0.1-24,2.5-34.6-4.2 M181.2,614.7
				l-20.5,38.1 M160.8,652.8c0,0,13-6.3,18.2-4.1 M192.5,537.4c-4.6,2.3-19.4,9.9-20.8,10.6c-1.4,0.7-0.4,3.5-0.4,3.5
				S119.5,591.4,123,603c3.5,11.6,10.8,19.7,10.8,19.7 M151.2,603.7c-6.7,10.9-30.7,29.6-29.6,34.6c1.1,4.9,6.3,11.6,6.3,11.6
				 M136.4,639.4c-6.7,7.8-46.6,64.9-42.3,73s22.9,19.7,30,30.7 M94.1,710.1c3.2-8.1,12-23.1,31.7-19.9c19.7,3.2,41.8,0,49.2-3.9
				 M130,690.9c-2.8,15.2-11.2,89.8-4.9,107.8c6.3,18,0,28.2,35.3,30.3c35.3,2.1,70.9,4.2,127.7-8.8c56.8-13,111.5-36.1,117.2-39
				 M363,798.1c20.1,8.1,165,61.3,216,51.8c15.2-2.8,28.6-7.1,33.5-13c4.9-6,12-49.4-6-122.4 M361.4,709c0,0,4.1,1.1,5.3,1.6
				 M393.8,483.6c0.2,6.9,4.1,59.5,4.1,59.5"/>
		</g>
	</g>
</g>
</svg>
