<?xml version="1.0" encoding="utf-8"?>
<!-- Generator: Adobe Illustrator 24.0.2, SVG Export Plug-In . SVG Version: 6.00 Build 0)  -->
<svg version="1.1" id="Capa_1" xmlns="http://www.w3.org/2000/svg" xmlns:xlink="http://www.w3.org/1999/xlink" x="0px" y="0px"
	 viewBox="0 0 1967 1369" style="enable-background:new 0 0 1967 1369;" xml:space="preserve">
<style type="text/css">
	.st0{fill:#5646B7;}
	.st1{fill:#0D131A;}
	.st2{fill:#C7A008;}
	.st3{fill:#7D7F68;}
	.st4{fill:#FFCB05;}
	.st5{fill:#333333;}
	.st6{fill:#ED8599;}
	.st7{clip-path:url(#SVGID_2_);}
	.st8{fill:#A586BC;}
	.st9{fill:#8F75A3;}
	.st10{fill:#DBDCDC;}
	.st11{fill:#B4B4B5;}
	.st12{fill:#00ACA8;}
	.st13{fill:#009693;}
	.st14{fill:#008086;}
	.st15{fill:#00666C;}
	.st16{fill:#CCCCCC;}
	.st17{fill:#999999;}
	.st18{fill:#CE7486;}
	.st19{fill:#FFFFFF;}
	.st20{clip-path:url(#SVGID_4_);}
</style>
<rect class="st0" width="1967" height="1369"/>
<g>
	<defs>
		<rect id="SVGID_3_" width="1967" height="1369"/>
	</defs>
	<clipPath id="SVGID_2_">
		<use xlink:href="#SVGID_3_"  style="overflow:visible;"/>
	</clipPath>
	<g class="st7">
		<path class="st8" d="M-340.22,382.1c-2.35,54.17,6.39,105.65,26.21,154.43c18.53,45.5,45.61,86.25,81.26,122.24
			c34.12,34.36,73.58,61.97,118.38,82.85c44.44,20.64,90.35,32.83,137.72,36.59l-115.21,265.25
			c-85.01-34.12-154.26-83.26-207.73-147.4c-46.2-55.23-79.03-119.37-98.5-192.43c-16.65-62.62-22.28-126.17-16.89-190.67
			c4.81-57.69,17.06-104.95,36.76-141.77c11.02-20.64,19.52-32.66,25.5-36.06C-342.86,329.51-338.7,345.16-340.22,382.1"/>
		<path class="st8" d="M742.92,1186.98l-33.24-2.99c-35.88-2.23-64.14,2.76-84.78,14.95c-7.15,4.22-18.29,6.63-33.42,7.21
			c-14.42,0.47-29.55-0.76-45.38-3.69c-37.88-6.92-58.57-17.77-62.09-32.54c-3.05-12.9-2.76-27.97,0.88-45.2
			c1.06-5.04,3.64-13.84,7.74-26.38l92.52-197.7c37.05,8.91,69.07,24.39,96.04,46.44c41.63,33.89,63.26,78.68,64.9,134.38
			c13.49,18.41,20.05,39.93,19.7,64.55c-0.23,16.65-2.58,29.49-7.04,38.52C757.58,1186.75,752.3,1187.57,742.92,1186.98"/>
		<path class="st9" d="M737.29,1026.39c5.39,16.65,8.33,34.47,8.79,53.47l4.57,6.86c-5.16,12.78-16.71,25.21-34.65,37.29
			c-7.27,4.92-11.84,8.56-13.72,10.91c-3.05,3.87-3.34,8.03-0.88,12.49c-10.08,10.2-16.42,21.75-19,34.65
			c-22.87,1.06-42.04,6.16-57.52,15.3c-7.15,4.22-18.29,6.63-33.42,7.21c-14.42,0.47-29.55-0.76-45.38-3.69
			c-37.88-6.92-58.57-17.77-62.09-32.54c-3.05-12.9-2.76-27.97,0.88-45.2c1.06-5.04,3.64-13.84,7.74-26.38l78.27-167.27
			c14.07,2.11,28.55,8.27,43.45,18.47c8.09,5.51,20.93,16.06,38.52,31.66c16.3,14.54,29.32,24.86,39.05,30.96
			C707.16,1020.06,722.28,1025.34,737.29,1026.39"/>
		<path class="st10" d="M819.26,1191.03c23.45,18.76,19.29,30.55-12.49,35.35c-21.11,3.28-48.78,3.4-83.02,0.35
			c-20.87-1.88-37.17-4.46-48.9-7.74c-13.13-3.64-24.04-8.91-32.72-15.83c-8.33-6.68-3.22-16.89,15.3-30.61
			c16.65-12.43,34.71-21.63,54.17-27.61c13.13-3.99,26.03-3.58,38.7,1.23C766.38,1152.16,789.36,1167.11,819.26,1191.03"/>
		<path class="st11" d="M733.07,1205.98c19.7,10.55,43.8,17.47,72.29,20.76c-20.87,3.05-48.08,3.05-81.61,0
			c-20.87-1.88-37.17-4.46-48.9-7.74c-13.13-3.64-24.04-8.91-32.72-15.83c-6.33-5.16-4.46-12.66,5.63-22.51
			c8.79-8.56,21.34-16.89,37.64-24.98C694.08,1176.78,709.97,1193.55,733.07,1205.98"/>
		<path class="st8" d="M716.89,930.88c17.59,16.89,30.31,32.19,38.17,45.91c6.57,11.49,7.62,32.31,3.17,62.44
			c-3.99,27.09-9.26,46.03-15.83,56.81c-4.69,7.86-18.76,15.3-42.21,22.34c-17.71,5.39-33.13,8.79-46.26,10.2
			c-6.33,0.7-14.01-7.45-23.04-24.45c-11.37-21.22-18.18-32.95-20.4-35.18c-21.22-21.22-29.08-38.7-23.57-52.42
			c2.35-5.98,8.33-19.41,17.94-40.28l16.53-37.46c7.15-18.88,25.74-29.96,55.76-33.24C684.88,904.62,698.13,913.06,716.89,930.88"/>
		<path class="st9" d="M719.88,1087.78c12.9-1.76,22.51-4.1,28.85-7.04c-2.23,7.04-4.34,12.14-6.33,15.3
			c-4.69,7.86-18.76,15.3-42.21,22.34c-17.71,5.39-33.13,8.79-46.26,10.2c-6.33,0.7-14.01-7.45-23.04-24.45
			c-11.37-21.22-18.18-32.95-20.4-35.18c-21.22-21.22-29.08-38.7-23.57-52.42c2.23-5.63,7.92-18.41,17.06-38.34l16.53-37.47
			c-2.81,26.97,5.1,59.92,23.75,98.85c7.62,15.95,15.48,28.9,23.57,38.87c8.21,10.2,14.83,14.83,19.88,13.9L719.88,1087.78"/>
		<path class="st11" d="M776.69,931.59l45.2,14.95c-2.46,4.92-6.1,10.44-10.91,16.53c-6.1,7.5-11.2,11.67-15.3,12.49
			c-3.75,0.7-7.8-5.51-12.14-18.64L776.69,931.59"/>
		<path class="st10" d="M905.1,902.74l0.53,26.56c-0.23,11.61-1.88,17.82-4.92,18.64l-9.67,0.18c-2.35-0.47-6.98-2.11-13.9-4.92
			c-5.16-2.23-2.05-9.62,9.32-22.16L905.1,902.74"/>
		<path class="st8" d="M818.38,676.72c3.28,5.04,8.79,11.84,16.53,20.4l22.87,24.8c21.11,24.16,37.46,49.19,49.07,75.11
			c13.37,30.25,17.47,55.99,12.31,77.22c-4.22,16.77-15.95,34.83-35.18,54.17c-28.26,28.14-67.01,27.38-116.26-2.29
			c-14.42-8.68-24.39-21.81-29.9-39.4l-5.63-22.34c-2.35-8.79-4.98-15.89-7.92-21.28c-10.67-20.05-18.23-36.41-22.69-49.07
			c-7.5-20.52-9.32-36.12-5.45-46.79l13.72-108.53c17.35-10.55,36.88-11.67,58.57-3.34C788.95,643.24,805.6,657.02,818.38,676.72"/>
		<path class="st9" d="M746.09,717.18c-2.81,5.98-1.35,22.1,4.4,48.37c6.33,29.55,15.48,56.64,27.44,81.26
			c15.01,30.96,31.95,52.18,50.83,63.67c23.1,14.07,47.9,12.72,74.4-4.05c-4.34,5.98-10.73,13.31-19.17,21.99
			c-28.26,28.14-67.01,27.38-116.26-2.29c-14.42-8.68-24.39-21.81-29.9-39.4l-5.63-22.34c-2.35-8.79-4.98-15.89-7.92-21.28
			c-10.67-20.05-18.23-36.41-22.69-49.07c-7.5-20.52-9.32-36.12-5.45-46.79L746.09,717.18"/>
		<path class="st10" d="M878.01,913.47c2.81,3.64,1.93,13.43-2.64,29.37c-4.57,15.95-9.15,24.86-13.72,26.74
			c-4.69,1.88-11.73-2.4-21.11-12.84c-9.73-10.55-15.01-20.23-15.83-29.02c-0.94-8.79,6.51-15.01,22.34-18.64
			C862.65,905.32,872.97,906.79,878.01,913.47"/>
		<path class="st11" d="M824.71,927.72c-0.47-3.64,1-7.04,4.4-10.2c2.93-2.81,7.09-5.1,12.49-6.86c2.7,24.16,9.32,43.8,19.88,58.92
			c-4.69,1.64-11.73-2.7-21.11-13.02C830.75,946.01,825.53,936.4,824.71,927.72"/>
		<path class="st8" d="M731.49,749.01c-7.74,4.69-16.89,5.51-27.44,2.46c-7.15-1.99-13.66-5.22-19.52-9.67l15.48-109.05
			c25.09,10.44,40.46,27.5,46.08,51.18C753.83,717,748.96,738.69,731.49,749.01"/>
		<path class="st9" d="M722.17,722.1c10.91,5.75,19.76,4.57,26.56-3.52c-0.12,8.21-1.47,14.54-4.05,19
			c-2.46,3.87-6.86,7.68-13.19,11.43c-7.74,4.69-16.89,5.51-27.44,2.46c-7.15-1.99-13.66-5.22-19.52-9.67l12.66-43.62
			C704.7,709.32,713.02,717.29,722.17,722.1"/>
		<path class="st8" d="M692.09,622.72c14.42,16.53,20.34,37.58,17.77,63.15c-3.05,31.19-12.66,52.18-28.85,62.97
			c-9.85,6.68-21.34,9.15-34.47,7.39l-19.35-100.43l32.01-45.91c3.75-2.81,8.74-3.05,14.95-0.7
			C680.48,611.64,686.46,616.15,692.09,622.72"/>
		<path class="st9" d="M627.19,655.79l7.56-10.91c24.86,53.82,49.13,72.58,72.82,56.29c-4.81,24.51-14.72,40.98-29.73,49.43
			c-9.26,5.28-19.7,7.15-31.31,5.63L627.19,655.79"/>
		<path class="st8" d="M863.58,235.76c-11.96,13.72-24.68,38.75-38.17,75.11l-159.53,96.39l-54.17-40.46
			c11.02-5.98,22.57-18.76,34.65-38.34c11.14-18.18,18.18-34.18,21.11-48.02c2.35-10.79,10.38-20.11,24.1-27.97
			c7.86-4.46,20.34-10.14,37.46-17.06c11.26-5.16,29.02-15.36,53.3-30.61c23.34-14.54,38.34-24.74,45.03-30.61
			c8.09-6.8,12.61-6.27,13.54,1.58c1.17,9.5-4.92,27.38-18.29,53.65c8.79-1.41,17.88-3.87,27.26-7.39l15.48-6.16
			c3.4-1.17,5.39,0.06,5.98,3.69C871.91,223.8,869.33,229.19,863.58,235.76"/>
		<path class="st9" d="M729.03,235.41l42.39-22.69c19.23-11.37,36.17-22.87,50.83-34.47c9.26,4.46,2.64,14.95-19.88,31.48
			c-19.23,14.07-54.41,35.53-105.54,64.38c-3.28,1.88-6.63,8.09-10.03,18.64l-9.5,34.65c-9.5,34.47-19.99,56.34-31.48,65.61
			l-35-25.68c11.14-6.1,22.98-18.59,35.53-37.46c11.73-18.06,19.05-33.77,21.99-47.14c2.35-10.91,10.2-20.58,23.57-29.02
			C695.9,251.24,708.27,245.14,729.03,235.41"/>
		<path class="st12" d="M824.71,318.96c-12.43,42.8-27.62,73.64-45.56,92.52c-17.24,18.18-45.15,33.71-83.72,46.61l-45.73-84.6
			c21.11-50.66,53.24-86.36,96.39-107.12c30.25-14.54,52.59-19.52,67.01-14.95C832.22,257.39,836.09,279.91,824.71,318.96"/>
		<path class="st13" d="M817.5,253.17c-18.88,9.15-37.05,24.8-54.53,46.96c-15.48,19.58-28.32,41.33-38.52,65.26
			c-9.62,22.87-14.54,42.04-14.77,57.52c-0.12,16.42,5.28,24.33,16.18,23.75l-30.43,11.43l-45.73-82.85
			c17.35-49.95,49.48-86.25,96.39-108.88C779.63,250.18,803.43,245.79,817.5,253.17"/>
		<path class="st14" d="M784.08,286.24c-5.16,27.79-11.78,49.54-19.88,65.26c-16.06,31.66-41.16,55.64-75.28,71.94l-35.18-57.52
			c23.34-53.59,57.69-87.95,103.07-103.07c11.96-0.82,19.23-0.7,21.81,0.35C784.61,265.9,786.43,273.58,784.08,286.24"/>
		<path class="st15" d="M756.82,262.85l18.64-0.53c5.63,0.94,8.79,4.57,9.5,10.91c-18.06,16.89-33.54,38.05-46.44,63.5
			c-10.67,20.99-20.05,45.91-28.14,74.75l-21.46,11.96l-36.06-56.11c7.62-17.71,16.48-33.24,26.56-46.61
			C700.88,292.22,726.68,272.93,756.82,262.85"/>
		<path class="st8" d="M176.2,473.74c1.52-13.37-4.28-32.54-17.41-57.52c-14.66-24.86-23.22-39.99-25.68-45.38
			c-3.28-7.5-3.58-13.25-0.88-17.24c2.58-3.52,5.92-4.28,10.03-2.29c4.81,2.46,38.11,21.99,99.91,58.57l110.46,38.17l102.37,43.8
			l88.65,223.56L325.53,607.77L176.2,473.74"/>
		<path class="st9" d="M176.2,473.74c1.52-13.37-4.28-32.54-17.41-57.52c-14.66-24.86-23.22-39.99-25.68-45.38
			c-2.23-4.92-3.05-9.09-2.46-12.49c0.82-2.23,13.13,6.92,36.94,27.44c29.08,20.87,55.58,29.43,79.5,25.68l105.54,36.59l102.37,43.8
			l88.65,223.56L325.53,607.77L176.2,473.74"/>
		<path class="st8" d="M274.35,636.97l-72.12,194.36l-213.53,19c0.82-12.43,7.92-29.73,21.28-51.89
			c11.26-18.64,21.05-32.07,29.37-40.28c1.41-7.15-0.47-28.38-5.63-63.67l-8.44-55.76c0-19.23,5.34-24.27,16.01-15.13l33.77,26.56
			c16.42,12.08,26.21,17.3,29.37,15.65c3.28-1.64,5.34-12.14,6.16-31.48c0.59-16.42,0.29-32.42-0.88-48.02L274.35,636.97"/>
		<path class="st9" d="M250.07,733.53c-36.35,13.95-62.15,26.68-77.39,38.17c-20.4,15.24-37.29,37.46-50.66,66.66L-11.3,850.33
			c-0.35-12.9,6.45-30.37,20.4-52.42c10.67-17.12,20.76-30.37,30.25-39.75c1.41-7.15-0.47-28.38-5.63-63.67l-8.44-55.76
			c0-19.23,5.34-24.27,16.01-15.13l33.77,26.56c16.42,12.08,26.21,17.3,29.37,15.65c3.28-1.64,5.34-12.14,6.16-31.48
			c0.59-16.42,0.29-32.42-0.88-48.02l164.63,50.66L250.07,733.53"/>
		<path class="st8" d="M201.88,1157.61l-2.29-78.62c24.27,17.59,50.66,29.9,79.15,36.94c22.75,5.51,46.79,9.15,72.12,10.91
			c24.98,1.76,52.47,1.82,82.49,0.18c-37.52,14.66-76.63,24.8-117.32,30.43C273.47,1163.41,235.42,1163.47,201.88,1157.61"/>
		<path class="st16" d="M609.25,804.42c-9.97,15.95-16.24,26.85-18.82,32.72c-3.75,8.33-7.33,20.52-10.73,36.59
			c-1.29,6.33-0.41,15.77,2.64,28.32c3.99,16.53,6.27,28.61,6.86,36.23c2.93,35.18-11.08,73.35-42.04,114.51
			c-10.44,13.95-25.8,27.5-46.08,40.63c-19.35,12.31-41.92,23.51-67.72,33.6c-30.02,1.64-57.52,1.58-82.49-0.18
			c-25.33-1.76-49.37-5.39-72.12-10.91c-28.49-7.04-54.88-19.35-79.15-36.94l-7.74-263.31L609.25,804.42"/>
		<path class="st17" d="M191.85,815.67l213.01-5.8c-17.94,12.08-35.47,27.97-52.59,47.67c-17.94,20.87-32.48,42.74-43.62,65.61
			c-27.09,55.46-28.03,101.43-2.81,137.9c15.13,20.87,36.23,35.24,63.32,43.09c22.16,6.45,52.06,9.32,89.7,8.62
			c-6.21,3.87-14.13,7.97-23.75,12.31c-26.74,1.76-53.65,1.82-80.73,0.18c-29.9-1.76-56.17-5.39-78.8-10.91
			c-20.05-4.92-45.32-14.89-75.81-29.9L191.85,815.67"/>
		<path class="st9" d="M201.88,1157.61l-2.11-73.17c30.49,15.01,55.76,24.98,75.81,29.9c22.63,5.51,48.9,9.15,78.8,10.91
			c27.09,1.64,54,1.58,80.73-0.18c-32.6,14.54-72.17,24.98-118.73,31.31C270.89,1162.59,232.72,1163,201.88,1157.61"/>
		<path class="st10" d="M192.03,808.11L212.96,787l24.45-59.98l391.89,39.4c-7.62,10.44-15.42,22.87-23.39,37.29
			c-15.95,28.85-24.74,53.12-26.38,72.82c-1.99,24.16-3.11,40.69-3.34,49.6c-7.15-14.31-20.81-26.91-40.98-37.82
			c-16.53-9.03-34.83-15.71-54.88-20.05c-13.6-2.81-39.81,4.05-78.62,20.58l-45.91,20.4c-17,7.5-29.73,12.55-38.17,15.13
			c-17.82,5.39-37.64,1.88-59.45-10.55c-17-9.73-27.32-18.29-30.96-25.68L192.03,808.11"/>
		<path class="st11" d="M192.56,807.58l21.63-22.87l24.45-54.88l390.66,36.59l-13.9,21.11c-10.55,17.12-18.94,33.24-25.15,48.37
			c-0.7-5.16-10.79-11.08-30.25-17.77c-22.63-7.74-47.2-11.61-73.7-11.61c-77.28-0.35-142,31.72-194.18,96.21l-8.44,12.31
			c-2.35,4.46-1.93,7.68,1.23,9.67c-13.02-3.17-25.97-9.5-38.87-19c-10.32-7.5-16.59-13.37-18.82-17.59L192.56,807.58"/>
		<path class="st10" d="M567.03,825c-6.45,3.28-22.05,0.47-46.79-8.44c-22.16-7.86-37.29-14.72-45.38-20.58
			c-5.39-3.87-3.75-19,4.92-45.38c6.33-19,12.55-34.59,18.64-46.79c2.35-4.69,6.74-8.85,13.19-12.49c3.05-1.88,8.27-4.34,15.65-7.39
			l113.98-32.54c10.08,12.2,15.65,27.15,16.71,44.85c1.29,20.76-3.99,42.92-15.83,66.49c-10.67,21.34-24.51,37.17-41.51,47.49
			c-5.51,3.28-11.96,6.33-19.35,9.15L567.03,825"/>
		<path class="st11" d="M569.14,688.15c-16.89,10.2-28.08,18.06-33.6,23.57c-6.1,9.15-11.14,24.33-15.13,45.56
			c-3.99,20.76-4.4,32.89-1.23,36.41c7.27,8.21,17.65,15.89,31.13,23.04l16.71,8.27c-6.45,3.28-22.05,0.47-46.79-8.44
			c-22.16-7.86-37.29-14.72-45.38-20.58c-5.39-3.87-3.75-19,4.92-45.38c6.33-19,12.55-34.59,18.64-46.79
			c2.35-4.69,6.74-8.85,13.19-12.49c3.05-1.88,8.27-4.34,15.65-7.39l75.99-21.63C596.7,669.68,585.32,678.3,569.14,688.15"/>
		<path class="st10" d="M267.84,796.33c-17.12-14.42-30.02-27.15-38.7-38.17c-6.33-8.09-9.91-22.51-10.73-43.27
			c-0.82-20.52,1.52-36.23,7.04-47.14l122.95-77.74c8.79,7.74,37.58,25.8,86.36,54.17c42.1,24.51,64.49,40.81,67.19,48.9
			c3.28,9.5,0.82,26.68-7.39,51.54c-6.8,20.52-13.37,35.88-19.7,46.08c-4.22,6.8-28.67,14.77-73.35,23.92
			c-43.5,8.79-72.06,12.25-85.66,10.38C304.6,823.36,288.59,813.8,267.84,796.33"/>
		<path class="st11" d="M348.4,590.01c8.91,7.97,27.67,20.23,56.29,36.76c-33.07,5.86-53,9.85-59.8,11.96
			c-20.99,6.33-36.41,16.24-46.26,29.73c-5.98,10.44-5.04,34.59,2.81,72.47c7.5,37.05,14.72,57.28,21.63,60.68
			c10.32,5.16,24.21,8.33,41.69,9.5l43.62,2.11c-19.47,4.1-37.88,7.33-55.23,9.67L315.86,825c-11.26-1.64-27.26-11.2-48.02-28.67
			c-17.12-14.42-30.02-27.15-38.7-38.17c-6.33-8.09-9.91-22.51-10.73-43.27c-0.82-20.52,1.52-36.23,7.04-47.14L348.4,590.01"/>
		<path class="st8" d="M211.55,824.82c8.56,18.88,14.72,41.8,18.47,68.77c3.4,25.45,4.05,49.31,1.93,71.59
			c-2.11,22.98-6.68,38.93-13.72,47.84L-45.6,944.25c-1.41-2.81-0.41-10.49,2.99-23.04c3.75-13.49,9.2-27.79,16.36-42.92
			c19.11-41.16,41.69-70.01,67.72-86.54c25.56-16.3,52.71-23.22,81.44-20.76c13.72,1.17,31.66,5.92,53.82,14.25
			C190.33,790.4,201.94,803.6,211.55,824.82"/>
		<path class="st9" d="M130.12,793.86c-10.2,11.02-19.29,26.27-27.26,45.73c-7.86,19.47-13.19,39.46-16.01,59.98
			c-2.93,22.16-2.29,41.57,1.93,58.22L-45.6,944.25c-1.41-2.81-0.41-10.49,2.99-23.04c3.75-13.49,9.2-27.79,16.36-42.92
			c19.11-41.16,41.69-70.01,67.72-86.54c20.64-13.13,39.11-20.29,55.41-21.46c11.84-0.94,33.48,1.76,64.9,8.09
			C151.57,776.74,141.02,781.9,130.12,793.86"/>
		<path class="st10" d="M107.78,1234.83c8.21,14.31,13.07,27.73,14.6,40.28c-7.97,17.82-24.92,30.43-50.83,37.82
			c-25.33,7.27-52.65,7.68-81.97,1.23c-26.15-5.75-48.66-20.7-67.54-44.85c-7.5-9.62-13.07-19.23-16.71-28.85
			c-3.64-9.15-4.75-16.3-3.34-21.46c8.44-10.08,20.23-19.35,35.35-27.79c30.25-16.77,62.15-20.81,95.69-12.14
			C66.56,1187.74,91.48,1206.33,107.78,1234.83"/>
		<path class="st8" d="M-72.86,978.55c5.39-12.9,18.35-27.61,38.87-44.15l38.87-28.14l188.73,56.46
			c6.8,8.44,12.31,18.59,16.53,30.43c3.4,9.73,6.21,21.58,8.44,35.53c2.46,15.48-1.47,48.25-11.78,98.32
			c-9.73,47.73-13.13,75.99-10.2,84.78c7.74,23.34,12.02,37.76,12.84,43.27c1.29,7.86-0.59,13.9-5.63,18.12
			c-5.39,4.46-17.82,6.39-37.29,5.8c-19.35-0.59-34.06-3.22-44.15-7.92c-3.99-1.76-8.33-5.34-13.02-10.73l-14.42-16.53
			c-15.48-15.71-36.88-27.5-64.2-35.35c-28.49-8.33-58.81-8.27-90.94,0.18c-9.85,2.46-20.52,5.98-32.01,10.55l-18.47,7.04
			c-7.86,1.99-17.06,0.35-27.62-4.92c-11.49-5.75-19.76-13.72-24.8-23.92c-4.46-8.91-0.41-19.64,12.14-32.19
			c15.95-13.49,26.33-23.28,31.13-29.37c5.51-6.8,13.6-31.43,24.27-73.87C-83.36,1013.73-75.8,985.94-72.86,978.55"/>
		<path class="st9" d="M-72.86,978.55c5.39-12.9,18.35-27.61,38.87-44.15l38.87-28.14l80.73,182.05
			c-11.61,21.34-31.02,38.58-58.22,51.71c-9.15,4.34-28.26,11.08-57.34,20.23c-12.78,3.99-22.05,10.61-27.79,19.88
			c-5.75,9.15-6.86,18.7-3.34,28.67c-9.62,2.58-20.05,6.1-31.31,10.55l-18.29,6.86c-7.86,1.99-17.06,0.35-27.62-4.92
			c-11.49-5.75-19.76-13.72-24.8-23.92c-4.46-8.91-0.41-19.64,12.14-32.19c15.95-13.49,26.33-23.28,31.13-29.37
			c5.51-6.8,13.6-31.43,24.27-73.87C-83.36,1013.73-75.8,985.94-72.86,978.55"/>
		<path class="st8" d="M65.91,832.21c8.56-6.33,24.98-7.04,49.25-2.11c19.7,3.99,33.42,8.27,41.16,12.84
			c7.04,4.22,13.54,13.07,19.52,26.56c8.56,19.47,13.66,44.97,15.3,76.51c1.52,32.25-8.27,65.37-29.37,99.38
			c-8.21,13.25-17.06,24.68-26.56,34.3c-8.79,9.03-16.06,14.48-21.81,16.36c-11.61,3.87-27.5,3.87-47.67,0
			c-21.58-4.1-38.81-11.32-51.71-21.63c-12.31-9.85-20.81-32.13-25.5-66.84c-4.22-30.96-4.16-55.05,0.18-72.29
			c3.28-13.25,14.77-32.36,34.47-57.34C40.88,855.31,55.13,840.07,65.91,832.21"/>
		<path class="st9" d="M65.91,832.21c8.09-5.86,22.81-6.86,44.15-2.99c-46.2,30.02-73.99,70.53-83.37,121.54
			c-3.52,18.76-4.22,37.7-2.11,56.81c1.76,15.48,4.87,28.32,9.32,38.52c6.1,13.95,16.53,24.57,31.31,31.84l42.74,19.52
			c-12.78,2.58-28.26,1.82-46.44-2.29c-19.82-4.34-35.65-11.26-47.49-20.76c-12.31-9.85-20.81-32.13-25.5-66.84
			c-4.22-30.96-4.16-55.05,0.18-72.29c3.28-13.25,14.77-32.36,34.47-57.34C40.88,855.31,55.13,840.07,65.91,832.21"/>
		<path class="st8" d="M285.08,470.75c19.7,12.08,35.76,30.61,48.19,55.58c12.9,25.8,16.71,48.84,11.43,69.13
			c-5.86,22.75-18.94,41.8-39.22,57.16c-22.63,17-47.55,23.39-74.75,19.17c-27.44-4.22-49.48-13.54-66.14-27.97
			c-14.77-12.78-24.62-28.9-29.55-48.37l48.9-113.98c6.8-10.32,20.4-17.3,40.81-20.93C247.49,456.56,267.6,459.96,285.08,470.75"/>
		<path class="st9" d="M183.94,481.48c2.7-3.99,7.09-7.74,13.19-11.26c6.21-3.52,13.37-6.27,21.46-8.27
			c-9.26,7.04-12.66,22.92-10.2,47.67c2.35,22.75,8.85,47.02,19.52,72.82c11.14,26.74,23.39,46.79,36.76,60.15
			c15.36,15.24,29.2,18.35,41.51,9.32c-10.55,8.21-21.99,14.01-34.3,17.41c-13.37,3.87-27.09,4.69-41.16,2.46
			c-27.44-4.22-49.48-13.54-66.14-27.97c-14.77-12.78-24.62-28.9-29.55-48.37L183.94,481.48"/>
		<path class="st8" d="M191.15,615.33c-12.08-1.41-31.31-7.8-57.69-19.17L97.4,579.63l24.98-119.78
			c14.77,0.82,35.94,6.98,63.5,18.47c26.5,11.14,43.91,20.64,52.24,28.49c7.97,7.5,12.9,17.82,14.77,30.96
			c1.88,12.55,0.64,25.09-3.69,37.64c-4.46,13.02-11.43,23.16-20.93,30.43C217.59,613.93,205.22,617.09,191.15,615.33"/>
		<path class="st9" d="M170.92,562.92c18.64,10.44,43.21,18.53,73.7,24.27c-4.69,11.02-11.32,18.82-19.88,23.39
			c-8.79,4.81-19.99,6.39-33.6,4.75c-12.08-1.41-31.31-7.8-57.69-19.17L97.4,579.63l35.71-67.54
			C133.69,532.37,146.3,549.32,170.92,562.92"/>
		<path class="st10" d="M69.96,367.68c8.09,1.99,15.3,11.08,21.63,27.26c3.52,9.15,7.8,22.92,12.84,41.33l-244.31-14.07
			c43.5-23.1,88.41-39.34,134.73-48.72C30.85,366.21,55.89,364.28,69.96,367.68"/>
		<path class="st8" d="M133.28,494.14c-0.82,26.38-7.21,48.43-19.17,66.14c-10.67,15.71-23.39,25.04-38.17,27.97
			c-14.54,2.93-33.13,8.68-55.76,17.24c-24.04,9.15-42.1,17.59-54.17,25.33c-9.85,6.33-23.28,21.05-40.28,44.15l-33.42,44.32
			c-8.56,8.44-18.06,14.13-28.49,17.06c-11.14,3.17-21.93,2.58-32.36-1.76l-33.07-13.72c-12.2-6.45-21.17-15.19-26.91-26.21
			c-2.23-4.22-3.99-10.08-5.28-17.59l-1.41-10.03l-32.89-3.69c-16.65-3.75-29.84-13.13-39.58-28.14
			c-15.36-23.57-20.11-49.95-14.25-79.15c7.62-37.64,33.36-68.89,77.22-93.75c44.56-25.09,99.55-41.63,164.99-49.6
			c55.82-6.8,98.5-6.16,128.05,1.93c25.45,7.04,43.91,14.42,55.41,22.16C124.25,450.64,134.1,469.75,133.28,494.14"/>
		<path class="st9" d="M-168.55,734.59c-13.6-4.92-23.63-9.03-30.08-12.31c-11.37-5.63-20.05-12.72-26.03-21.28
			c6.45,0.35,14.07-1.11,22.87-4.4l22.69-10.03c18.29-7.97,31.6-8.74,39.93-2.29c4.34,3.4,11.2-0.29,20.58-11.08
			c19.82-22.75,33.13-37.29,39.93-43.62c51.36-47.96,120.6-77.63,207.73-89c-6.1,13.6-14.89,24.92-26.38,33.95
			c-9.26,7.39-18.18,11.96-26.74,13.72c-14.54,2.93-33.13,8.68-55.76,17.24c-24.04,9.15-42.1,17.59-54.17,25.33
			c-9.85,6.33-23.8,21.22-41.86,44.68l-35,44.85C-129.03,738.28-148.26,743.03-168.55,734.59"/>
		<path class="st8" d="M333.8,469.34c7.74-11.49,14.25-19.41,19.52-23.75l305,162.52c-2.46,18.06-8.21,34.18-17.24,48.37
			c-9.62,14.89-21.69,25.74-36.23,32.54c-34.47,15.83-74.17,6.33-119.08-28.49c-13.49-10.44-29.9-28.73-49.25-54.88l-30.25-42.74
			c-3.05-3.87-11.08-6.63-24.1-8.27l-30.96-2.64c1.99-6.33,6.98-14.19,14.95-23.57c9.15-10.67,18.35-18.53,27.62-23.57l-30.08-4.4
			c-22.05-2.46-37.99-2.17-47.84,0.88C320.43,491.15,326.41,480.48,333.8,469.34"/>
		<path class="st9" d="M333.62,468.64c7.62-10.79,14.19-18.47,19.7-23.04l82.14,41.16c-0.23,9.03-0.18,15.42,0.18,19.17
			c0.59,6.68,2.17,13.78,4.75,21.28c-7.27,2.81-11.96,11.9-14.07,27.26c-1.99,13.6-1.58,26.5,1.23,38.7l-21.28-30.25
			c-3.05-3.87-11.08-6.63-24.1-8.27l-30.96-2.64c1.99-6.33,6.98-14.19,14.95-23.57c9.15-10.67,18.35-18.53,27.62-23.57l-30.43-5.28
			c-22.28-2.93-38.34-2.87-48.19,0.18C319.73,489.92,325.88,479.55,333.62,468.64"/>
		<path class="st9" d="M657.44,608.12c-1.76,13.95-5.45,26.21-11.08,36.76l-29.9-13.9l-29.73-14.6l20.4-10.73
			c7.74-4.46,14.13-9.2,19.17-14.25L657.44,608.12"/>
		<path class="st6" d="M623.84,653.85c-12.78,10.79-29.9,16.59-51.36,17.41c-28.38,1.17-53.35-14.66-74.93-47.49
			c-15.48-23.45-26.03-48.55-31.66-75.28c-1.76-8.44,28.73-0.18,91.46,24.8c31.43,12.55,62.97,25.91,94.63,40.1
			C642.49,632.51,633.11,646,623.84,653.85"/>
		<path class="st18" d="M651.99,613.4c-5.28,10.67-10.26,19.29-14.95,25.86c-15.36-11.37-34.3-17.3-56.81-17.77
			c-23.1-0.59-47.31,4.69-72.64,15.83c-10.67-12.9-20.05-28.79-28.14-47.67c-6.33-14.77-10.85-28.49-13.54-41.16
			c-1.76-8.44,28.73-0.18,91.46,24.8C588.78,585.84,620.33,599.21,651.99,613.4"/>
		<path class="st10" d="M642.84,632.57c-2.81,2.81-5.22,3.75-7.21,2.81c-1.06-0.35-2.64-1.82-4.75-4.4
			c0.47-2.46,2.29-6.04,5.45-10.73l4.75-6.33C643.78,622.96,644.36,629.17,642.84,632.57"/>
		<path class="st19" d="M634.93,642.25c-2.81,2.81-5.22,3.75-7.21,2.81l-4.75-4.4c0.47-2.46,2.29-6.04,5.45-10.73l4.75-6.33
			C635.86,632.63,636.45,638.84,634.93,642.25"/>
		<path class="st10" d="M634.93,631.69c-2.11,1.41-3.81,3.4-5.1,5.98l-2.64,7.21l-4.22-4.22c0.47-2.46,2.29-6.04,5.45-10.73
			l4.75-6.33L634.93,631.69"/>
		<path class="st19" d="M623.49,654.73c-5.04,5.04-9.79,4.92-14.25-0.35c0.47-2.46,2.64-6.8,6.51-13.02l5.63-8.62
			C624.31,644,625.02,651.33,623.49,654.73"/>
		<path class="st10" d="M621.38,632.75l0.35,1.93c-3.4,10.08-5.34,17.94-5.8,23.57c-2.23-0.12-4.46-1.41-6.68-3.87
			c0.47-2.46,2.64-6.8,6.51-13.02L621.38,632.75"/>
		<path class="st8" d="M476.97,299.26c8.68-26.38,15.24-42.21,19.7-47.49c5.86-6.92,11.2-8.85,16.01-5.8
			c4.22,2.58,7.45,8.33,9.67,17.24c2.58,10.55,12.25,39.17,29.02,85.84l9.15,1.23c9.73,2.11,23.34,6.21,40.81,12.31
			c18.18,6.33,35.47,17.88,51.89,34.65c7.97,8.09,18.35,20.81,31.13,38.17c6.45,8.79,11.14,16.89,14.07,24.27
			c2.23,5.51,3.58,11.32,4.05,17.41c1.52,18.29,0.35,34.24-3.52,47.84c0.94,15.01,0.76,26.38-0.53,34.12
			c-1.64,9.26-5.34,17.18-11.08,23.75c-9.03,10.08-18.23,18.88-27.61,26.38c-11.14,8.79-19.99,13.6-26.56,14.42
			c-6.1,0.7-11.32-0.64-15.65-4.05c-7.86-7.27-16.3-14.66-25.33-22.16c-16.53-13.6-42.39-23.57-77.57-29.9l-32.01-6.16
			c-9.03-2.46-14.07-5.8-15.13-10.03l-48.72-40.1c-34.47-27.91-56.52-44.44-66.14-49.6c2.7-20.4,21.11-45.61,55.23-75.63
			c17.12-14.89,33.95-27.79,50.48-38.7C461.73,342.47,467.95,326.46,476.97,299.26"/>
		<path class="st9" d="M511.27,245.26c-3.99,0.94-6.86,7.09-8.62,18.47c-0.7,5.04-1.7,17.77-2.99,38.17
			c-2.35,38.7-8.38,61.91-18.12,69.65c-14.42,11.49-26.62,34.3-36.59,68.42c-10.67,36-12.2,64.55-4.57,85.66
			c-9.5,3.75-25.5-4.92-48.02-26.03c-22.4-23.1-35.65-35.76-39.75-37.99c2.7-20.4,21.11-45.61,55.23-75.63
			c17.12-14.89,33.95-27.79,50.48-38.7c3.4-4.81,9.62-20.81,18.64-48.02c8.68-26.38,15.24-42.21,19.7-47.49
			C501.95,245.67,506.82,243.5,511.27,245.26"/>
		<path class="st8" d="M744.15,309.81c2.81,5.63,2.05,12.49-2.29,20.58c-16.06,27.09-30.55,52.47-43.45,76.16
			c-25.09,45.97-38.7,76.81-40.81,92.52c-1.17,8.91-7.56,9.97-19.17,3.17c-10.91-6.33-22.1-16.65-33.6-30.96
			c-12.31-15.36-19.93-29.32-22.87-41.86c-3.4-14.89,0.94-24.62,13.02-29.2c22.28-8.44,49.78-24.62,82.49-48.55
			c17.59-12.78,35.24-26.74,52.94-41.86C736.77,304.18,741.34,304.18,744.15,309.81"/>
		<path class="st9" d="M730.43,309.81l1.23-1.06c-18.29,31.66-41.69,59.74-70.18,84.25c-32.25,27.56-55.88,35.53-70.88,23.92
			c-5.98-4.69-8.38-8.62-7.21-11.78c0.94-2.58,4.16-4.4,9.67-5.45c16.65-3.05,43.03-17.65,79.15-43.8
			C693.2,340.53,712.61,325.17,730.43,309.81"/>
		<path class="st19" d="M537.48,477.79c16.18,19.11,25.5,33.42,27.97,42.92c-12.78-2.11-28.55-8.33-47.31-18.64
			c-17-9.38-26.33-15.95-27.97-19.7c-1.41-3.17,0-8.44,4.22-15.83c4.22-7.74,9.44-13.9,15.65-18.47
			C515.79,452.87,524.93,462.78,537.48,477.79"/>
		<path class="st10" d="M533.79,484.82c-10.67-11.02-21.99-19.64-33.95-25.86l4.75-5.98c1.76-2.23,3.58-3.87,5.45-4.92
			c8.21,6.68,17.82,16.65,28.85,29.9c14.77,17.47,23.63,31.72,26.56,42.74l-7.04-1.58C552.08,506.81,543.87,495.38,533.79,484.82"/>
		<path class="st8" d="M436.17,327.4c13.95,13.13,29.9,24.21,47.84,33.24c7.97,3.99,12.43,7.74,13.37,11.26
			c0.82,3.28-1.17,5.86-5.98,7.74c-11.37,4.22-26.21,3.28-44.5-2.81c-10.79-3.64-54.64-12.08-131.57-25.33l-112.22-19l-4.4-7.21
			c-4.1-5.51-8.97-10.26-14.6-14.25c-6.45-4.57-9.91-8.15-10.38-10.73c-0.35-1.99,1.29-6.57,4.92-13.72
			c3.17-6.33,2.93-17.18-0.7-32.54c-3.28-14.19-7.56-25.04-12.84-32.54c-2.58-3.75-9.73-10.32-21.46-19.7
			c-9.26-7.39-13.43-12.55-12.49-15.48c2.93-8.56,16.48-9.03,40.63-1.41c17.24,5.39,46.79,12.78,88.65,22.16l1.23-26.91
			c1.52-18.29,3.69-28.03,6.51-29.2c1.76-0.7,4.22,2.52,7.39,9.67c5.28,11.84,13.19,23.57,23.75,35.18
			c12.2,13.37,25.97,24.27,41.33,32.72l32.19,14.25c8.33,3.52,14.19,7.39,17.59,11.61c3.75,4.46,8.21,13.43,13.37,26.91
			C410.02,297.38,420.81,312.74,436.17,327.4"/>
		<path class="st9" d="M468.88,378.58c4.34,3.87,2.64,5.92-5.1,6.16l-19.88-1.41c-6.57-0.47-86.83-17.41-240.8-50.83l-4.4-7.21
			c-4.1-5.51-8.97-10.26-14.6-14.25c-6.45-4.57-9.91-8.15-10.38-10.73c-0.35-1.99,1.29-6.57,4.92-13.72
			c3.17-6.33,2.93-17.18-0.7-32.54c-3.28-14.19-7.56-25.04-12.84-32.54c-2.58-3.75-9.73-10.32-21.46-19.7
			c-9.26-7.39-13.43-12.55-12.49-15.48c2.23-6.45,10.14-8.38,23.75-5.8c-3.28,3.52,7.5,9.85,32.36,19
			c25.21,9.38,44.27,13.54,57.16,12.49c4.93-0.35,8.03-1.35,9.32-2.99l0.88-3.17l5.8,1.23l1.23-26.91
			c1.52-18.29,3.69-28.03,6.51-29.2c1.17-0.47,2.17-0.29,2.99,0.53l2.46,4.57c-4.92,7.27-1.41,19.64,10.55,37.11
			c11.14,16.18,23.33,28.67,36.59,37.46c7.86,6.1,19.76,12.02,35.71,17.77c10.91,3.87,18.18,10.14,21.81,18.82
			c5.04,11.84,17.12,29.55,36.23,53.12C433.88,344.28,452,363.69,468.88,378.58"/>
		<path class="st12" d="M323.77,254.05c20.05,5.16,42.51,21.17,67.37,48.02c22.87,24.74,40.16,49.84,51.89,75.28
			c-24.51,7.97-43.86,21.22-58.04,39.75c-4.46,5.75-8.09,11.67-10.91,17.77l-2.99,7.56c-3.28,2.7-9.97,4.05-20.05,4.05
			c-20.17,0.12-47.37-6.63-81.61-20.23c-32.48-12.9-53.82-34.42-64.02-64.55c-8.44-24.62-8.5-48.55-0.18-71.76
			c7.15-20.17,21.34-33.24,42.57-39.22C267.96,245.2,293.28,246.31,323.77,254.05"/>
		<path class="st13" d="M443.03,377.35l-10.38,3.87c-33.89-30.02-69.36-51.54-106.41-64.55c-41.39-14.42-83.2-17.59-125.41-9.5
			c1.17-6.57,2.64-12.31,4.4-17.24c7.04-19.82,20.52-32.77,40.46-38.87c20.05-6.21,46.08-5.22,78.1,2.99
			c20.05,5.16,42.51,21.17,67.37,48.02C414.01,326.81,431.3,351.91,443.03,377.35"/>
		<path class="st14" d="M310.23,280.26c21.11-2.7,43.74,1,67.89,11.08c17.35,14.19,32.66,31.37,45.91,51.54
			c9.15,13.95,15.3,25.68,18.47,35.18c-21.22,6.33-38.11,16.36-50.66,30.08c-3.87,4.22-7.09,8.56-9.67,13.02l-2.64,5.45
			c-39.4,2.58-71.76-10.2-97.09-38.34c-10.55-11.84-17.77-24.51-21.63-37.99c-3.75-13.6-3.46-25.62,0.88-36.06
			C269.89,294.62,286.07,283.31,310.23,280.26"/>
		<path class="st15" d="M315.86,279.73c19.82-1.29,40.57,2.58,62.27,11.61c17.35,14.19,32.66,31.37,45.91,51.54
			c9.15,13.95,15.3,25.68,18.47,35.18l-13.02,4.57c-19.82-22.16-44.56-40.1-74.23-53.82c-27.44-12.78-56.81-20.93-88.12-24.45
			C277.34,289.46,293.58,281.26,315.86,279.73"/>
		<path class="st19" d="M557.01,663.88c-3.17,3.17-6.39,4.4-9.67,3.69c-3.28-0.7-5.16-3.05-5.63-7.04
			c0.47-2.46,3.28-6.57,8.44-12.31l7.56-7.92C558.76,652.62,558.53,660.48,557.01,663.88"/>
		<path class="st19" d="M538.89,654.73c-3.05,3.05-6.33,3.58-9.85,1.58c-3.4-1.99-4.98-4.87-4.75-8.62
			c0.47-2.35,3.75-6.16,9.85-11.43l8.97-7.39C542.88,641.78,541.47,650.4,538.89,654.73"/>
		<path class="st19" d="M523.06,642.25c-3.05,3.05-6.33,3.4-9.85,1.06c-3.4-2.11-5.1-5.45-5.1-10.03c0.47-2.46,3.87-6.39,10.2-11.78
			c3.17-2.81,6.27-5.34,9.32-7.56C526.11,629.41,524.58,638.84,523.06,642.25"/>
		<path class="st19" d="M506.88,626.77c-3.17,3.05-6.39,3.34-9.67,0.88c-3.4-2.58-5.22-6.57-5.45-11.96
			c0.47-2.35,4.05-6.39,10.73-12.14l9.67-7.92C510.16,612.87,508.4,623.25,506.88,626.77"/>
		<path class="st19" d="M490.52,598.8c-3.52,3.64-7.92,4.16-13.19,1.58c-5.63-2.93-8.62-8.68-8.97-17.24
			c1.29-4.81,6.51-12.9,15.65-24.27c4.57-5.75,9.03-10.96,13.37-15.65C496.32,574.18,494.04,592.7,490.52,598.8"/>
		<path class="st10" d="M541.7,660.54c0.59-2.81,4.4-8.03,11.43-15.65c-1.41,2.93-2.58,6.63-3.52,11.08l-2.11,11.61
			C543.99,666.99,542.05,664.64,541.7,660.54"/>
		<path class="st10" d="M524.29,647.7c0.59-3.17,5.34-8.21,14.25-15.13c-4.81,6.8-7.5,14.89-8.09,24.27
			c-1.88-0.59-3.4-1.76-4.57-3.52C524.7,651.57,524.17,649.69,524.29,647.7"/>
		<path class="st10" d="M508.11,633.27c0.59-2.81,5.39-7.92,14.42-15.3l-6.16,11.26c-2.93,4.81-4.69,8.91-5.28,12.31
			C509.1,639.2,508.11,636.44,508.11,633.27"/>
		<path class="st10" d="M506.52,600.03l-7.39,11.43c-3.05,4.69-4.51,9.15-4.4,13.37c-1.76-2.35-2.76-5.39-2.99-9.15
			C492.34,612.87,497.26,607.65,506.52,600.03"/>
		<path class="st10" d="M497.38,543.22l-0.18,2.99c-11.96,15.24-18.76,33.13-20.4,53.65c-5.28-2.93-8.09-8.5-8.44-16.71
			c1.29-4.81,6.51-12.9,15.65-24.27C488.58,553.13,493.04,547.91,497.38,543.22"/>
		<path class="st1" d="M520.07,459.14c9.97,9.73,17.77,18.94,23.39,27.62c-1.64,8.79-7.45,13.19-17.41,13.19
			c-5.28,0-9.79-2.11-13.54-6.33c-3.75-4.22-5.63-9.26-5.63-15.13c0-3.75,0.88-7.45,2.64-11.08
			C511.98,462.48,515.49,459.73,520.07,459.14"/>
		<path class="st1" d="M-132.14,735.64l7.56-4.92c21.81,10.44,46.14,19.29,73,26.56c21.69,5.86,46.73,11.08,75.11,15.65l-0.35,7.74
			C-30.77,776.45-82.54,761.44-132.14,735.64"/>
		<path class="st1" d="M584.09,896.94c20.4,3.28,40.28,9.56,59.63,18.82l-5.28,1.93c-2.23,0.59-3.87,1.35-4.92,2.29
			c-15.95-7.27-32.13-12.72-48.55-16.36L584.09,896.94"/>
		<path class="st1" d="M479.44,1167.63c-3.99-13.72-1.11-35.35,8.62-64.9c1.41-0.47,5.63-3.52,12.66-9.15
			c-10.32,29.32-14.83,50.54-13.54,63.67c1.29,13.02,8.62,22.34,21.99,27.97c28.38,11.96,56.93,16.89,85.66,14.78
			c24.51-1.76,40.16-6.86,46.96-15.3l-4.05,10.91c-7.39,11.49-28.08,15.95-62.09,13.37c-30.14-2.46-53.82-7.86-71.06-16.18
			C490.87,1185.99,482.49,1177.6,479.44,1167.63"/>
		<path class="st1" d="M749.25,1078.28c7.39,10.44,13.25,24.21,17.59,41.33c3.75,15.13,5.16,26.85,4.22,35.18l-9.85-6.16
			c0.47-22.51-4.4-43.39-14.6-62.62L749.25,1078.28"/>
		<path class="st1" d="M723.93,1224.1c26.38,2.46,49.54,2.93,69.48,1.41c22.51-1.76,35.06-5.86,37.64-12.31
			c1.99-4.93-2.46-11.67-13.37-20.23c-30.02-24.04-53.12-38.99-69.3-44.85c-11.73-4.22-23.69-4.46-35.88-0.7
			c-15.13,4.57-30.31,11.78-45.56,21.63c-15.83,10.2-24.39,18.76-25.68,25.68c-0.47,2.46,0.35,4.57,2.46,6.33
			c8.79,7.04,19.88,12.31,33.24,15.83C688.1,1219.82,703.76,1222.22,723.93,1224.1 M752.6,1142.31
			c16.65,6.45,40.69,22.05,72.12,46.79c6.57,5.16,11.14,10.61,13.72,16.36c2.35,5.39,2.7,10.08,1.06,14.07
			c-2.46,6.21-12.37,10.85-29.73,13.9l-59.1,2.64c-55-2.46-93.63-12.49-115.91-30.08c-3.99-3.05-5.51-6.98-4.57-11.78
			c1.76-8.79,11.78-19,30.08-30.61c16.42-10.44,32.77-18.12,49.07-23.04C723.99,1136.21,738.41,1136.79,752.6,1142.31"/>
		<path class="st1" d="M738.7,1092.88c6.21-10.32,11.14-28.55,14.77-54.7c3.99-28.85,2.87-48.78-3.34-59.8
			c-8.09-14.19-20.34-29.43-36.76-45.73c-17.24-17.12-29.2-25.33-35.88-24.62c-29.08,3.17-47.02,13.72-53.82,31.66l-17.24,39.4
			c-5.75,12.43-11.08,24.74-16.01,36.94c-2.81,7.15-1.41,15.83,4.22,26.03c4.34,7.62,10.85,15.77,19.52,24.45
			c2.23,2.23,4.63,5.69,7.21,10.38l7.21,14.6c11.84,23.33,20.87,34.59,27.09,33.77c12.9-1.41,28.03-5.04,45.38-10.91
			C721.82,1107.3,734.36,1100.15,738.7,1092.88 M717.77,924.2c19.11,17.71,33.13,35.18,42.04,52.42
			c6.45,12.31,7.27,33.42,2.46,63.32c-4.34,26.97-9.97,46.14-16.89,57.52c-5.28,8.79-20.11,17.06-44.5,24.8
			c-17.71,5.51-31.95,8.85-42.74,10.03c-6.57,0.7-12.25-1.7-17.06-7.21c-3.99-4.46-9.91-14.42-17.77-29.9
			c-6.92-13.37-11.78-21.52-14.6-24.45c-11.37-11.37-19.29-21.34-23.75-29.9c-4.81-9.38-5.75-17.65-2.81-24.8
			c1.29-3.4,4.1-9.56,8.44-18.47l10.73-22.69l17.77-41.33c2.7-7.27,8.56-14.01,17.59-20.23c10.55-7.39,22.92-11.84,37.11-13.37
			l0.88-1.06C684.06,897.82,698.42,906.26,717.77,924.2"/>
		<path class="st1" d="M774.23,932.29l5.63,1.58c3.87,16.3,7.45,27.67,10.73,34.12c1.88,3.64,3.4,5.34,4.57,5.1
			c3.4-0.7,7.86-4.4,13.37-11.08c4.92-5.86,8.68-11.37,11.26-16.53l4.4,2.29l-11.26,18.12c-6.68,9.38-12.37,14.54-17.06,15.48
			c-3.64,0.7-7.09-2.81-10.38-10.55c-3.05-7.04-6.57-19-10.55-35.88L774.23,932.29"/>
		<path class="st1" d="M902.98,905.03l4.4,0.7l0.35,22.87c-0.35,15.36-2.05,23.39-5.1,24.1c-3.28,0.94-8.44,0.12-15.48-2.46
			l-10.91-4.75l1.93-4.57c10.67,3.99,18,5.51,21.99,4.57C901.81,945.01,902.75,931.53,902.98,905.03"/>
		<path class="st1" d="M768.95,924.02c23.8,14.31,45.03,21.69,63.67,22.16l4.05,5.28c-23.1,0.35-46.38-6.51-69.83-20.58
			c-11.73-7.04-20.46-14.89-26.21-23.57c-4.81-7.27-8.27-16.48-10.38-27.61l-6.16-22.34l-7.92-18.82
			c-12.08-21.93-19.93-39.63-23.57-53.12c-3.99-14.77-3.93-27.79,0.18-39.05l5.63,1.76c-3.75,10.55-1.52,26.62,6.68,48.19
			c4.46,11.96,11.61,27.15,21.46,45.56c3.52,6.45,6.8,16.3,9.85,29.55c3.28,13.13,6.45,22.63,9.5,28.49
			C751.07,909.78,758.75,917.81,768.95,924.02"/>
		<path class="st1" d="M764.91,629.76c20.52,6.33,38.4,19.11,53.65,38.34c13.37,16.89,31.19,38.23,53.47,64.02
			c18.06,21.69,32.01,42.27,41.86,61.74c18.76,36.7,20.05,70.18,3.87,100.43c-8.91,16.65-22.4,31.13-40.46,43.45l1.41-8.09
			l3.34-3.17c19.35-19.23,31.02-37.35,35-54.35c4.57-20.29,0.41-44.97-12.49-74.05c-7.97-17.94-21.93-39.28-41.86-64.02
			c-22.4-26.38-37.88-45.03-46.44-55.93c-14.77-18.76-32.19-32.07-52.24-39.93c-20.4-7.86-37.11-7.5-50.13,1.06l-5.28-2.64
			C724.57,625.24,743.33,622.96,764.91,629.76"/>
		<path class="st1" d="M860.77,967.29c1.52-0.7,3.4-3.22,5.63-7.56l6.68-18.12c1.99-7.04,3.17-13.13,3.52-18.29
			c0.35-4.46,0.12-7.21-0.7-8.27c-2.23-3.05-6.92-4.75-14.07-5.1c-7.27-0.23-14.31,1-21.11,3.69c-3.4,1.17-6.27,2.76-8.62,4.75
			c-3.64,2.81-5.28,5.8-4.93,8.97c0.59,6.1,3.87,13.13,9.85,21.11c5.51,7.5,11.2,13.07,17.06,16.71
			C857.14,967.06,859.36,967.76,860.77,967.29 M863.76,904.15c7.62,0.82,13.02,3.46,16.18,7.92c4.34,5.63,3.46,17.24-2.64,34.83
			c-5.75,16.89-10.91,26.27-15.48,28.14c-3.52,1.41-10.79-3.17-21.81-13.72c-12.08-11.61-18.64-22.75-19.7-33.42
			c-0.35-3.64,1.7-7.5,6.16-11.61c3.99-3.75,8.97-6.8,14.95-9.15C848.93,904.32,856.37,903.33,863.76,904.15"/>
		<path class="st1" d="M749.43,684.81c3.99,16.77,4.34,31.43,1.06,43.97c-2.81,11.14-7.97,18.94-15.48,23.39
			c-9.15,5.51-20.17,6.04-33.07,1.58c-7.15-2.46-13.43-5.75-18.82-9.85l2.99-4.05c5.16,3.64,10.49,6.45,16.01,8.44
			c10.79,3.75,20.17,3.28,28.14-1.41c9.15-5.51,14.54-14.72,16.18-27.62c1.29-9.85,0.35-21.4-2.81-34.65
			c-2.81-11.73-7.5-21.46-14.07-29.2c-6.8-8.21-16.12-14.83-27.97-19.88l-0.53-5.1c12.2,2.81,22.75,9.56,31.66,20.23
			C740.81,660.42,746.38,671.8,749.43,684.81"/>
		<path class="st1" d="M661.31,607.07c0.82-1.52,3.52-1.93,8.09-1.23c4.46,0.82,8.85,2.4,13.19,4.75
			c10.2,5.86,18.18,15.13,23.92,27.79c6.57,14.31,8.91,30.49,7.04,48.55c-1.29,14.07-4.87,26.85-10.73,38.34
			c-5.39,10.2-12.02,18.53-19.88,24.98c-15.13,11.96-27.32,14.83-36.59,8.62l0.53-5.1c13.13,1.76,24.1-1.41,32.89-9.5
			c15.95-14.54,25.15-34.12,27.62-58.75c1.64-16.65-0.64-31.6-6.86-44.85c-5.51-11.49-12.96-19.88-22.34-25.15
			c-3.28-1.88-7.39-3.22-12.31-4.05c-3.87-0.7-6.16-0.7-6.86,0L661.31,607.07"/>
		<path class="st1" d="M864.46,213.42c6.21-2.11,9.91-1.23,11.08,2.64c1.29,4.34-1.76,10.73-9.15,19.17
			c-8.56,9.85-15.54,20.4-20.93,31.66c-3.4,7.15-9.32,22.1-17.77,44.85l2.46-20.76c6.21-16.77,11.61-29.08,16.18-36.94
			c3.05-5.28,8.15-11.96,15.3-20.05c5.51-6.21,8.09-10.73,7.74-13.54l-8.79-0.18l-17.77,6.86c-7.86,2.46-14.36,4.05-19.52,4.75
			c-7.74,0.94-11.96,0.88-12.66-0.18c-0.59-0.94,2.81-2.35,10.2-4.22c11.96-23.69,18.12-40.16,18.47-49.43
			c0.23-8.44-3.87-9.09-12.31-1.93c-13.6,11.73-30.49,23.86-50.66,36.41c-20.52,12.78-38.81,22.46-54.88,29.02
			c-18.76,7.86-31.19,14.19-37.29,19c-6.92,5.51-11.37,13.07-13.37,22.69c-3.52,16.42-11.55,33.6-24.1,51.54
			c-11.84,17-23.04,28.44-33.6,34.3l-4.93-3.17c11.37-6.33,22.81-18.53,34.3-36.59c11.84-18.64,19.17-36.59,21.99-53.82
			c1.64-9.97,8.56-18.06,20.76-24.27c6.92-3.64,18.12-8.27,33.6-13.9c15.95-7.15,31.9-16.06,47.84-26.74l59.98-44.15
			c6.33-4.81,11.43-5.8,15.3-2.99c3.4,2.35,5.1,6.45,5.1,12.31c0,4.92-2.29,12.61-6.86,23.04l-13.02,27.09
			c8.44-1.52,16.77-3.93,24.98-7.21L864.46,213.42"/>
		<path class="st1" d="M744.86,264.08c39.17-18.64,65.67-22.22,79.5-10.73c11.61,9.97,13.13,32.07,4.57,66.31
			c-11.37,44.79-27.97,77.63-49.78,98.5c-16.65,15.95-43.56,30.08-80.73,42.39l-2.11-5.63c38.34-12.78,65.96-28.32,82.85-46.61
			c16.53-18.18,30.9-48.19,43.09-90.06c9.03-31.31,8.27-51.48-2.29-60.51c-12.08-10.08-36.35-6.45-72.82,10.91
			c-21.69,10.55-39.81,23.69-54.35,39.4c-14.66,15.83-27.03,35.76-37.11,59.8l-7.04,2.64C666,322.3,698.07,286.83,744.86,264.08"/>
		<path class="st1" d="M756.11,260.91c9.97-4.34,18-4.28,24.1,0.18c6.68,4.81,9.09,14.07,7.21,27.79
			c-3.52,26.74-11.61,50.77-24.27,72.12c-17.12,29.08-41.22,49.84-72.29,62.27l0.7-5.1c30.96-14.07,54.35-36.47,70.18-67.19
			c8.56-16.53,15.13-37.11,19.7-61.74c2.11-11.96,0.06-19.93-6.16-23.92c-5.86-3.75-14.36-3.28-25.5,1.41L756.11,260.91"/>
		<path class="st1" d="M148.41,350.97l80.56,49.43L240.93,412l-33.6-17.41c-25.33-13.72-45.15-25.68-59.45-35.88
			c-6.33-4.57-10.91-6.21-13.72-4.92c-3.28,1.52-2.87,6.86,1.23,16.01c4.1,9.15,13.25,26.27,27.44,51.36
			c11.96,23.22,17.24,40.87,15.83,52.94l-7.39-1.76c-1.29-16.06-5.98-32.31-14.07-48.72l-29.02-53.3
			c-5.04-9.38-5.69-16.53-1.93-21.46C130.23,343.58,137.62,344.28,148.41,350.97"/>
		<path class="st1" d="M26.69,614.45c3.87-1.41,8.27-0.06,13.19,4.05c15.13,12.78,28.73,23.57,40.81,32.36
			c12.66,9.03,20.17,13.25,22.51,12.66c1.52-1.06,2.76-6.04,3.69-14.95c0.94-8.68,1.41-19.17,1.41-31.48l-1.06-30.61l5.1-0.35
			l1.93,40.46c0.35,26.97-1.88,41.69-6.68,44.15c-6.1,3.05-28.73-12.02-67.89-45.2c-3.17-2.7-5.8-3.81-7.92-3.34
			c-4.46,0.59-4.57,14.42-0.35,41.51L39,711.55c2.58,17.24,3.99,30.66,4.22,40.28l8.44-4.22c3.99-1.29,2.05,1.88-5.8,9.5
			c-11.37,11.26-22.75,25.8-34.12,43.62c-12.43,19.7-19.93,36.23-22.51,49.6l-8.09,4.4c4.69-20.29,12.78-39.75,24.27-58.4
			c9.15-14.77,19.64-27.91,31.48-39.4c-2.23-31.19-6.74-62.85-13.54-94.98C17.37,633.45,18.48,617.62,26.69,614.45"/>
		<path class="st1" d="M158.26,640.13l4.93,1.41c-2.46,11.37-7.5,22.98-15.13,34.83l-27.97,36.94l-26.21,32.36
			C83.21,758.8,75.47,769,70.66,776.27l-8.44,1.23L79.46,752c6.45-9.15,13.19-18.12,20.23-26.91l35-44.5
			C147.35,663.35,155.21,649.87,158.26,640.13"/>
		<path class="st1" d="M585.32,840.12c2.58-5.75,7.68-14.66,15.3-26.74l8.62-6.86l8.44-7.04c-10.55,15.48-17.88,27.26-21.99,35.35
			c-5.86,11.61-10.38,24.74-13.54,39.4c-0.82,3.87-0.47,9.03,1.06,15.48l4.75,17.59c5.86,23.45,8.15,41.57,6.86,54.35
			c-2.7,25.21-15.42,54.41-38.17,87.59c-28.03,40.92-81.61,72.53-160.77,94.81c-34.47,9.73-69.01,16.01-103.6,18.82
			c-34.94,2.7-65.37,1.47-91.29-3.69l2.11-8.27c57.58,11.49,123.95,5.45,199.11-18.12c32.72-10.32,61.8-22.69,87.24-37.11
			c25.91-14.66,44.5-29.49,55.76-44.5c23.57-31.43,37.17-60.57,40.81-87.42c2.11-15.6,0.41-34.59-5.1-56.99L576,889.37
			c-1.41-6.1-1.64-11.32-0.7-15.65C578.23,859.65,581.57,848.45,585.32,840.12"/>
		<path class="st1" d="M453.05,1117.86l-17.41,7.21c-41.86,8.68-88.18,7.97-138.95-2.11c-20.05-3.99-37.82-8.91-53.3-14.78
			c-14.66-5.63-24.16-10.91-28.49-15.83l3.52-6.16c3.52,3.99,12.9,8.74,28.14,14.25c16.77,6.1,35.65,11.2,56.64,15.3
			C359.01,1126.89,408.96,1127.59,453.05,1117.86"/>
		<path class="st1" d="M573.71,917.69l0.18-23.75c0.23-10.79,0.88-18.12,1.93-21.99l5.1,17.06c-1.29,4.81-1.93,11.37-1.93,19.7
			l-0.35,17.41c-0.47,3.99-1.29,5.69-2.46,5.1l-3.69-5.28c-8.44-13.25-21.87-24.74-40.28-34.47c-17.24-9.26-34.47-14.77-51.71-16.53
			c-10.55-0.94-26.27,1.76-47.14,8.09c-18.53,5.63-38.7,13.37-60.51,23.22l-32.19,15.13c-12.66,5.98-21.87,9.79-27.62,11.43
			c-14.42,4.46-31.72,0.82-51.89-10.91c-17.59-10.2-28.79-20.11-33.6-29.73l1.93-5.1c3.4,6.8,12.9,14.89,28.49,24.27
			c20.4,12.2,39.22,15.65,56.46,10.38c8.56-2.7,28.26-10.91,59.1-24.62c52.06-23.45,87.83-33.89,107.29-31.31
			c16.42,2.35,32.89,7.68,49.43,16.01C549.62,891.66,564.1,903.62,573.71,917.69"/>
		<path class="st1" d="M222.46,752l4.75,8.62c-3.75,11.84-6.57,19.47-8.44,22.87c-4.57,8.33-11.73,15.13-21.46,20.4l-1.58-4.75
			c5.75-1.99,11.26-8.38,16.53-19.17c2.7-5.75,5.86-14.31,9.5-25.68L222.46,752"/>
		<path class="st1" d="M529.74,688.5l-12.14,4.57c-5.51,2.11-9.62,4.28-12.31,6.51c-0.12-1.52-0.88-3.34-2.29-5.45
			c4.1-3.64,9.73-6.92,16.89-9.85L529.74,688.5"/>
		<path class="st1" d="M640.03,653.5l3.87-3.17c12.2,12.2,18.35,29.61,18.47,52.24c0.12,20.99-4.81,41.51-14.77,61.56
			c-9.5,19-23.16,35-40.98,48.02c-13.37,9.73-26.56,16.3-39.58,19.7c-9.03,2.23-24.51-0.94-46.44-9.5
			c-19.7-7.74-35.41-15.83-47.14-24.27c-1.17-0.82-2.05-2.05-2.64-3.69l4.22-2.46l1.41,2.11c7.86,5.63,22.46,12.14,43.8,19.52
			c23.1,8.09,38.34,11.14,45.73,9.15c11.84-3.05,23.63-8.68,35.35-16.89c16.77-11.61,29.61-26.38,38.52-44.32
			c10.55-20.99,15.83-41.1,15.83-60.33C655.68,682.06,650.46,666.17,640.03,653.5"/>
		<path class="st1" d="M346.64,591.94l3.34-3.87c6.1,5.39,16.3,12.55,30.61,21.46l41.69,24.45c26.38,15.36,44.68,26.44,54.88,33.24
			c16.77,11.26,26.15,19.82,28.14,25.68c3.4,10.2,0.76,28.38-7.92,54.53c-7.15,21.58-13.9,37.29-20.23,47.14
			c-4.69,7.62-30.08,16.24-76.16,25.86c-44.44,9.38-73.58,13.07-87.42,11.08c-10.67-1.52-27.62-11.96-50.83-31.31
			c-19.11-15.95-32.01-28.2-38.7-36.76c-6.68-8.56-10.26-24.21-10.73-46.96c-0.47-21.81,1.88-37.82,7.04-48.02l7.39,0.35
			c-5.04,10.2-7.04,25.39-5.98,45.56c0.94,19.7,4.05,33.77,9.32,42.21c6.8,10.79,19.58,23.8,38.34,39.05
			c20.29,16.42,35.88,25.39,46.79,26.91c13.02,1.76,41.22-1.76,84.6-10.55c44.21-9.03,68.19-16.59,71.94-22.69
			c6.33-10.2,12.84-25.5,19.52-45.91c7.86-24.04,10.32-40.57,7.39-49.6c-1.64-4.81-12.9-13.49-33.77-26.03l-57.69-32.89
			C382.75,620.08,362.23,605.78,346.64,591.94"/>
		<path class="st1" d="M175.85,779.09l3.34,1.23c11.49,4.34,21.69,14.6,30.61,30.78c6.57,11.96,12.2,26.62,16.89,43.97
			c9.62,34.71,13.78,67.43,12.49,98.15c-1.29,31.78-8.21,53.76-20.76,65.96l-2.64-8.27c8.79-11.02,13.54-32.48,14.25-64.38
			c0.59-32.01-3.11-62.5-11.08-91.46c-5.04-18.29-11.26-33.13-18.64-44.5c-7.5-11.61-15.77-19.05-24.8-22.34l-3.17-1.41
			c-20.4-7.62-37.93-11.9-52.59-12.84c-26.97-1.76-52.47,5.04-76.51,20.4c-25.21,15.95-47.31,44.03-66.31,84.25
			c-6.92,14.77-12.31,28.79-16.18,42.04c-3.52,12.08-4.69,19.47-3.52,22.16l-5.8,2.81c-1.41-3.05-1.11-10.08,0.88-21.11
			c2.35-12.9,6.51-26.44,12.49-40.63c16.65-39.63,41.69-71.29,75.11-94.98c24.27-17.24,50.89-25.04,79.85-23.39
			C135.57,766.48,154.27,771,175.85,779.09"/>
		<path class="st1" d="M70.14,1308.52c25.45-6.68,41.92-18.29,49.43-34.83l8.09,1.76c-8.09,19.82-26.27,33.95-54.53,42.39
			c-27.56,8.21-56.93,8.91-88.12,2.11c-28.14-6.21-51.42-21.99-69.83-47.31c-7.04-9.85-12.25-19.7-15.65-29.55
			c-3.28-9.03-4.28-15.89-2.99-20.58l8.44-2.64c-1.06,3.99-0.23,10.03,2.46,18.12c3.05,9.03,7.8,17.94,14.25,26.74
			c16.89,23.33,39.28,38.05,67.19,44.15C17.96,1315.21,45.04,1315.09,70.14,1308.52"/>
		<path class="st1" d="M-76.03,976.44c7.15-12.55,18.29-25.74,33.42-39.58c14.19-13.02,27.32-22.63,39.4-28.85l4.4-2.99
			c-4.1,6.21-6.74,10.61-7.92,13.19c-11.61,7.97-23.1,17.47-34.47,28.49c-13.49,13.02-22.87,24.62-28.14,34.83
			c-4.69,8.91-12.49,36.06-23.39,81.44c-10.32,42.33-18.53,67.31-24.62,74.93c-2.46,3.17-8.38,8.91-17.77,17.24
			c-10.44,9.03-17.41,15.89-20.93,20.58c-5.75,7.62-7.15,14.36-4.22,20.23c4.92,9.73,12.84,17.3,23.75,22.69
			c9.73,4.69,18.06,6.21,24.98,4.57l11.43-4.22c22.16-9.03,40.57-15.13,55.23-18.29c28.85-6.1,55.64-5.57,80.38,1.58
			c13.95,4.1,28.2,11.78,42.74,23.04c11.02,8.56,20.87,18,29.55,28.32l7.92,8.79l7.92,5.8c9.62,4.34,23.86,6.8,42.74,7.39
			c18.88,0.7,30.66-0.88,35.35-4.75c3.99-3.4,5.28-8.79,3.87-16.18c-0.94-5.04-4.98-18.23-12.14-39.58l-1.76-5.1
			c-1.99-5.98-1.58-16.48,1.23-31.48l10.2-48.72l10.38-55.58c2.93-19.93,3.58-34.94,1.93-45.03c-1.99-12.2-4.28-22.16-6.86-29.9
			c-3.87-11.14-9.5-21.81-16.89-32.01l3.52-9.85c16.65,22.75,26.56,44.5,29.73,65.26c1.76,10.55,1.23,25.86-1.58,45.91l-10.55,57.16
			c-3.87,18.64-6.57,35.59-8.09,50.83c-1.76,16.89-1.7,28.26,0.18,34.12l1.76,5.1c6.68,19.82,10.2,34.06,10.55,42.74
			c0.23,8.91-2.64,15.83-8.62,20.76c-5.86,4.93-19.41,7.04-40.63,6.33c-20.87-0.59-36.53-3.28-46.96-8.09
			c-3.05-1.41-6.74-4.4-11.08-8.97l-10.2-11.96c-25.33-30.25-54.7-47.14-88.12-50.66c-29.32-3.28-65.14,3.69-107.47,20.93
			l-10.38,3.52l-8.62,2.11c-10.2,0.7-20.64-1.93-31.31-7.92c-11.49-6.33-19.93-14.89-25.33-25.68c-3.87-7.74-2.4-16.48,4.4-26.21
			c4.22-5.98,12.08-14.01,23.57-24.1l18.12-17.24c8.09-11.02,16.59-36.23,25.5-75.63C-90.45,1014.14-82.48,987.7-76.03,976.44"/>
		<path class="st1" d="M114.64,833.09c-23.33-4.69-38.93-4.16-46.79,1.58c-10.55,7.74-24.45,22.92-41.69,45.56
			C7.64,904.62-3.21,923.2-6.38,935.98c-4.46,17.59-4.81,41.51-1.06,71.76c4.1,33.65,11.9,55.05,23.39,64.2
			c12.78,10.2,29.78,17.3,51.01,21.28c19.35,3.52,34.47,3.46,45.38-0.18c5.39-1.76,12.37-6.98,20.93-15.65
			c9.26-9.5,17.88-20.64,25.86-33.42c20.76-33.42,30.37-66.02,28.85-97.8c-1.52-29.2-6.16-53.3-13.9-72.29
			c-5.86-14.42-12.31-23.8-19.35-28.14C147.35,841.3,133.99,837.07,114.64,833.09 M63.63,827.28c9.38-6.8,27.15-7.56,53.3-2.29
			c21.22,4.22,35.76,8.74,43.62,13.54c5.98,3.64,12.2,11.9,18.64,24.8c11.14,22.16,17.59,50.95,19.35,86.36
			c1.76,33.42-9.09,67.37-32.54,101.84c-8.91,13.02-18.53,24.39-28.85,34.12c-9.38,8.91-17.06,14.36-23.04,16.36
			c-12.2,4.1-29.08,3.75-50.66-1.06c-22.16-4.81-39.81-12.43-52.94-22.87c-13.02-10.44-22.05-33.95-27.09-70.53
			c-4.46-32.36-4.51-57.22-0.18-74.58c3.4-13.84,15.48-33.65,36.23-59.45C38.01,850.68,52.72,835.26,63.63,827.28"/>
		<path class="st1" d="M181.3,479.72c7.15-12.08,21.63-19.88,43.45-23.39c23.57-3.87,44.74,0,63.5,11.61
			c20.64,12.78,37.23,31.48,49.78,56.11c13.95,27.2,17.47,52.59,10.55,76.16c-7.04,23.92-22.28,43.86-45.73,59.8
			c-24.16,16.3-48.66,22.51-73.52,18.64c-26.03-3.99-47.67-13.54-64.9-28.67c-16.53-14.42-27.32-32.36-32.36-53.82l6.16-1.58
			c5.04,20.05,15.54,36.41,31.48,49.07c16.06,12.78,36.59,21.11,61.56,24.98c25.68,3.99,49.48-1.99,71.41-17.94
			c20.17-14.89,33.18-33.6,39.05-56.11c5.16-19.82,1.29-42.39-11.61-67.72c-12.31-24.04-27.85-41.86-46.61-53.47
			c-16.77-10.32-35.82-13.72-57.16-10.2c-19,3.17-31.66,9.56-37.99,19.17L181.3,479.72"/>
		<path class="st1" d="M239.17,502.24c9.26,8.79,15.07,21.05,17.41,36.76c2.23,16.18,0.06,31.25-6.51,45.2
			c-5.75,12.31-13.9,21.52-24.45,27.61c-10.44,5.98-22.05,8.21-34.83,6.68c-11.73-1.41-30.78-7.8-57.16-19.17
			c-24.51-11.26-37.64-17-39.4-17.24l6.86-6.16c1.17-0.12,13.13,5.45,35.88,16.71c25.09,11.61,43.27,18.12,54.53,19.52
			c11.26,1.29,21.4-0.7,30.43-5.98c9.03-5.39,16.12-13.66,21.28-24.8c5.98-12.66,8.27-25.97,6.86-39.93s-6.1-24.74-14.07-32.36
			c-7.86-7.39-23.92-15.95-48.19-25.68c-25.33-10.32-45.44-15.89-60.33-16.71l-3.87-8.62c15.24,0.82,36.23,6.39,62.97,16.71
			C213.08,485,230.61,494.14,239.17,502.24"/>
		<path class="st1" d="M-2.16,375.42c-43.03,8.56-85.54,23.98-127.52,46.26l-21.11,3.17c40.57-25.45,86.83-44.15,138.78-56.11
			c44.68-10.2,73.52-12.37,86.54-6.51c7.04,3.17,14.07,13.13,21.11,29.9c6.33,15.13,10.38,29.61,12.14,43.45l-7.21-2.11
			c-11.61-39.52-22.05-60.45-31.31-62.79C54.72,367.15,30.91,368.73-2.16,375.42"/>
		<path class="st1" d="M-134.6,416.4c44.44-10.2,87.3-14.54,128.58-13.02c43.74,1.52,78.27,9.5,103.6,23.92
			c28.26,15.95,41.92,38.4,40.98,67.37c-0.82,27.44-7.39,50.01-19.7,67.72c-10.67,15.36-23.69,24.92-39.05,28.67
			c-16.18,3.87-35.35,9.79-57.52,17.77c-25.21,9.15-43.39,17.35-54.53,24.62c-7.15,4.69-19.05,18.18-35.71,40.46
			c-19.23,25.56-31.19,40.69-35.88,45.38c-10.2,10.2-19.11,17-26.74,20.4c-13.25,6.1-28.61,6.92-46.08,2.46l10.2-10.2
			c11.73,4.34,22.87,3.46,33.42-2.64c5.16-3.05,13.66-10.49,25.5-22.34l32.19-40.1c15.95-20.05,30.02-34.01,42.21-41.86
			c11.84-7.62,29.43-15.54,52.77-23.75c21.22-7.62,39.75-12.96,55.58-16.01c13.95-2.81,26.03-11.73,36.23-26.74
			c11.61-17,17.82-38.46,18.64-64.38c0.82-26.27-12.08-46.61-38.7-61.03C67.5,420.09,34.9,413-6.38,411.83
			c-39.17-1.06-79.91,3.22-122.24,12.84c-43.15,9.73-80.27,23.39-111.34,40.98c-34.01,19.11-56.93,40.04-68.77,62.79l-13.19,9.5
			c2.7-13.02,10.91-26.79,24.62-41.33c12.9-13.6,28.67-25.86,47.31-36.76C-218.21,441.2-179.75,426.72-134.6,416.4"/>
		<path class="st1" d="M315.86,491.33c3.75-7.5,8.97-15.6,15.65-24.27c7.04-9.15,13.54-16.06,19.52-20.76l6.86,0.18
			c-3.64,2.7-10.96,11.55-21.99,26.56c-11.14,15.01-15.71,22.46-13.72,22.34c13.6-0.94,25.5-0.94,35.71,0
			c10.67,1.06,22.34,3.34,35,6.86l9.15-1.41c1.52,0.7-0.88,2.76-7.21,6.16c-6.1,3.4-13.31,9.97-21.63,19.7
			c-7.74,9.15-13.02,16.77-15.83,22.87l11.08,0.7l19.35,2.29c9.97,1.64,16.71,3.99,20.23,7.04l13.19,18.82
			c6.21,9.62,15.24,21.99,27.09,37.11c16.3,20.87,29.32,35.18,39.05,42.92c42.45,33.77,80.68,42.8,114.68,27.09
			c13.95-6.33,25.74-16.42,35.35-30.25c8.91-12.9,14.77-27.2,17.59-42.92l6.86-3.87c-2.46,18.53-8.56,35.18-18.29,49.95
			c-10.2,15.36-22.92,26.62-38.17,33.77c-36.35,17-76.69,8.27-121.01-26.21c-14.77-11.49-37.29-38.87-67.54-82.14
			c-7.74-10.91-12.78-17.41-15.13-19.52c-3.52-3.28-8.56-5.39-15.13-6.33l-28.14-1.06c-6.8,0.12-10.55-0.47-11.26-1.76
			c-0.59-1.17,0.64-4.57,3.69-10.2c8.68-15.71,20.64-28.67,35.88-38.87c-17.71-4.81-38.75-6.39-63.15-4.75l-9.67-1.06
			C312.87,499.13,313.51,496.14,315.86,491.33"/>
		<path class="st1" d="M423.33,535.3l-4.75,0.35c-0.35-0.94,0.82-2.4,3.52-4.4c5.04-3.52,10.49-6.51,16.36-8.97
			c5.86-2.35,9.91-3.22,12.14-2.64c3.87,1.17,8.27,7.62,13.19,19.35l10.91,29.9l-4.05,5.28l-9.15-25.68
			c-5.16-12.9-9.38-19.76-12.66-20.58C444.61,526.86,436.11,529.32,423.33,535.3"/>
		<path class="st1" d="M487.88,600.73l6.16,11.43l-1.41,3.34l-1.58,3.34l-9.15-18.12l3.52,0.53L487.88,600.73"/>
		<path class="st1" d="M649.7,614.28l2.81,1.41c-6.33,15.71-14.72,28.44-25.15,38.17c-14.89,14.07-33.13,21.17-54.7,21.28
			c-27.32,0.12-51.71-14.89-73.17-45.03l5.28-1.06l2.29,3.17c-0.59,3.99,0.12,7.04,2.11,9.15c1.88,1.88,4.51,2.76,7.92,2.64
			c16.89,17.94,35.35,26.5,55.41,25.68c17.47-0.7,31.78-4.57,42.92-11.61l5.63-2.29l2.81-4.05c5.04-4.46,10.03-10.32,14.95-17.59
			c2.58-1.29,3.64-2.99,3.17-5.1L649.7,614.28"/>
		<path class="st1" d="M641.26,623.6l2.99-1.76l0.53,6.86c0,2.46-0.64,4.34-1.93,5.63c-1.88,1.88-3.93,2.76-6.16,2.64l-2.46-0.7
			v-3.87c0.94,0.94,1.82,1.41,2.64,1.41c1.52,0.12,2.7-0.47,3.52-1.76l1.23-4.05L641.26,623.6"/>
		<path class="st1" d="M634.22,627.82l1.41-0.88l1.41,8.62c0.35,3.87,0.12,6.33-0.7,7.39l-3.17,2.99l-4.22,1.06
			c-1.17,0-2.4-0.53-3.69-1.58c-0.94-0.23-1.58-1.17-1.93-2.81l-1.23-4.4c1.41-4.22,3.05-7.74,4.92-10.55l4.05-0.35l-3.87,6.86
			l-2.46,6.16l1.76,2.46c0.94,0.7,1.82,1.06,2.64,1.06c1.64,0,2.99-0.64,4.05-1.93l0.88-4.05c0-2.7-0.47-5.92-1.41-9.67
			L634.22,627.82"/>
		<path class="st1" d="M621.91,642.6l-1.23-5.98c-0.35-0.59-2.11,1.99-5.28,7.74c-3.17,5.75-4.63,8.91-4.4,9.5l1.93,1.76l3.34,1.06
			l3.34-0.88l2.64-1.58l0.35-3.69L621.91,642.6 M607.84,654.38c-0.12-0.7,0.12-1.7,0.7-2.99l6.33-11.78l5.1-7.74l1.58-1.23
			c0.47,0,0.88,0.64,1.23,1.93l2.11,9.85l0.88,7.21c0,3.17-0.64,5.45-1.93,6.86c-1.99,2.46-4.57,3.58-7.74,3.34
			c-2.23,0-4.46-1-6.68-2.99C608.48,656.02,607.96,655.2,607.84,654.38"/>
		<path class="st1" d="M519.89,263.73c-3.87-11.73-8.27-17.24-13.19-16.53c-4.81,0.7-9.62,6.74-14.42,18.12
			c-2.46,5.75-7.45,20.11-14.95,43.09c-6.92,20.76-12.55,34.18-16.89,40.28l-4.22-2.99c2.11-2.93,4.81-8.68,8.09-17.24l8.79-25.68
			c5.98-19.58,10.44-33.18,13.37-40.81c6.45-16.77,13.72-24.68,21.81-23.75c7.27,0.82,12.9,7.68,16.89,20.58l12.14,38.87
			c6.8,20.99,12.61,37.17,17.41,48.55c11.02,0.94,24.86,4.51,41.51,10.73c17.35,6.57,31.78,13.84,43.27,21.81l-6.68,3.87
			c-8.56-6.45-19.93-12.61-34.12-18.47c-15.6-6.57-29.67-10.49-42.21-11.78c3.4,8.68,4.51,13.6,3.34,14.77
			c-1.17,1.29-4.34-3.99-9.5-15.83C543.05,334.43,532.91,305.24,519.89,263.73"/>
		<path class="st1" d="M700.53,483.41c-1.64-16.06-6.92-30.49-15.83-43.27c0.59-1.06,0.76-2.87,0.53-5.45
			c-0.23-1.99,0.29-3.05,1.58-3.17c12.43,17.12,19.41,33.71,20.93,49.78c1.29,14.42-1.76,30.19-9.15,47.31
			c-0.47-0.59-0.82-2.17-1.06-4.75l-1.23-6.33C700.53,508.74,701.94,497.37,700.53,483.41"/>
		<path class="st1" d="M697.19,503.82c7.04,28.96,8.38,49.54,4.05,61.74c-4.46,12.66-19.41,29.61-44.85,50.83
			c-11.49,9.73-20.76,14.01-27.79,12.84c-4.93-0.82-12.55-5.92-22.87-15.3c-13.72-12.43-24.68-20.76-32.89-24.98
			c-17-8.91-42.39-16.36-76.16-22.34l0.7-5.1c30.37,3.99,54.76,10.55,73.17,19.7c12.2,5.98,25.33,15.48,39.4,28.49
			c8.33,7.74,15.42,11.78,21.28,12.14c6.33,0.35,13.84-3.22,22.51-10.73c22.4-19.35,35.65-34.42,39.75-45.2
			c4.34-11.37,3.87-31.07-1.41-59.1c-1.88-9.97-2.05-15.3-0.53-16.01S694.96,494.44,697.19,503.82"/>
		<path class="st1" d="M484.36,558.52c0.47,0.59,0.23,1.41-0.7,2.46l-2.46,2.46c-2.81,0.23-6.04-1.35-9.67-4.75
			c-3.87-3.52-6.1-7.04-6.68-10.55l-4.4-10.38c2.93,6.45,6.8,11.55,11.61,15.3C476.15,556.35,480.26,558.17,484.36,558.52"/>
		<path class="st1" d="M721.99,311.92c10.44-8.33,18.18-9.73,23.22-4.22c4.92,5.16,4.87,12.61-0.18,22.34l-52.06,95.86
			c-13.49,25.68-23.98,48.96-31.48,69.83c-3.4,9.38-5.57,12.66-6.51,9.85c-0.82-2.7-0.41-7.04,1.23-13.02
			c4.22-15.36,19.41-47.2,45.56-95.51c13.02-24.16,25.62-46.79,37.82-67.89c4.46-8.33,5.22-14.07,2.29-17.24s-7.8-1.88-14.6,3.87
			c-20.99,17.35-42.16,33.65-63.5,48.9c-33.07,23.57-55.82,36.23-68.25,37.99l-8.79-0.7c-0.7-1.17,1.93-2.64,7.92-4.4
			c14.54-4.22,35.12-15.83,61.74-34.83L721.99,311.92"/>
		<path class="st1" d="M615.75,595.81c-0.7-1.06-0.7-1.82,0-2.29c0.82-0.47,1.88-0.18,3.17,0.88l3.17,3.52l1.58,6.86
			c0.23,1.29,0,1.82-0.7,1.58l-1.76-2.29l-2.46-4.4L615.75,595.81"/>
		<path class="st1" d="M651.11,593.7l-3.69,6.33l-1.23,1.93c-0.47,0.23-0.7-0.12-0.7-1.06l0.7-5.1l2.29-2.81
			c1.06-0.94,1.88-1.23,2.46-0.88C651.63,592.35,651.69,592.88,651.11,593.7"/>
		<path class="st1" d="M583.39,477.79c-0.59-3.05-0.35-4.34,0.7-3.87c0.94,0.47,1.64,2.05,2.11,4.75
			c1.76,8.44,2.64,14.72,2.64,18.82c0.12,10.91-2.7,19.29-8.44,25.15c-1.64,1.64-2.58,2.05-2.81,1.23
			c-0.23-0.82,0.23-2.17,1.41-4.05c2.46-3.52,3.99-10.73,4.57-21.63C584.15,489.16,584.09,482.36,583.39,477.79"/>
		<path class="st1" d="M537.66,481.66c-10.32-13.25-19.58-23.51-27.79-30.78c-5.16-4.57-7.68-7.62-7.56-9.15
			c0.12-1.52,3.64,0.59,10.55,6.33c7.5,6.21,16.18,15.48,26.03,27.79c10.79,13.37,19.35,25.91,25.68,37.64
			c3.87,7.39,5.45,11.43,4.75,12.14c-0.82,0.82-3.34-2.17-7.56-8.97C554.84,505.28,546.8,493.62,537.66,481.66"/>
		<path class="st1" d="M492.8,476.56c-1.29,3.52-2.35,5.34-3.17,5.45c-0.82,0.12-0.88-1.64-0.18-5.28c1.06-5.51,3.4-11.2,7.04-17.06
			c3.4-5.51,6.98-9.67,10.73-12.49l2.11,1.41c0.82,0.82,1.52,1.23,2.11,1.23C503.59,455.21,497.38,464.13,492.8,476.56"/>
		<path class="st1" d="M500.02,491.86c-3.64-2.58-5.45-4.28-5.45-5.1c0.12-0.94,1.99-0.23,5.63,2.11
			c8.68,5.63,18.41,11.02,29.2,16.18c12.9,6.33,24.74,11.02,35.53,14.07l1.58,3.17c-13.13-3.17-26.5-8.03-40.1-14.6
			C515.14,502.18,506.35,496.9,500.02,491.86"/>
		<path class="st1" d="M541.53,486.23l1.41,0.7l1.58,0.18c-1.29,4.46-3.87,8.03-7.74,10.73c-3.64,2.46-7.56,3.64-11.78,3.52
			c-6.1-0.23-11.08-2.35-14.95-6.33c-4.34-4.46-6.21-10.55-5.63-18.29c0.35-4.34,1.7-8.33,4.05-11.96c2.35-3.28,5.28-5.86,8.79-7.74
			l1.93,2.29c-3.05,1.76-5.63,4.34-7.74,7.74c-2.23,3.52-3.34,7.21-3.34,11.08c0,5.63,1.7,10.49,5.1,14.6
			c3.4,3.99,7.5,5.98,12.31,5.98c3.52,0,6.74-1.11,9.67-3.34C538.13,493.03,540.24,489.98,541.53,486.23"/>
		<path class="st1" d="M438.81,326.34c12.2,12.2,27.97,23.51,47.31,33.95c2.7,1.52,3.58,2.58,2.64,3.17l-5.45-0.35
			c-14.07-3.64-29.61-13.78-46.61-30.43c-17.12-16.89-28.85-33.71-35.18-50.48c-5.04-13.13-9.38-21.87-13.02-26.21
			c-3.17-3.87-8.74-7.45-16.71-10.73c-14.42-5.86-24.86-10.55-31.31-14.07c-16.65-9.15-31.02-20.4-43.09-33.77
			c-8.21-9.03-15.6-19.64-22.16-31.84c-2.23-4.22-4.05-6.57-5.45-7.04c-2.11-0.7-3.64,2.23-4.57,8.79
			c-0.82,5.75-1.35,13.07-1.58,21.99c-0.12,8.33,0.06,15.54,0.53,21.63c0.59,6.68-0.06,9.44-1.93,8.27
			c-1.88-1.17-3.17-4.28-3.87-9.32l-36.23-8.97c-24.16-5.86-41.16-10.38-51.01-13.54c-18.53-5.86-29.73-6.86-33.6-2.99
			c-3.52,3.52,0.06,9.5,10.73,17.94c9.5,7.39,15.83,13.31,19,17.77c6.92,9.85,11.78,21.93,14.6,36.23
			c2.81,14.07,2.52,24.51-0.88,31.31c-2.46,4.81-3.64,8.21-3.52,10.2c0.12,3.64,2.81,7.33,8.09,11.08
			c9.26,6.45,14.19,11.73,14.77,15.83l-0.53,6.16c-5.51-5.63-12.55-11.43-21.11-17.41c-6.33-4.46-9.67-8.79-10.03-13.02
			c-0.23-2.46,1.06-6.45,3.87-11.96c3.17-6.33,4.22-14.66,3.17-24.98c-1.17-11.73-5.16-24.16-11.96-37.29
			c-2.81-5.28-10.79-12.96-23.92-23.04c-10.91-8.68-14.19-16.42-9.85-23.22c4.81-7.62,17.94-8.03,39.4-1.23l47.84,14.25l40.81,10.91
			c-1.17-17.12-1.06-31.02,0.35-41.69c1.06-8.91,3.75-14.19,8.09-15.83c4.81-1.99,9.56,2.81,14.25,14.42
			c5.16,12.9,11.96,23.98,20.4,33.24c12.66,13.72,27.97,24.86,45.91,33.42c5.16,2.46,14.89,6.16,29.2,11.08
			c8.68,3.64,14.66,7.5,17.94,11.61c3.05,3.99,7.21,12.78,12.49,26.38C413.77,295.56,424.5,312.15,438.81,326.34"/>
		<path class="st1" d="M387.62,304.36c-24.51-25.8-46.03-41.74-64.55-47.84c-27.91-9.26-52.88-10.2-74.93-2.81
			c-20.64,6.92-34.18,19.29-40.63,37.11c-7.97,22.51-7.92,45.79,0.18,69.83c10.08,29.55,31.02,50.6,62.79,63.15
			c30.61,12.2,55.58,18.88,74.93,20.05c10.91,0.59,18.76-0.41,23.57-2.99c3.75-11.26,8.33-20.34,13.72-27.26
			c12.55-16.42,31.48-28.96,56.81-37.64C428.49,352.84,411.19,328.98,387.62,304.36 M445.31,376.3c1.76,4.46,1.93,6.86,0.53,7.21
			c-1.41,0.47-2.93-0.82-4.57-3.87c-20.87,7.39-37.52,18.59-49.95,33.6c-4.81,5.86-10.73,15.83-17.77,29.9
			c-2.58,5.28-4.22,7.62-4.92,7.04c-0.47-0.47-0.53-1.82-0.18-4.05c-21.93,6.8-56.17,1.11-102.72-17.06
			c-33.42-13.13-55.46-35.65-66.14-67.54c-8.68-26.38-8.38-51.13,0.88-74.23c7.62-19,22.4-32.25,44.32-39.75
			c22.75-7.86,47.84-7.33,75.28,1.58c25.8,8.44,52.24,27.91,79.33,58.4C421.45,332.62,436.75,355.54,445.31,376.3"/>
		<path class="st1" d="M291.06,280.26c12.55-4.34,27.26-5.57,44.15-3.69c16.89,1.76,31.54,6.1,43.97,13.02l4.05,6.51
			c-12.31-6.8-26.62-11.37-42.92-13.72c-17.12-2.35-31.48-1.52-43.09,2.46c-16.3,5.75-27.5,15.83-33.6,30.25
			c-3.64,8.68-4.28,18.59-1.93,29.73c2.35,11.14,7.27,21.99,14.77,32.54c11.49,16.18,26.33,28.44,44.5,36.76
			c18.18,8.33,37.64,11.84,58.4,10.55l0.35,4.05c-21.58,1.41-42.33-2.35-62.27-11.26c-20.17-8.91-36.18-21.69-48.02-38.34
			c-8.09-11.37-13.43-22.75-16.01-34.12c-2.58-11.84-1.93-22.28,1.93-31.31C262.15,297.26,274.05,286.12,291.06,280.26"/>
		<path class="st1" d="M551.9,666.17c1.99-0.35,3.22-1.11,3.69-2.29c0.59-1.17,1-4.69,1.23-10.55l-0.35-9.67
			c-0.23-0.59-2.4,1.52-6.51,6.33c-4.1,4.92-6.21,8.03-6.33,9.32c-0.12,1.29,0.18,2.58,0.88,3.87l2.81,2.64L551.9,666.17
			 M556.13,638.55l2.99-1.76c0.59,0.12,1,1.58,1.23,4.4l-0.53,18.82c-0.23,3.75-1.52,6.45-3.87,8.09l-10.03,0.7
			c-1.64-0.59-3.11-1.7-4.4-3.34c-1.29-1.88-1.88-3.64-1.76-5.28c0.23-1.52,1.82-4.22,4.75-8.09L556.13,638.55"/>
		<path class="st1" d="M530.45,655.26c2.58,0.94,4.92,0.47,7.04-1.41c1.64-1.52,3.11-8.91,4.4-22.16c-0.23-0.7-2.87,1.47-7.92,6.51
			c-5.16,5.04-7.86,8.27-8.09,9.67v0.35C525.87,651.63,527.4,653.97,530.45,655.26 M529.04,658.08c-2.23-1.06-3.93-2.58-5.1-4.57
			c-1.41-2.11-1.82-4.28-1.23-6.51c0.47-1.99,3.05-5.34,7.74-10.03l10.2-8.79c2.35-1.29,3.75-1.76,4.22-1.41l0.35,6.51
			c-0.59,9.15-1.35,15.19-2.29,18.12C540.47,658.9,535.84,661.12,529.04,658.08"/>
		<path class="st1" d="M525.52,617.62c-0.35-0.59-2.99,1.52-7.92,6.33c-5.04,4.81-7.68,7.92-7.92,9.32c0,2.11,0.53,4.05,1.58,5.8
			s2.35,2.93,3.87,3.52c2.11,0.94,4.34,0.23,6.68-2.11c0.82-1.76,1.7-5.86,2.64-12.31C525.52,621.72,525.87,618.21,525.52,617.62
			 M526.22,612.17c1.06-0.94,1.88-1.23,2.46-0.88c0.7,0.47,1,1.47,0.88,2.99c-0.82,13.25-2.05,21.99-3.69,26.21
			c-2.23,5.75-6.21,7.45-11.96,5.1c-2.23-0.94-4.1-2.64-5.63-5.1c-1.41-2.58-2.05-5.04-1.93-7.39c0.12-2.11,1.29-4.46,3.52-7.04
			l5.45-5.45L526.22,612.17"/>
		<path class="st1" d="M493.33,615.86c0.23,2.7,0.94,5.1,2.11,7.21c1.17,2.11,2.58,3.46,4.22,4.05c2.11,0.82,4.05,0.35,5.8-1.41
			l2.81-13.72l1.41-11.43c-0.23-0.47-2.87,1.58-7.92,6.16C496.5,611.29,493.68,614.34,493.33,615.86 M496.15,629.76
			c-2.11-1.52-3.75-3.52-4.93-5.98c-0.82-1.99-1.23-4.63-1.23-7.92c0-1.41,1.23-3.64,3.69-6.68l7.74-7.39
			c4.22-3.87,7.33-6.51,9.32-7.92c1.52-1.06,2.52-1.58,2.99-1.58c0.59,0,0.82,0.88,0.7,2.64l-2.46,19.35l-2.11,10.55
			c-1.29,3.87-3.4,6.1-6.33,6.68C500.95,631.98,498.49,631.4,496.15,629.76"/>
		<path class="st1" d="M493.68,572.94c2.23-15.95,2.81-23.86,1.76-23.75c-1.17,0.12-5.51,5.04-13.02,14.77
			c-7.86,10.08-12.02,16.53-12.49,19.35c-0.59,3.17-0.12,6.39,1.41,9.67c1.52,3.28,3.52,5.39,5.98,6.33
			c3.17,1.41,6.63,1.06,10.38-1.06C489.35,597.33,491.34,588.89,493.68,572.94 M499.66,539.17c0.59,0.35,0.88,2.11,0.88,5.28
			l-1.93,24.62c-1.52,13.72-3.11,23.16-4.75,28.32c-2.35,7.04-8.21,9.15-17.59,6.33c-3.99-1.52-7.04-4.81-9.15-9.85
			c-1.99-5.04-2.17-9.5-0.53-13.37c1.88-4.34,6.68-11.49,14.42-21.46l15.13-17.41C497.91,539.76,499.08,538.94,499.66,539.17"/>
		<path class="st19" d="M525.7,473.57c0,1.88-0.59,3.46-1.76,4.75c-1.29,1.29-2.81,1.93-4.57,1.93c-1.76,0-3.28-0.64-4.57-1.93
			c-1.41-1.29-2.11-2.87-2.11-4.75s0.7-3.46,2.11-4.75c1.29-1.29,2.81-1.93,4.57-1.93c1.76,0,3.28,0.64,4.57,1.93
			C525.11,470.11,525.7,471.69,525.7,473.57"/>
	</g>
</g>
</svg>
